STARTFONT 2.1
COMMENT
COMMENT Converted from OpenType font "ipaexg.ttf" by "..\otf2bdf.exe 3.0".
COMMENT
FONT -FreeType-IPAexGothic-Medium-R-Normal--20-200-72-72-P-174-ISO10646-1
SIZE 20 72 72
FONTBOUNDINGBOX 26 25 -5 -6
STARTPROPERTIES 19
FOUNDRY "FreeType"
FAMILY_NAME "IPAexGothic"
WEIGHT_NAME "Medium"
SLANT "R"
SETWIDTH_NAME "Normal"
ADD_STYLE_NAME ""
PIXEL_SIZE 20
POINT_SIZE 200
RESOLUTION_X 72
RESOLUTION_Y 72
SPACING "P"
AVERAGE_WIDTH 174
CHARSET_REGISTRY "ISO10646"
CHARSET_ENCODING "1"
FONT_ASCENT 17
FONT_DESCENT 2
COPYRIGHT "Copyright(c) Information-technology Promotion Agency, Japan (IPA), 2003-2019. You must accept "https://opensource.org/licenses/IPA/" to use this product."
_OTF_FONTFILE "ipaexg.ttf"
_OTF_PSNAME "IPAexGothic"
ENDPROPERTIES
CHARS 11691
STARTCHAR 0020
ENCODING 32
SWIDTH 250 0
DWIDTH 5 0
BBX 0 0 0 0
BITMAP
ENDCHAR
STARTCHAR 0021
ENCODING 33
SWIDTH 300 0
DWIDTH 6 0
BBX 2 14 2 0
BITMAP
C0
C0
C0
C0
C0
C0
C0
C0
C0
C0
00
00
C0
C0
ENDCHAR
STARTCHAR 0022
ENCODING 34
SWIDTH 350 0
DWIDTH 7 0
BBX 5 5 1 9
BITMAP
D8
D8
D8
D0
D0
ENDCHAR
STARTCHAR 0023
ENCODING 35
SWIDTH 650 0
DWIDTH 13 0
BBX 11 14 1 0
BITMAP
0880
0880
1980
FFE0
1100
1100
1100
1100
FFE0
2200
2200
2200
2200
6200
ENDCHAR
STARTCHAR 0024
ENCODING 36
SWIDTH 650 0
DWIDTH 13 0
BBX 9 17 2 -2
BITMAP
0800
0800
7E00
E380
C100
C000
E000
7000
1E00
0700
0380
0180
0180
C380
7F00
1C00
0800
ENDCHAR
STARTCHAR 0025
ENCODING 37
SWIDTH 850 0
DWIDTH 17 0
BBX 15 16 1 0
BITMAP
0008
7818
CC10
C420
C460
C4C0
C480
7980
033C
0266
0466
0C66
1866
1066
203C
2000
ENDCHAR
STARTCHAR 0026
ENCODING 38
SWIDTH 700 0
DWIDTH 14 0
BBX 12 14 1 -1
BITMAP
0F00
3180
3180
3180
3380
1F00
1C00
7C30
6620
C3E0
C1C0
C0E0
61B0
3E10
ENDCHAR
STARTCHAR 0027
ENCODING 39
SWIDTH 200 0
DWIDTH 4 0
BBX 2 5 1 9
BITMAP
C0
C0
C0
C0
C0
ENDCHAR
STARTCHAR 0028
ENCODING 40
SWIDTH 350 0
DWIDTH 7 0
BBX 4 19 2 -3
BITMAP
10
20
60
60
40
C0
C0
C0
C0
C0
C0
C0
C0
40
60
60
20
30
10
ENDCHAR
STARTCHAR 0029
ENCODING 41
SWIDTH 350 0
DWIDTH 7 0
BBX 4 19 1 -3
BITMAP
80
C0
40
60
60
30
30
30
30
30
30
30
30
20
60
60
40
C0
80
ENDCHAR
STARTCHAR 002A
ENCODING 42
SWIDTH 350 0
DWIDTH 7 0
BBX 6 6 1 9
BITMAP
20
EC
30
F8
A0
20
ENDCHAR
STARTCHAR 002B
ENCODING 43
SWIDTH 700 0
DWIDTH 14 0
BBX 11 11 1 0
BITMAP
0400
0400
0400
0400
0400
FFE0
0400
0400
0400
0400
0400
ENDCHAR
STARTCHAR 002C
ENCODING 44
SWIDTH 250 0
DWIDTH 5 0
BBX 2 5 1 -3
BITMAP
40
40
C0
C0
80
ENDCHAR
STARTCHAR 002D
ENCODING 45
SWIDTH 350 0
DWIDTH 7 0
BBX 5 2 1 5
BITMAP
F8
F8
ENDCHAR
STARTCHAR 002E
ENCODING 46
SWIDTH 250 0
DWIDTH 5 0
BBX 2 2 2 0
BITMAP
C0
C0
ENDCHAR
STARTCHAR 002F
ENCODING 47
SWIDTH 500 0
DWIDTH 10 0
BBX 7 17 1 -2
BITMAP
02
02
02
04
04
08
08
08
10
10
30
20
20
40
40
40
80
ENDCHAR
STARTCHAR 0030
ENCODING 48
SWIDTH 650 0
DWIDTH 13 0
BBX 11 14 1 0
BITMAP
1F00
3180
60C0
4040
C060
C060
C060
C060
C060
C060
60C0
71C0
3F80
1F00
ENDCHAR
STARTCHAR 0031
ENCODING 49
SWIDTH 650 0
DWIDTH 13 0
BBX 6 14 2 0
BITMAP
1C
FC
CC
0C
0C
0C
0C
0C
0C
0C
0C
0C
0C
0C
ENDCHAR
STARTCHAR 0032
ENCODING 50
SWIDTH 650 0
DWIDTH 13 0
BBX 10 14 1 0
BITMAP
1F00
6180
40C0
00C0
00C0
0180
0300
0E00
1800
3000
6000
4000
FFC0
FFC0
ENDCHAR
STARTCHAR 0033
ENCODING 51
SWIDTH 650 0
DWIDTH 13 0
BBX 10 14 1 0
BITMAP
1F00
6180
C0C0
00C0
00C0
0180
1E00
0780
01C0
00C0
00C0
C0C0
6180
3F00
ENDCHAR
STARTCHAR 0034
ENCODING 52
SWIDTH 650 0
DWIDTH 13 0
BBX 11 14 1 0
BITMAP
0380
0380
0580
0980
1980
3180
2180
4180
C180
FFE0
FFE0
0180
0180
0180
ENDCHAR
STARTCHAR 0035
ENCODING 53
SWIDTH 650 0
DWIDTH 13 0
BBX 9 14 2 0
BITMAP
7F80
4000
C000
C000
C000
FE00
C300
8180
0180
0180
0180
8180
C300
3E00
ENDCHAR
STARTCHAR 0036
ENCODING 54
SWIDTH 650 0
DWIDTH 13 0
BBX 9 14 2 0
BITMAP
1F00
2180
4000
4000
C000
9E00
A300
C180
C180
C180
C180
6180
6300
1E00
ENDCHAR
STARTCHAR 0037
ENCODING 55
SWIDTH 650 0
DWIDTH 13 0
BBX 10 14 1 0
BITMAP
FFC0
FFC0
00C0
0180
0100
0300
0200
0600
0400
0C00
0C00
1800
1800
1800
ENDCHAR
STARTCHAR 0038
ENCODING 56
SWIDTH 650 0
DWIDTH 13 0
BBX 11 14 1 0
BITMAP
1F00
3180
60C0
60C0
60C0
3180
1F00
3180
60C0
C060
C060
C060
60C0
3F80
ENDCHAR
STARTCHAR 0039
ENCODING 57
SWIDTH 650 0
DWIDTH 13 0
BBX 10 14 1 0
BITMAP
3E00
6300
C180
C0C0
C0C0
C0C0
C1C0
61C0
3EC0
00C0
0080
4180
6300
3E00
ENDCHAR
STARTCHAR 003A
ENCODING 58
SWIDTH 300 0
DWIDTH 6 0
BBX 2 10 2 0
BITMAP
C0
C0
00
00
00
00
00
00
C0
C0
ENDCHAR
STARTCHAR 003B
ENCODING 59
SWIDTH 300 0
DWIDTH 6 0
BBX 3 13 1 -4
BITMAP
60
60
00
00
00
00
00
00
60
60
40
40
C0
ENDCHAR
STARTCHAR 003C
ENCODING 60
SWIDTH 700 0
DWIDTH 14 0
BBX 11 11 1 0
BITMAP
0020
00E0
0380
0C00
3000
C000
7000
1C00
0700
01C0
0060
ENDCHAR
STARTCHAR 003D
ENCODING 61
SWIDTH 700 0
DWIDTH 14 0
BBX 11 5 1 4
BITMAP
FFE0
0000
0000
0000
FFE0
ENDCHAR
STARTCHAR 003E
ENCODING 62
SWIDTH 700 0
DWIDTH 14 0
BBX 11 11 1 0
BITMAP
4000
7000
1C00
0700
01C0
0060
00E0
0300
0C00
3000
C000
ENDCHAR
STARTCHAR 003F
ENCODING 63
SWIDTH 550 0
DWIDTH 11 0
BBX 9 14 1 0
BITMAP
3E00
C300
8180
0180
0180
0300
0600
0C00
1800
1800
0000
0000
1800
1800
ENDCHAR
STARTCHAR 0040
ENCODING 64
SWIDTH 900 0
DWIDTH 18 0
BBX 14 14 2 0
BITMAP
07C0
1830
23A8
4C68
CC64
9864
9844
9844
98C8
99C8
4E70
6000
1038
0FE0
ENDCHAR
STARTCHAR 0041
ENCODING 65
SWIDTH 650 0
DWIDTH 13 0
BBX 12 15 0 0
BITMAP
0200
0700
0700
0D00
0D80
0980
1880
18C0
30C0
3FE0
2060
6020
6030
4030
C010
ENDCHAR
STARTCHAR 0042
ENCODING 66
SWIDTH 650 0
DWIDTH 13 0
BBX 10 14 2 0
BITMAP
FF00
C180
C0C0
C0C0
C0C0
C180
FE00
C380
C0C0
C0C0
C0C0
C0C0
C180
FF00
ENDCHAR
STARTCHAR 0043
ENCODING 67
SWIDTH 750 0
DWIDTH 15 0
BBX 12 14 1 0
BITMAP
0FC0
3FF0
7830
6000
E000
C000
C000
C000
C000
E000
6010
7870
3FE0
0FC0
ENDCHAR
STARTCHAR 0044
ENCODING 68
SWIDTH 750 0
DWIDTH 15 0
BBX 12 14 2 0
BITMAP
FF00
FFC0
C1E0
C060
C030
C030
C030
C030
C030
C030
C060
C1E0
FFC0
FF00
ENDCHAR
STARTCHAR 0045
ENCODING 69
SWIDTH 600 0
DWIDTH 12 0
BBX 9 14 2 0
BITMAP
FF80
FF80
C000
C000
C000
C000
FF00
C000
C000
C000
C000
C000
FF80
FF80
ENDCHAR
STARTCHAR 0046
ENCODING 70
SWIDTH 550 0
DWIDTH 11 0
BBX 9 14 2 0
BITMAP
FF80
FF80
C000
C000
C000
C000
FF00
C000
C000
C000
C000
C000
C000
C000
ENDCHAR
STARTCHAR 0047
ENCODING 71
SWIDTH 750 0
DWIDTH 15 0
BBX 13 14 1 0
BITMAP
0FC0
1FF0
7830
6000
E000
C000
C000
C0F8
C018
E018
6018
7838
3FF0
0FC0
ENDCHAR
STARTCHAR 0048
ENCODING 72
SWIDTH 750 0
DWIDTH 15 0
BBX 11 14 2 1
BITMAP
C060
C060
C060
C060
C060
C060
FFE0
C060
C060
C060
C060
C060
C060
C060
ENDCHAR
STARTCHAR 0049
ENCODING 73
SWIDTH 300 0
DWIDTH 6 0
BBX 2 14 2 1
BITMAP
C0
C0
C0
C0
C0
C0
C0
C0
C0
C0
C0
C0
C0
C0
ENDCHAR
STARTCHAR 004A
ENCODING 74
SWIDTH 400 0
DWIDTH 8 0
BBX 6 14 0 1
BITMAP
0C
0C
0C
0C
0C
0C
0C
0C
0C
0C
0C
0C
FC
F8
ENDCHAR
STARTCHAR 004B
ENCODING 75
SWIDTH 650 0
DWIDTH 13 0
BBX 11 14 2 0
BITMAP
C0C0
C180
C300
C600
CC00
D800
F800
EC00
C600
C300
C300
C180
C0C0
C060
ENDCHAR
STARTCHAR 004C
ENCODING 76
SWIDTH 550 0
DWIDTH 11 0
BBX 9 15 2 0
BITMAP
C000
C000
C000
C000
C000
C000
C000
C000
C000
C000
C000
C000
C000
FF80
FF80
ENDCHAR
STARTCHAR 004D
ENCODING 77
SWIDTH 900 0
DWIDTH 18 0
BBX 14 14 2 -1
BITMAP
E01C
E01C
F03C
D02C
D02C
D86C
C84C
CCCC
CCCC
C48C
C78C
C70C
C30C
C30C
ENDCHAR
STARTCHAR 004E
ENCODING 78
SWIDTH 750 0
DWIDTH 15 0
BBX 11 14 2 -1
BITMAP
E060
E060
F060
D860
D860
CC60
C460
C660
C360
C360
C1E0
C0E0
C0E0
C060
ENDCHAR
STARTCHAR 004F
ENCODING 79
SWIDTH 800 0
DWIDTH 16 0
BBX 14 14 1 0
BITMAP
0FC0
3870
6018
6018
C00C
C00C
C00C
C00C
C00C
E01C
6018
7878
3FF0
0FC0
ENDCHAR
STARTCHAR 0050
ENCODING 80
SWIDTH 600 0
DWIDTH 12 0
BBX 10 14 2 0
BITMAP
FF00
C180
C0C0
C0C0
C0C0
C0C0
C180
FF00
C000
C000
C000
C000
C000
C000
ENDCHAR
STARTCHAR 0051
ENCODING 81
SWIDTH 800 0
DWIDTH 16 0
BBX 14 15 1 -2
BITMAP
0FC0
3870
7038
6018
C00C
C00C
C00C
C00C
C00C
C10C
6398
70F8
3870
0FD8
000C
ENDCHAR
STARTCHAR 0052
ENCODING 82
SWIDTH 650 0
DWIDTH 13 0
BBX 11 14 2 0
BITMAP
FF00
C180
C0C0
C0C0
C0C0
C180
FF00
CE00
C300
C180
C180
C0C0
C0C0
C060
ENDCHAR
STARTCHAR 0053
ENCODING 83
SWIDTH 600 0
DWIDTH 12 0
BBX 10 14 1 0
BITMAP
3E00
6180
C080
C000
C000
7000
3E00
0F80
01C0
00C0
00C0
C0C0
7F80
3F00
ENDCHAR
STARTCHAR 0054
ENCODING 84
SWIDTH 600 0
DWIDTH 12 0
BBX 12 15 0 -1
BITMAP
FFF0
FFF0
0600
0600
0600
0600
0600
0600
0600
0600
0600
0600
0600
0600
0600
ENDCHAR
STARTCHAR 0055
ENCODING 85
SWIDTH 750 0
DWIDTH 15 0
BBX 11 14 2 1
BITMAP
C060
C060
C060
C060
C060
C060
C060
C060
C060
C060
C060
60C0
7FC0
1F00
ENDCHAR
STARTCHAR 0056
ENCODING 86
SWIDTH 650 0
DWIDTH 13 0
BBX 13 14 0 -1
BITMAP
C018
6030
6030
6060
3060
3060
10C0
18C0
1880
0D80
0D80
0D00
0700
0600
ENDCHAR
STARTCHAR 0057
ENCODING 87
SWIDTH 950 0
DWIDTH 19 0
BBX 18 14 0 -1
BITMAP
C0C0C0
60C0C0
60E0C0
60E080
21A180
31B180
313100
331300
1B1B00
1A1A00
1A1A00
0E0E00
0C0E00
0C0C00
ENDCHAR
STARTCHAR 0058
ENCODING 88
SWIDTH 700 0
DWIDTH 14 0
BBX 12 14 1 0
BITMAP
C070
6060
70C0
3180
1980
0F00
0E00
0E00
0F00
1980
31C0
60C0
6060
C070
ENDCHAR
STARTCHAR 0059
ENCODING 89
SWIDTH 600 0
DWIDTH 12 0
BBX 12 14 0 -1
BITMAP
C030
6060
7060
30C0
1980
0D80
0F00
0600
0600
0600
0600
0600
0600
0600
ENDCHAR
STARTCHAR 005A
ENCODING 90
SWIDTH 650 0
DWIDTH 13 0
BBX 11 14 1 0
BITMAP
FFE0
FFE0
00C0
0180
0300
0700
0600
0C00
1800
3000
6000
C000
FFE0
FFE0
ENDCHAR
STARTCHAR 005B
ENCODING 91
SWIDTH 300 0
DWIDTH 6 0
BBX 3 18 2 -3
BITMAP
E0
80
80
80
80
80
80
80
80
80
80
80
80
80
80
80
80
E0
ENDCHAR
STARTCHAR 005C
ENCODING 92
SWIDTH 500 0
DWIDTH 10 0
BBX 7 17 2 -2
BITMAP
80
80
80
40
40
20
20
20
10
10
18
08
08
04
04
04
02
ENDCHAR
STARTCHAR 005D
ENCODING 93
SWIDTH 300 0
DWIDTH 6 0
BBX 3 18 1 -3
BITMAP
E0
20
20
20
20
20
20
20
20
20
20
20
20
20
20
20
20
E0
ENDCHAR
STARTCHAR 005E
ENCODING 94
SWIDTH 500 0
DWIDTH 10 0
BBX 8 6 1 7
BITMAP
10
18
24
42
C3
81
ENDCHAR
STARTCHAR 005F
ENCODING 95
SWIDTH 500 0
DWIDTH 10 0
BBX 10 1 0 -2
BITMAP
FFC0
ENDCHAR
STARTCHAR 0060
ENCODING 96
SWIDTH 500 0
DWIDTH 10 0
BBX 3 2 3 12
BITMAP
C0
60
ENDCHAR
STARTCHAR 0061
ENCODING 97
SWIDTH 550 0
DWIDTH 11 0
BBX 8 10 1 0
BITMAP
3C
63
43
03
3F
E3
C3
C3
C5
79
ENDCHAR
STARTCHAR 0062
ENCODING 98
SWIDTH 600 0
DWIDTH 12 0
BBX 10 15 2 -1
BITMAP
C000
C000
C000
C000
C000
DF00
F180
E180
C0C0
C0C0
C0C0
C0C0
C180
E180
DF00
ENDCHAR
STARTCHAR 0063
ENCODING 99
SWIDTH 550 0
DWIDTH 11 0
BBX 9 10 1 0
BITMAP
1E00
7180
6180
C000
C000
C000
C000
6080
7180
1E00
ENDCHAR
STARTCHAR 0064
ENCODING 100
SWIDTH 600 0
DWIDTH 12 0
BBX 10 15 1 0
BITMAP
00C0
00C0
00C0
00C0
00C0
3EC0
61C0
60C0
C0C0
C0C0
C0C0
C0C0
61C0
63C0
3EC0
ENDCHAR
STARTCHAR 0065
ENCODING 101
SWIDTH 550 0
DWIDTH 11 0
BBX 9 10 1 0
BITMAP
1E00
6300
4180
C080
FF80
C000
C000
4080
6180
1F00
ENDCHAR
STARTCHAR 0066
ENCODING 102
SWIDTH 300 0
DWIDTH 6 0
BBX 8 15 0 0
BITMAP
0F
18
30
30
30
FE
30
30
30
30
30
30
30
30
30
ENDCHAR
STARTCHAR 0067
ENCODING 103
SWIDTH 550 0
DWIDTH 11 0
BBX 9 15 1 -4
BITMAP
0080
3F80
6700
C300
C300
C300
6600
3C00
6000
7C00
3F80
C180
C180
C180
3F00
ENDCHAR
STARTCHAR 0068
ENCODING 104
SWIDTH 600 0
DWIDTH 12 0
BBX 8 15 2 0
BITMAP
C0
C0
C0
C0
C0
DE
E7
C3
C3
C3
C3
C3
C3
C3
C3
ENDCHAR
STARTCHAR 0069
ENCODING 105
SWIDTH 250 0
DWIDTH 5 0
BBX 2 14 2 0
BITMAP
C0
C0
00
00
C0
C0
C0
C0
C0
C0
C0
C0
C0
C0
ENDCHAR
STARTCHAR 006A
ENCODING 106
SWIDTH 250 0
DWIDTH 5 0
BBX 4 18 0 -5
BITMAP
30
30
00
00
30
30
30
30
30
30
30
30
30
30
30
30
E0
C0
ENDCHAR
STARTCHAR 006B
ENCODING 107
SWIDTH 500 0
DWIDTH 10 0
BBX 8 15 2 0
BITMAP
C0
C0
C0
C0
C0
C3
C6
CC
D8
F0
F8
CC
C6
C3
C3
ENDCHAR
STARTCHAR 006C
ENCODING 108
SWIDTH 250 0
DWIDTH 5 0
BBX 2 15 2 0
BITMAP
C0
C0
C0
C0
C0
C0
C0
C0
C0
C0
C0
C0
C0
C0
C0
ENDCHAR
STARTCHAR 006D
ENCODING 109
SWIDTH 850 0
DWIDTH 17 0
BBX 14 10 2 0
BITMAP
DE78
E69C
C30C
C30C
C30C
C30C
C30C
C30C
C30C
C30C
ENDCHAR
STARTCHAR 006E
ENCODING 110
SWIDTH 600 0
DWIDTH 12 0
BBX 8 10 2 0
BITMAP
DE
E7
C3
C3
C3
C3
C3
C3
C3
C3
ENDCHAR
STARTCHAR 006F
ENCODING 111
SWIDTH 600 0
DWIDTH 12 0
BBX 10 10 1 0
BITMAP
1E00
6180
6180
C0C0
C0C0
C0C0
C0C0
6180
6180
1E00
ENDCHAR
STARTCHAR 0070
ENCODING 112
SWIDTH 600 0
DWIDTH 12 0
BBX 10 14 2 -4
BITMAP
DF00
F180
E180
C0C0
C0C0
C0C0
C0C0
C180
E180
DF00
C000
C000
C000
C000
ENDCHAR
STARTCHAR 0071
ENCODING 113
SWIDTH 600 0
DWIDTH 12 0
BBX 10 14 1 -3
BITMAP
1EC0
61C0
60C0
C0C0
C0C0
C0C0
C0C0
61C0
61C0
3EC0
00C0
00C0
00C0
00C0
ENDCHAR
STARTCHAR 0072
ENCODING 114
SWIDTH 350 0
DWIDTH 7 0
BBX 6 10 2 1
BITMAP
DC
D8
E0
E0
C0
C0
C0
C0
C0
C0
ENDCHAR
STARTCHAR 0073
ENCODING 115
SWIDTH 450 0
DWIDTH 9 0
BBX 7 10 1 0
BITMAP
7C
C6
C0
E0
78
1C
0E
06
C6
7C
ENDCHAR
STARTCHAR 0074
ENCODING 116
SWIDTH 350 0
DWIDTH 7 0
BBX 6 13 1 1
BITMAP
20
60
60
FC
60
60
60
60
60
60
60
60
3C
ENDCHAR
STARTCHAR 0075
ENCODING 117
SWIDTH 600 0
DWIDTH 12 0
BBX 8 10 2 0
BITMAP
C3
C3
C3
C3
C3
C3
C3
C3
E7
7B
ENDCHAR
STARTCHAR 0076
ENCODING 118
SWIDTH 500 0
DWIDTH 10 0
BBX 9 10 0 0
BITMAP
C080
6180
6180
2100
3300
3200
1600
1E00
0C00
0C00
ENDCHAR
STARTCHAR 0077
ENCODING 119
SWIDTH 750 0
DWIDTH 15 0
BBX 15 10 0 0
BITMAP
C106
4384
628C
628C
26C8
3448
3458
1C70
1830
1830
ENDCHAR
STARTCHAR 0078
ENCODING 120
SWIDTH 500 0
DWIDTH 10 0
BBX 8 10 1 0
BITMAP
C3
C2
66
3C
18
38
2C
66
C2
83
ENDCHAR
STARTCHAR 0079
ENCODING 121
SWIDTH 500 0
DWIDTH 10 0
BBX 10 14 0 -4
BITMAP
C0C0
6180
6180
2100
3300
1200
1E00
1E00
0C00
0C00
0800
1800
7000
6000
ENDCHAR
STARTCHAR 007A
ENCODING 122
SWIDTH 450 0
DWIDTH 9 0
BBX 8 10 1 0
BITMAP
FE
06
0C
0C
18
30
30
60
C0
FF
ENDCHAR
STARTCHAR 007B
ENCODING 123
SWIDTH 350 0
DWIDTH 7 0
BBX 4 18 1 -4
BITMAP
30
40
40
40
40
40
40
40
C0
C0
40
40
40
40
40
40
40
30
ENDCHAR
STARTCHAR 007C
ENCODING 124
SWIDTH 200 0
DWIDTH 4 0
BBX 1 18 1 -4
BITMAP
80
80
80
80
80
80
80
80
80
80
80
80
80
80
80
80
80
80
ENDCHAR
STARTCHAR 007D
ENCODING 125
SWIDTH 350 0
DWIDTH 7 0
BBX 4 18 1 -4
BITMAP
C0
20
20
20
20
20
20
20
30
30
20
20
20
20
20
20
20
C0
ENDCHAR
STARTCHAR 007E
ENCODING 126
SWIDTH 500 0
DWIDTH 10 0
BBX 6 2 2 11
BITMAP
E4
9C
ENDCHAR
STARTCHAR 00A0
ENCODING 160
SWIDTH 250 0
DWIDTH 5 0
BBX 0 0 0 0
BITMAP
ENDCHAR
STARTCHAR 00A1
ENCODING 161
SWIDTH 300 0
DWIDTH 6 0
BBX 2 14 2 0
BITMAP
C0
C0
00
00
C0
C0
C0
C0
C0
C0
C0
C0
C0
C0
ENDCHAR
STARTCHAR 00A2
ENCODING 162
SWIDTH 650 0
DWIDTH 13 0
BBX 10 14 1 1
BITMAP
0100
0100
1F00
3380
66C0
C400
C400
CC00
C8C0
68C0
3980
1F00
3000
3000
ENDCHAR
STARTCHAR 00A3
ENCODING 163
SWIDTH 850 0
DWIDTH 17 0
BBX 14 15 1 0
BITMAP
03C0
0C60
0C30
0C00
0C00
3FE0
0200
0200
0200
7A00
C604
C30C
C798
C4F8
7870
ENDCHAR
STARTCHAR 00A4
ENCODING 164
SWIDTH 650 0
DWIDTH 13 0
BBX 9 9 2 2
BITMAP
9D80
E300
4100
8080
8080
8080
C180
6300
BF80
ENDCHAR
STARTCHAR 00A5
ENCODING 165
SWIDTH 650 0
DWIDTH 13 0
BBX 12 14 0 0
BITMAP
C030
6060
30C0
1880
1980
0F00
7FE0
0600
0600
7FE0
0600
0600
0600
0600
ENDCHAR
STARTCHAR 00A6
ENCODING 166
SWIDTH 200 0
DWIDTH 4 0
BBX 1 18 1 -4
BITMAP
80
80
80
80
80
80
80
80
00
00
00
80
80
80
80
80
80
80
ENDCHAR
STARTCHAR 00A7
ENCODING 167
SWIDTH 600 0
DWIDTH 12 0
BBX 8 18 2 -2
BITMAP
3C
46
C3
C0
E0
38
5C
C7
C3
E3
33
1E
06
03
C3
C3
7E
3C
ENDCHAR
STARTCHAR 00A8
ENCODING 168
SWIDTH 500 0
DWIDTH 10 0
BBX 6 2 2 13
BITMAP
CC
CC
ENDCHAR
STARTCHAR 00A9
ENCODING 169
SWIDTH 1000 0
DWIDTH 20 0
BBX 16 17 2 -1
BITMAP
07E0
0C30
300C
23E4
47F2
CE3A
9C01
9801
9801
9801
9C01
4E3B
4FF2
23E4
300C
0C18
07E0
ENDCHAR
STARTCHAR 00AA
ENCODING 170
SWIDTH 450 0
DWIDTH 9 0
BBX 7 8 1 6
BITMAP
78
44
7C
84
8C
74
00
FE
ENDCHAR
STARTCHAR 00AB
ENCODING 171
SWIDTH 600 0
DWIDTH 12 0
BBX 8 9 2 2
BITMAP
11
32
66
4C
CC
44
66
32
11
ENDCHAR
STARTCHAR 00AC
ENCODING 172
SWIDTH 700 0
DWIDTH 14 0
BBX 10 5 1 3
BITMAP
FFC0
0040
0040
0040
0040
ENDCHAR
STARTCHAR 00AD
ENCODING 173
SWIDTH 700 0
DWIDTH 14 0
BBX 11 1 1 6
BITMAP
FFE0
ENDCHAR
STARTCHAR 00AE
ENCODING 174
SWIDTH 1000 0
DWIDTH 20 0
BBX 17 17 2 -1
BITMAP
03E000
0C1800
100600
27E200
467100
461900
861880
863880
87F080
866080
863080
461100
461900
261A00
100400
0C1800
03E000
ENDCHAR
STARTCHAR 00AF
ENCODING 175
SWIDTH 500 0
DWIDTH 10 0
BBX 6 1 2 13
BITMAP
FC
ENDCHAR
STARTCHAR 00B0
ENCODING 176
SWIDTH 350 0
DWIDTH 7 0
BBX 5 5 1 12
BITMAP
70
88
88
88
70
ENDCHAR
STARTCHAR 00B1
ENCODING 177
SWIDTH 700 0
DWIDTH 14 0
BBX 11 12 1 1
BITMAP
0400
0400
0400
0400
FFE0
0400
0400
0400
0400
0400
0000
FFE0
ENDCHAR
STARTCHAR 00B2
ENCODING 178
SWIDTH 400 0
DWIDTH 8 0
BBX 6 7 1 7
BITMAP
78
C4
04
18
60
C0
FC
ENDCHAR
STARTCHAR 00B3
ENCODING 179
SWIDTH 400 0
DWIDTH 8 0
BBX 6 8 1 6
BITMAP
78
C4
04
38
0C
04
C4
78
ENDCHAR
STARTCHAR 00B4
ENCODING 180
SWIDTH 500 0
DWIDTH 10 0
BBX 3 2 4 12
BITMAP
60
C0
ENDCHAR
STARTCHAR 00B6
ENCODING 182
SWIDTH 1000 0
DWIDTH 20 0
BBX 8 18 5 -2
BITMAP
7F
71
F1
F1
F1
F1
71
11
11
11
11
11
11
11
11
11
11
11
ENDCHAR
STARTCHAR 00B7
ENCODING 183
SWIDTH 250 0
DWIDTH 5 0
BBX 2 2 2 5
BITMAP
C0
C0
ENDCHAR
STARTCHAR 00B8
ENCODING 184
SWIDTH 500 0
DWIDTH 10 0
BBX 4 4 3 -4
BITMAP
40
70
10
F0
ENDCHAR
STARTCHAR 00B9
ENCODING 185
SWIDTH 400 0
DWIDTH 8 0
BBX 3 8 2 7
BITMAP
20
E0
20
20
20
20
20
20
ENDCHAR
STARTCHAR 00BA
ENCODING 186
SWIDTH 450 0
DWIDTH 9 0
BBX 7 8 1 6
BITMAP
7C
C6
C6
C6
C6
7C
00
FE
ENDCHAR
STARTCHAR 00BB
ENCODING 187
SWIDTH 600 0
DWIDTH 12 0
BBX 8 9 2 2
BITMAP
88
4C
66
22
33
22
64
CC
88
ENDCHAR
STARTCHAR 00BC
ENCODING 188
SWIDTH 850 0
DWIDTH 17 0
BBX 13 15 2 -1
BITMAP
2010
E020
2020
2040
2080
2180
2100
2230
0470
0450
0890
1190
31F8
2010
4000
ENDCHAR
STARTCHAR 00BD
ENCODING 189
SWIDTH 850 0
DWIDTH 17 0
BBX 14 15 2 -1
BITMAP
2010
E030
2020
2040
20C0
2080
2100
2278
0244
0484
080C
1838
1060
20C0
60FC
ENDCHAR
STARTCHAR 00BE
ENCODING 190
SWIDTH 850 0
DWIDTH 17 0
BBX 14 15 1 -1
BITMAP
0008
7818
C430
0420
3840
04C0
8480
7918
0218
0628
0448
08C8
10FC
3008
2000
ENDCHAR
STARTCHAR 00BF
ENCODING 191
SWIDTH 550 0
DWIDTH 11 0
BBX 9 14 1 0
BITMAP
0C00
0C00
0000
0C00
0C00
0C00
1800
3000
6000
C000
C080
C180
6300
3E00
ENDCHAR
STARTCHAR 00C0
ENCODING 192
SWIDTH 650 0
DWIDTH 13 0
BBX 13 18 0 0
BITMAP
0C00
0600
0200
0200
0600
0700
0D00
0D80
0980
1880
18C0
10C0
3FE0
2060
6020
6030
4030
C018
ENDCHAR
STARTCHAR 00C1
ENCODING 193
SWIDTH 650 0
DWIDTH 13 0
BBX 13 18 0 0
BITMAP
0100
0300
0600
0200
0600
0700
0D00
0D80
0980
1880
18C0
10C0
3FE0
2060
6020
6030
4030
C018
ENDCHAR
STARTCHAR 00C2
ENCODING 194
SWIDTH 650 0
DWIDTH 13 0
BBX 13 18 0 1
BITMAP
0700
0D00
0080
0200
0700
0700
0D00
0D80
0980
1880
18C0
30C0
3FE0
2060
6020
6030
4030
C018
ENDCHAR
STARTCHAR 00C3
ENCODING 195
SWIDTH 650 0
DWIDTH 13 0
BBX 13 18 0 0
BITMAP
0E40
1380
0000
0200
0700
0700
0D00
0D80
0980
1880
18C0
30C0
3FE0
2060
6020
6030
4030
C018
ENDCHAR
STARTCHAR 00C4
ENCODING 196
SWIDTH 650 0
DWIDTH 13 0
BBX 13 18 0 0
BITMAP
1880
1880
0000
0200
0700
0700
0D00
0D80
0980
1880
18C0
30C0
3FE0
2060
6020
6030
4030
C018
ENDCHAR
STARTCHAR 00C5
ENCODING 197
SWIDTH 650 0
DWIDTH 13 0
BBX 13 19 0 0
BITMAP
0200
0500
0500
0300
0200
0700
0700
0D00
0D80
0980
1880
18C0
10C0
3FE0
2060
6020
6030
4030
C018
ENDCHAR
STARTCHAR 00C6
ENCODING 198
SWIDTH 900 0
DWIDTH 18 0
BBX 17 14 0 0
BITMAP
03FF00
03FF00
068000
068000
0CC000
0CC000
18FF00
18C000
3FC000
304000
206000
606000
607F80
C07F80
ENDCHAR
STARTCHAR 00C7
ENCODING 199
SWIDTH 750 0
DWIDTH 15 0
BBX 12 18 1 -5
BITMAP
0FC0
3FF0
7830
6000
E000
C000
C000
C000
C000
E000
6030
3870
1FE0
0300
0200
0380
0180
0780
ENDCHAR
STARTCHAR 00C8
ENCODING 200
SWIDTH 600 0
DWIDTH 12 0
BBX 9 18 2 0
BITMAP
1800
1800
0C00
0000
FF80
FF80
C000
C000
C000
C000
FF00
C000
C000
C000
C000
C000
FF80
FF80
ENDCHAR
STARTCHAR 00C9
ENCODING 201
SWIDTH 600 0
DWIDTH 12 0
BBX 9 18 2 0
BITMAP
0600
0C00
0800
0000
FF80
FF80
C000
C000
C000
C000
FF00
C000
C000
C000
C000
C000
FF80
FF80
ENDCHAR
STARTCHAR 00CA
ENCODING 202
SWIDTH 600 0
DWIDTH 12 0
BBX 9 18 2 0
BITMAP
0C00
1C00
3200
0000
FF80
FF80
C000
C000
C000
C000
FF00
C000
C000
C000
C000
C000
FF80
FF80
ENDCHAR
STARTCHAR 00CB
ENCODING 203
SWIDTH 600 0
DWIDTH 12 0
BBX 9 17 2 1
BITMAP
3300
3300
0000
FF80
FF80
C000
C000
C000
C000
FF00
C000
C000
C000
C000
C000
FF80
FF80
ENDCHAR
STARTCHAR 00CC
ENCODING 204
SWIDTH 300 0
DWIDTH 6 0
BBX 3 18 1 0
BITMAP
C0
40
60
00
60
60
60
60
60
60
60
60
60
60
60
60
60
60
ENDCHAR
STARTCHAR 00CD
ENCODING 205
SWIDTH 300 0
DWIDTH 6 0
BBX 3 18 2 0
BITMAP
60
40
C0
00
C0
C0
C0
C0
C0
C0
C0
C0
C0
C0
C0
C0
C0
C0
ENDCHAR
STARTCHAR 00CE
ENCODING 206
SWIDTH 300 0
DWIDTH 6 0
BBX 6 18 0 0
BITMAP
30
78
CC
00
30
30
30
30
30
30
30
30
30
30
30
30
30
30
ENDCHAR
STARTCHAR 00CF
ENCODING 207
SWIDTH 300 0
DWIDTH 6 0
BBX 6 17 0 1
BITMAP
CC
00
00
30
30
30
30
30
30
30
30
30
30
30
30
30
30
ENDCHAR
STARTCHAR 00D0
ENCODING 208
SWIDTH 750 0
DWIDTH 15 0
BBX 13 14 1 0
BITMAP
7F80
60E0
6030
6030
6018
6018
FC18
6018
6018
6038
6030
60F0
7FE0
7F80
ENDCHAR
STARTCHAR 00D1
ENCODING 209
SWIDTH 750 0
DWIDTH 15 0
BBX 11 17 2 0
BITMAP
1C80
0700
0000
E060
E060
F060
D860
D860
CC60
C460
C660
C360
C360
C1E0
C1E0
C0E0
C060
ENDCHAR
STARTCHAR 00D2
ENCODING 210
SWIDTH 800 0
DWIDTH 16 0
BBX 14 18 1 0
BITMAP
0600
0200
0300
0000
0FC0
3870
6038
6018
C00C
C00C
C00C
C00C
C00C
E01C
6018
7878
3FF0
0FC0
ENDCHAR
STARTCHAR 00D3
ENCODING 211
SWIDTH 800 0
DWIDTH 16 0
BBX 14 18 1 0
BITMAP
0180
0100
0300
0000
0FC0
3870
6038
6018
C00C
C00C
C00C
C00C
C00C
E01C
6018
7878
3FF0
0FC0
ENDCHAR
STARTCHAR 00D4
ENCODING 212
SWIDTH 800 0
DWIDTH 16 0
BBX 14 18 1 0
BITMAP
0300
0700
0480
0000
0FC0
3870
6038
6018
C00C
C00C
C00C
C00C
C00C
E01C
6018
7878
3FF0
0FC0
ENDCHAR
STARTCHAR 00D5
ENCODING 213
SWIDTH 800 0
DWIDTH 16 0
BBX 14 17 1 1
BITMAP
0E60
09C0
0000
0FC0
3870
6038
6018
C00C
C00C
C00C
C00C
C00C
E01C
6018
7878
3FF0
0FC0
ENDCHAR
STARTCHAR 00D6
ENCODING 214
SWIDTH 800 0
DWIDTH 16 0
BBX 14 17 1 1
BITMAP
0CC0
0CC0
0000
0FC0
3870
6038
6018
C00C
C00C
C00C
C00C
C00C
E01C
6018
7878
3FF0
0FC0
ENDCHAR
STARTCHAR 00D7
ENCODING 215
SWIDTH 700 0
DWIDTH 14 0
BBX 8 8 3 3
BITMAP
81
C2
64
38
18
2C
46
83
ENDCHAR
STARTCHAR 00D8
ENCODING 216
SWIDTH 800 0
DWIDTH 16 0
BBX 14 14 1 0
BITMAP
0FD8
3870
6038
6058
C08C
C18C
C30C
C20C
C40C
C81C
7818
7078
3FF0
4FC0
ENDCHAR
STARTCHAR 00D9
ENCODING 217
SWIDTH 750 0
DWIDTH 15 0
BBX 11 18 2 0
BITMAP
0800
0C00
0400
0000
C060
C060
C060
C060
C060
C060
C060
C060
C060
C060
C060
60C0
7FC0
1F00
ENDCHAR
STARTCHAR 00DA
ENCODING 218
SWIDTH 750 0
DWIDTH 15 0
BBX 11 18 2 0
BITMAP
0200
0600
0400
0000
C060
C060
C060
C060
C060
C060
C060
C060
C060
C060
C060
60C0
7FC0
1F00
ENDCHAR
STARTCHAR 00DB
ENCODING 219
SWIDTH 750 0
DWIDTH 15 0
BBX 11 18 2 0
BITMAP
0400
0A00
1100
0000
C060
C060
C060
C060
C060
C060
C060
C060
C060
C060
C060
60C0
7FC0
1F00
ENDCHAR
STARTCHAR 00DC
ENCODING 220
SWIDTH 750 0
DWIDTH 15 0
BBX 11 17 2 1
BITMAP
1B00
1B00
0000
C060
C060
C060
C060
C060
C060
C060
C060
C060
C060
C060
60C0
7FC0
1F00
ENDCHAR
STARTCHAR 00DD
ENCODING 221
SWIDTH 600 0
DWIDTH 12 0
BBX 12 18 0 -1
BITMAP
0300
0300
0600
0000
C030
6060
7060
30C0
1980
0D00
0F00
0600
0600
0600
0600
0600
0600
0600
ENDCHAR
STARTCHAR 00DE
ENCODING 222
SWIDTH 600 0
DWIDTH 12 0
BBX 10 13 2 1
BITMAP
C000
C000
FF00
C180
C0C0
C0C0
C0C0
C0C0
C180
FF00
C000
C000
C000
ENDCHAR
STARTCHAR 00DF
ENCODING 223
SWIDTH 550 0
DWIDTH 11 0
BBX 9 14 2 0
BITMAP
3E00
6700
C300
C300
C300
C600
CC00
C700
C180
C180
C180
C180
C300
DE00
ENDCHAR
STARTCHAR 00E0
ENCODING 224
SWIDTH 550 0
DWIDTH 11 0
BBX 8 14 1 1
BITMAP
30
18
00
00
3C
63
43
03
3F
E3
C3
C3
C7
79
ENDCHAR
STARTCHAR 00E1
ENCODING 225
SWIDTH 550 0
DWIDTH 11 0
BBX 8 14 1 1
BITMAP
0C
08
00
00
3C
63
43
03
3F
E3
C3
C3
C7
79
ENDCHAR
STARTCHAR 00E2
ENCODING 226
SWIDTH 550 0
DWIDTH 11 0
BBX 8 14 1 1
BITMAP
1C
34
00
00
3C
63
43
03
3F
E3
C3
C3
C7
79
ENDCHAR
STARTCHAR 00E3
ENCODING 227
SWIDTH 550 0
DWIDTH 11 0
BBX 8 14 1 0
BITMAP
30
4E
00
00
3C
63
43
03
3F
E3
C3
C3
C7
79
ENDCHAR
STARTCHAR 00E4
ENCODING 228
SWIDTH 550 0
DWIDTH 11 0
BBX 8 14 1 0
BITMAP
66
66
00
00
3C
63
43
03
3F
E3
C3
C3
C7
79
ENDCHAR
STARTCHAR 00E5
ENCODING 229
SWIDTH 550 0
DWIDTH 11 0
BBX 8 14 1 0
BITMAP
1C
14
1C
00
3C
63
43
03
3F
E3
C3
C3
C7
79
ENDCHAR
STARTCHAR 00E6
ENCODING 230
SWIDTH 900 0
DWIDTH 18 0
BBX 16 10 1 0
BITMAP
3E78
63C6
4182
0103
3FFF
6100
C100
C382
E6C6
7C7C
ENDCHAR
STARTCHAR 00E7
ENCODING 231
SWIDTH 550 0
DWIDTH 11 0
BBX 9 15 1 -5
BITMAP
1E00
6180
6100
C000
C000
C000
C000
6080
7180
3F00
0800
0E00
0200
0600
1800
ENDCHAR
STARTCHAR 00E8
ENCODING 232
SWIDTH 550 0
DWIDTH 11 0
BBX 9 14 1 1
BITMAP
1800
0800
0000
0000
1E00
6300
4180
C180
FF80
C000
C000
4080
6180
1E00
ENDCHAR
STARTCHAR 00E9
ENCODING 233
SWIDTH 550 0
DWIDTH 11 0
BBX 9 14 1 1
BITMAP
0600
0C00
0000
0000
1E00
6300
4180
C180
FF80
C000
C000
4080
6180
1E00
ENDCHAR
STARTCHAR 00EA
ENCODING 234
SWIDTH 550 0
DWIDTH 11 0
BBX 9 14 1 1
BITMAP
1C00
1600
2000
0000
1E00
6300
4180
C180
FF80
C000
C000
4080
6180
1E00
ENDCHAR
STARTCHAR 00EB
ENCODING 235
SWIDTH 550 0
DWIDTH 11 0
BBX 9 14 1 0
BITMAP
3300
3300
0000
0000
1E00
6300
4180
C180
FF80
C000
C000
4080
6180
1E00
ENDCHAR
STARTCHAR 00EC
ENCODING 236
SWIDTH 250 0
DWIDTH 5 0
BBX 3 14 1 1
BITMAP
C0
60
00
00
60
60
60
60
60
60
60
60
60
60
ENDCHAR
STARTCHAR 00ED
ENCODING 237
SWIDTH 250 0
DWIDTH 5 0
BBX 3 14 2 1
BITMAP
60
C0
00
00
C0
C0
C0
C0
C0
C0
C0
C0
C0
C0
ENDCHAR
STARTCHAR 00EE
ENCODING 238
SWIDTH 250 0
DWIDTH 5 0
BBX 4 14 1 1
BITMAP
60
90
00
00
60
60
60
60
60
60
60
60
60
60
ENDCHAR
STARTCHAR 00EF
ENCODING 239
SWIDTH 250 0
DWIDTH 5 0
BBX 6 14 0 0
BITMAP
CC
CC
00
00
30
30
30
30
30
30
30
30
30
30
ENDCHAR
STARTCHAR 00F0
ENCODING 240
SWIDTH 600 0
DWIDTH 12 0
BBX 10 15 1 0
BITMAP
1100
0E00
3E00
6300
0180
1E80
71C0
60C0
C0C0
C0C0
C0C0
C0C0
6180
6180
1E00
ENDCHAR
STARTCHAR 00F1
ENCODING 241
SWIDTH 600 0
DWIDTH 12 0
BBX 8 14 2 0
BITMAP
30
4E
00
00
DE
E7
C3
C3
C3
C3
C3
C3
C3
C3
ENDCHAR
STARTCHAR 00F2
ENCODING 242
SWIDTH 600 0
DWIDTH 12 0
BBX 10 14 1 1
BITMAP
1800
0C00
0000
0000
1E00
6180
6080
C0C0
C0C0
C0C0
C0C0
E180
6180
3E00
ENDCHAR
STARTCHAR 00F3
ENCODING 243
SWIDTH 600 0
DWIDTH 12 0
BBX 10 14 1 1
BITMAP
0600
0400
0000
0000
1E00
6180
6080
C0C0
C0C0
C0C0
C0C0
E180
6180
3E00
ENDCHAR
STARTCHAR 00F4
ENCODING 244
SWIDTH 600 0
DWIDTH 12 0
BBX 10 14 1 1
BITMAP
0C00
1200
0000
0000
1E00
6180
6080
C0C0
C0C0
C0C0
C0C0
E180
6180
3E00
ENDCHAR
STARTCHAR 00F5
ENCODING 245
SWIDTH 600 0
DWIDTH 12 0
BBX 10 14 1 0
BITMAP
3800
2700
0000
0000
1E00
6180
6080
C0C0
C0C0
C0C0
C0C0
E180
6180
3E00
ENDCHAR
STARTCHAR 00F6
ENCODING 246
SWIDTH 600 0
DWIDTH 12 0
BBX 10 14 1 0
BITMAP
3300
3300
0000
0000
1E00
6180
6080
C0C0
C0C0
C0C0
C0C0
E180
6180
3E00
ENDCHAR
STARTCHAR 00F7
ENCODING 247
SWIDTH 700 0
DWIDTH 14 0
BBX 11 10 1 2
BITMAP
0700
0700
0700
0000
0000
FFE0
0000
0700
0700
0700
ENDCHAR
STARTCHAR 00F8
ENCODING 248
SWIDTH 600 0
DWIDTH 12 0
BBX 10 11 1 0
BITMAP
0080
1F80
7180
63C0
C2C0
C4C0
C8C0
D0C0
7180
6180
FE00
ENDCHAR
STARTCHAR 00F9
ENCODING 249
SWIDTH 600 0
DWIDTH 12 0
BBX 8 14 2 1
BITMAP
10
10
00
00
C3
C3
C3
C3
C3
C3
C3
C3
E7
7B
ENDCHAR
STARTCHAR 00FA
ENCODING 250
SWIDTH 600 0
DWIDTH 12 0
BBX 8 14 2 1
BITMAP
08
08
00
00
C3
C3
C3
C3
C3
C3
C3
C3
E7
7B
ENDCHAR
STARTCHAR 00FB
ENCODING 251
SWIDTH 600 0
DWIDTH 12 0
BBX 8 14 2 1
BITMAP
18
3C
00
00
C3
C3
C3
C3
C3
C3
C3
C3
E7
7B
ENDCHAR
STARTCHAR 00FC
ENCODING 252
SWIDTH 600 0
DWIDTH 12 0
BBX 8 14 2 0
BITMAP
24
24
00
00
C3
C3
C3
C3
C3
C3
C3
C3
E7
7B
ENDCHAR
STARTCHAR 00FD
ENCODING 253
SWIDTH 500 0
DWIDTH 10 0
BBX 10 18 0 -3
BITMAP
0600
0C00
0000
0000
C0C0
6180
6180
2100
3300
1200
1A00
1E00
0C00
0C00
0800
1800
7800
7000
ENDCHAR
STARTCHAR 00FE
ENCODING 254
SWIDTH 650 0
DWIDTH 13 0
BBX 10 19 2 -4
BITMAP
C000
C000
C000
C000
C000
DF00
F180
E180
C0C0
C0C0
C0C0
C0C0
E0C0
E180
DF00
C000
C000
C000
C000
ENDCHAR
STARTCHAR 00FF
ENCODING 255
SWIDTH 500 0
DWIDTH 10 0
BBX 10 18 0 -4
BITMAP
3300
3300
0000
0000
C0C0
6180
6180
2100
3300
1200
1A00
1E00
0C00
0C00
0800
1800
7800
7000
ENDCHAR
STARTCHAR 0100
ENCODING 256
SWIDTH 650 0
DWIDTH 13 0
BBX 12 17 0 0
BITMAP
0F80
0000
0000
0600
0700
0D00
0D80
0980
1880
18C0
10C0
3FE0
2060
6020
6030
4030
C010
ENDCHAR
STARTCHAR 0101
ENCODING 257
SWIDTH 550 0
DWIDTH 11 0
BBX 8 14 1 0
BITMAP
3E
00
00
00
3C
63
43
03
3F
E3
C3
C3
C7
79
ENDCHAR
STARTCHAR 0102
ENCODING 258
SWIDTH 650 0
DWIDTH 13 0
BBX 12 18 0 0
BITMAP
0880
0F00
0000
0200
0700
0700
0D00
0D80
0980
1880
18C0
3040
3FE0
2060
6020
6030
4030
C010
ENDCHAR
STARTCHAR 0103
ENCODING 259
SWIDTH 550 0
DWIDTH 11 0
BBX 8 14 1 0
BITMAP
22
3C
00
00
3C
63
43
03
3F
E3
C3
C3
C7
79
ENDCHAR
STARTCHAR 0104
ENCODING 260
SWIDTH 650 0
DWIDTH 13 0
BBX 13 20 0 -5
BITMAP
0200
0700
0700
0D00
0D80
0980
1880
18C0
3040
3FE0
2060
6020
6030
4030
C010
0030
0060
00C0
00C8
0070
ENDCHAR
STARTCHAR 0105
ENCODING 261
SWIDTH 550 0
DWIDTH 11 0
BBX 9 15 1 -5
BITMAP
3C00
6300
4300
0300
3F00
E300
C300
C300
C700
7900
0300
0600
0C00
0C80
0700
ENDCHAR
STARTCHAR 0106
ENCODING 262
SWIDTH 750 0
DWIDTH 15 0
BBX 12 18 1 0
BITMAP
0180
0100
0300
0000
0FC0
1FF0
7830
6000
E000
C000
C000
C000
C000
E000
6010
7870
3FE0
0FC0
ENDCHAR
STARTCHAR 0107
ENCODING 263
SWIDTH 550 0
DWIDTH 11 0
BBX 9 14 1 1
BITMAP
0600
0C00
0000
0000
1E00
6180
6100
C000
C000
C000
C000
E080
7180
3E00
ENDCHAR
STARTCHAR 0108
ENCODING 264
SWIDTH 750 0
DWIDTH 15 0
BBX 12 18 1 0
BITMAP
0300
0780
0480
0000
0FC0
1FF0
7830
6000
E000
C000
C000
C000
C000
E000
6010
7870
3FE0
0FC0
ENDCHAR
STARTCHAR 0109
ENCODING 265
SWIDTH 550 0
DWIDTH 11 0
BBX 9 14 1 1
BITMAP
0C00
1200
0000
0000
1E00
6180
6100
C000
C000
C000
C000
E080
7180
3E00
ENDCHAR
STARTCHAR 010C
ENCODING 268
SWIDTH 750 0
DWIDTH 15 0
BBX 12 18 1 0
BITMAP
0CC0
0680
0300
0000
0FC0
1FF0
7830
6000
E000
C000
C000
C000
C000
E000
6010
7870
3FE0
0FC0
ENDCHAR
STARTCHAR 010D
ENCODING 269
SWIDTH 550 0
DWIDTH 11 0
BBX 9 14 1 1
BITMAP
1200
0C00
0000
0000
1E00
6180
6100
C000
C000
C000
C000
E080
7180
3E00
ENDCHAR
STARTCHAR 010E
ENCODING 270
SWIDTH 750 0
DWIDTH 15 0
BBX 12 18 2 0
BITMAP
1100
0A00
0E00
0000
FF00
C1C0
C060
C060
C030
C030
C030
C030
C030
C070
C060
C1E0
FFC0
FF00
ENDCHAR
STARTCHAR 010F
ENCODING 271
SWIDTH 650 0
DWIDTH 13 0
BBX 13 15 1 0
BITMAP
00C8
00D8
00D0
00D0
00C0
3EC0
63C0
40C0
C0C0
C0C0
C0C0
C0C0
61C0
61C0
3EC0
ENDCHAR
STARTCHAR 0111
ENCODING 273
SWIDTH 600 0
DWIDTH 12 0
BBX 11 15 1 0
BITMAP
00C0
00C0
07E0
00C0
00C0
3EC0
63C0
40C0
C0C0
C0C0
C0C0
C0C0
61C0
61C0
3EC0
ENDCHAR
STARTCHAR 0112
ENCODING 274
SWIDTH 600 0
DWIDTH 12 0
BBX 9 17 2 0
BITMAP
3E00
0000
0000
FF80
FF80
C000
C000
C000
C000
FF00
C000
C000
C000
C000
C000
FF80
FF80
ENDCHAR
STARTCHAR 0113
ENCODING 275
SWIDTH 550 0
DWIDTH 11 0
BBX 9 14 1 0
BITMAP
3E00
0000
0000
0000
1E00
6300
4180
C180
FF80
C000
C000
4080
6180
1E00
ENDCHAR
STARTCHAR 0118
ENCODING 280
SWIDTH 600 0
DWIDTH 12 0
BBX 9 19 2 -5
BITMAP
FF80
FF80
C000
C000
C000
C000
FF00
C000
C000
C000
C000
C000
FF80
FF80
0C00
1800
3000
3200
3C00
ENDCHAR
STARTCHAR 0119
ENCODING 281
SWIDTH 550 0
DWIDTH 11 0
BBX 9 15 1 -5
BITMAP
1E00
6300
4180
C180
FF80
C000
C000
4080
6180
1F00
0C00
1800
3000
3200
1C00
ENDCHAR
STARTCHAR 011A
ENCODING 282
SWIDTH 600 0
DWIDTH 12 0
BBX 9 18 2 0
BITMAP
3300
1600
0C00
0000
FF80
FF80
C000
C000
C000
C000
FF00
C000
C000
C000
C000
C000
FF80
FF80
ENDCHAR
STARTCHAR 011B
ENCODING 283
SWIDTH 550 0
DWIDTH 11 0
BBX 9 14 1 1
BITMAP
1200
1C00
0000
0000
1E00
6300
4180
C180
FF80
C000
C000
4080
6180
1E00
ENDCHAR
STARTCHAR 011C
ENCODING 284
SWIDTH 750 0
DWIDTH 15 0
BBX 13 18 1 0
BITMAP
0300
0700
0480
0000
0FC0
1FF0
3830
6000
E000
C000
C000
C0F8
C018
E018
6018
7838
3FF0
0FC0
ENDCHAR
STARTCHAR 011D
ENCODING 285
SWIDTH 550 0
DWIDTH 11 0
BBX 9 18 1 -3
BITMAP
1C00
3600
0000
0080
3F80
6700
C300
C300
C300
6600
3C00
6000
7E00
3F80
C180
C180
C300
3E00
ENDCHAR
STARTCHAR 0124
ENCODING 292
SWIDTH 750 0
DWIDTH 15 0
BBX 11 18 2 0
BITMAP
0400
0A00
1100
0000
C060
C060
C060
C060
C060
C060
FFE0
C060
C060
C060
C060
C060
C060
C060
ENDCHAR
STARTCHAR 0125
ENCODING 293
SWIDTH 600 0
DWIDTH 12 0
BBX 10 18 0 1
BITMAP
3000
6800
8000
3000
3000
3000
3000
3000
3780
39C0
30C0
30C0
30C0
30C0
30C0
30C0
30C0
30C0
ENDCHAR
STARTCHAR 0127
ENCODING 295
SWIDTH 600 0
DWIDTH 12 0
BBX 9 15 1 0
BITMAP
6000
6000
F800
6000
6000
6F00
7380
6180
6180
6180
6180
6180
6180
6180
6180
ENDCHAR
STARTCHAR 012A
ENCODING 298
SWIDTH 300 0
DWIDTH 6 0
BBX 6 17 0 0
BITMAP
FC
00
00
30
30
30
30
30
30
30
30
30
30
30
30
30
30
ENDCHAR
STARTCHAR 012B
ENCODING 299
SWIDTH 250 0
DWIDTH 5 0
BBX 6 13 0 0
BITMAP
FC
00
00
30
30
30
30
30
30
30
30
30
30
ENDCHAR
STARTCHAR 0134
ENCODING 308
SWIDTH 400 0
DWIDTH 8 0
BBX 8 18 0 0
BITMAP
0C
1E
33
00
0C
0C
0C
0C
0C
0C
0C
0C
0C
0C
0C
0C
FC
F8
ENDCHAR
STARTCHAR 0135
ENCODING 309
SWIDTH 250 0
DWIDTH 5 0
BBX 5 18 0 -4
BITMAP
30
48
00
00
30
30
30
30
30
30
30
30
30
30
30
30
E0
C0
ENDCHAR
STARTCHAR 0139
ENCODING 313
SWIDTH 550 0
DWIDTH 11 0
BBX 9 18 2 0
BITMAP
1800
3000
2000
0000
C000
C000
C000
C000
C000
C000
C000
C000
C000
C000
C000
C000
FF80
FF80
ENDCHAR
STARTCHAR 013A
ENCODING 314
SWIDTH 250 0
DWIDTH 5 0
BBX 3 18 2 1
BITMAP
60
40
80
C0
C0
C0
C0
C0
C0
C0
C0
C0
C0
C0
C0
C0
C0
C0
ENDCHAR
STARTCHAR 013D
ENCODING 317
SWIDTH 550 0
DWIDTH 11 0
BBX 9 15 2 0
BITMAP
C600
C600
C400
C400
C000
C000
C000
C000
C000
C000
C000
C000
C000
FF80
FF80
ENDCHAR
STARTCHAR 013E
ENCODING 318
SWIDTH 300 0
DWIDTH 6 0
BBX 5 15 2 0
BITMAP
D8
D8
D0
D0
C0
C0
C0
C0
C0
C0
C0
C0
C0
C0
C0
ENDCHAR
STARTCHAR 0141
ENCODING 321
SWIDTH 550 0
DWIDTH 11 0
BBX 11 15 0 0
BITMAP
3000
3000
3000
3000
3200
3C00
3800
7000
B000
3000
3000
3000
3000
3FE0
3FE0
ENDCHAR
STARTCHAR 0142
ENCODING 322
SWIDTH 250 0
DWIDTH 5 0
BBX 6 15 0 0
BITMAP
30
30
30
30
34
38
70
F0
30
30
30
30
30
30
30
ENDCHAR
STARTCHAR 0143
ENCODING 323
SWIDTH 750 0
DWIDTH 15 0
BBX 11 18 2 -1
BITMAP
0300
0200
0400
0000
E060
E060
F060
D860
D860
CC60
C460
C660
C360
C360
C1E0
C1E0
C0E0
C060
ENDCHAR
STARTCHAR 0144
ENCODING 324
SWIDTH 600 0
DWIDTH 12 0
BBX 8 14 2 1
BITMAP
0C
08
00
00
DE
E7
C3
C3
C3
C3
C3
C3
C3
C3
ENDCHAR
STARTCHAR 0147
ENCODING 327
SWIDTH 750 0
DWIDTH 15 0
BBX 11 18 2 -1
BITMAP
1100
0A00
0600
0000
E060
E060
F060
D860
D860
CC60
C460
C660
C360
C360
C1E0
C1E0
C0E0
C060
ENDCHAR
STARTCHAR 0148
ENCODING 328
SWIDTH 600 0
DWIDTH 12 0
BBX 8 14 2 1
BITMAP
34
18
00
00
DE
E7
C3
C3
C3
C3
C3
C3
C3
C3
ENDCHAR
STARTCHAR 014B
ENCODING 331
SWIDTH 600 0
DWIDTH 12 0
BBX 8 14 2 -5
BITMAP
DE
E7
C3
C3
C3
C3
C3
C3
C3
C3
03
03
06
0C
ENDCHAR
STARTCHAR 014C
ENCODING 332
SWIDTH 800 0
DWIDTH 16 0
BBX 14 17 1 0
BITMAP
0FC0
0000
0000
0FC0
3870
7038
6018
C00C
C00C
C00C
C00C
C00C
C00C
6018
7038
3870
0FC0
ENDCHAR
STARTCHAR 014D
ENCODING 333
SWIDTH 600 0
DWIDTH 12 0
BBX 10 14 1 0
BITMAP
3F00
0000
0000
0000
1E00
6180
6180
C0C0
C0C0
C0C0
C0C0
E180
6180
3E00
ENDCHAR
STARTCHAR 0150
ENCODING 336
SWIDTH 800 0
DWIDTH 16 0
BBX 14 18 1 0
BITMAP
0360
0240
0680
0000
0FC0
3870
7038
6018
C00C
C00C
C00C
C00C
C00C
C00C
6018
7038
3870
0FC0
ENDCHAR
STARTCHAR 0151
ENCODING 337
SWIDTH 600 0
DWIDTH 12 0
BBX 10 14 1 1
BITMAP
0900
1A00
0000
0000
1E00
6180
6180
C0C0
C0C0
C0C0
C0C0
E180
6180
3E00
ENDCHAR
STARTCHAR 0152
ENCODING 338
SWIDTH 1000 0
DWIDTH 20 0
BBX 18 14 1 0
BITMAP
0FFFC0
38FFC0
606000
606000
C06000
C06000
C07F80
C06000
C06000
E06000
606000
786000
3FFFC0
0FFFC0
ENDCHAR
STARTCHAR 0153
ENCODING 339
SWIDTH 950 0
DWIDTH 19 0
BBX 17 10 1 0
BITMAP
1E1E00
61E300
61C180
C0C180
C0FF80
C0C000
C0C000
61C080
61E180
1E1E00
ENDCHAR
STARTCHAR 0154
ENCODING 340
SWIDTH 650 0
DWIDTH 13 0
BBX 11 18 2 0
BITMAP
0600
0C00
0800
0000
FF00
C180
C0C0
C0C0
C0C0
C180
FF00
CE00
C300
C180
C180
C0C0
C0C0
C060
ENDCHAR
STARTCHAR 0155
ENCODING 341
SWIDTH 350 0
DWIDTH 7 0
BBX 6 14 2 1
BITMAP
18
30
00
00
CC
D8
E0
C0
C0
C0
C0
C0
C0
C0
ENDCHAR
STARTCHAR 0158
ENCODING 344
SWIDTH 650 0
DWIDTH 13 0
BBX 11 18 2 0
BITMAP
2200
1600
0C00
0000
FF00
C180
C0C0
C0C0
C0C0
C180
FF00
CE00
C300
C180
C180
C0C0
C0C0
C060
ENDCHAR
STARTCHAR 0159
ENCODING 345
SWIDTH 350 0
DWIDTH 7 0
BBX 6 14 2 1
BITMAP
D8
70
00
00
CC
D8
E0
C0
C0
C0
C0
C0
C0
C0
ENDCHAR
STARTCHAR 015A
ENCODING 346
SWIDTH 600 0
DWIDTH 12 0
BBX 10 18 1 0
BITMAP
0600
0600
0C00
0000
3E00
6180
C080
C000
E000
7000
3E00
0F80
01C0
00C0
00C0
C0C0
7F80
3F00
ENDCHAR
STARTCHAR 015B
ENCODING 347
SWIDTH 450 0
DWIDTH 9 0
BBX 7 14 1 1
BITMAP
0C
18
00
00
7C
C6
C0
E0
78
3C
0E
06
C6
7C
ENDCHAR
STARTCHAR 015C
ENCODING 348
SWIDTH 600 0
DWIDTH 12 0
BBX 10 18 1 0
BITMAP
0C00
1E00
1200
0000
3E00
6180
C080
C000
E000
7000
3E00
0F80
01C0
00C0
00C0
C0C0
7F80
3F00
ENDCHAR
STARTCHAR 015D
ENCODING 349
SWIDTH 450 0
DWIDTH 9 0
BBX 7 14 1 1
BITMAP
38
2C
00
00
7C
C6
C0
E0
78
3C
0E
06
C6
7C
ENDCHAR
STARTCHAR 015E
ENCODING 350
SWIDTH 600 0
DWIDTH 12 0
BBX 10 19 1 -6
BITMAP
3E00
6180
C080
C000
E000
7000
3E00
0F80
01C0
00C0
00C0
C0C0
7F80
3F00
0000
0C00
0800
0800
1000
ENDCHAR
STARTCHAR 015F
ENCODING 351
SWIDTH 450 0
DWIDTH 9 0
BBX 7 15 1 -6
BITMAP
7C
C6
C0
E0
78
3C
0E
06
C6
7C
00
30
20
20
20
ENDCHAR
STARTCHAR 0160
ENCODING 352
SWIDTH 600 0
DWIDTH 12 0
BBX 10 18 1 0
BITMAP
2200
1600
0C00
0000
3E00
6180
C080
C000
E000
7000
3E00
0F80
01C0
00C0
00C0
C0C0
7F80
3F00
ENDCHAR
STARTCHAR 0161
ENCODING 353
SWIDTH 450 0
DWIDTH 9 0
BBX 7 14 1 1
BITMAP
6C
38
00
00
7C
C6
C0
E0
78
3C
0E
06
C6
7C
ENDCHAR
STARTCHAR 0162
ENCODING 354
SWIDTH 600 0
DWIDTH 12 0
BBX 12 20 0 -6
BITMAP
FFF0
FFF0
0600
0600
0600
0600
0600
0600
0600
0600
0600
0600
0600
0600
0600
0000
0600
0400
0C00
0800
ENDCHAR
STARTCHAR 0163
ENCODING 355
SWIDTH 350 0
DWIDTH 7 0
BBX 6 18 1 -5
BITMAP
20
60
60
FC
60
60
60
60
60
60
60
60
3C
00
30
30
20
20
ENDCHAR
STARTCHAR 0164
ENCODING 356
SWIDTH 600 0
DWIDTH 12 0
BBX 12 19 0 -1
BITMAP
1880
0D00
0600
0000
FFF0
FFF0
0600
0600
0600
0600
0600
0600
0600
0600
0600
0600
0600
0600
0600
ENDCHAR
STARTCHAR 0165
ENCODING 357
SWIDTH 350 0
DWIDTH 7 0
BBX 7 15 1 1
BITMAP
06
06
24
64
60
FC
60
60
60
60
60
60
60
60
3C
ENDCHAR
STARTCHAR 016A
ENCODING 362
SWIDTH 750 0
DWIDTH 15 0
BBX 11 17 2 0
BITMAP
1F00
0000
0000
C060
C060
C060
C060
C060
C060
C060
C060
C060
C060
C060
60C0
7FC0
1F00
ENDCHAR
STARTCHAR 016B
ENCODING 363
SWIDTH 600 0
DWIDTH 12 0
BBX 8 14 2 0
BITMAP
3C
00
00
00
C3
C3
C3
C3
C3
C3
C3
C7
E7
7B
ENDCHAR
STARTCHAR 016C
ENCODING 364
SWIDTH 750 0
DWIDTH 15 0
BBX 11 18 2 0
BITMAP
1100
1100
0E00
0000
C060
C060
C060
C060
C060
C060
C060
C060
C060
C060
C060
60C0
7FC0
1F00
ENDCHAR
STARTCHAR 016D
ENCODING 365
SWIDTH 600 0
DWIDTH 12 0
BBX 8 14 2 0
BITMAP
24
3C
00
00
C3
C3
C3
C3
C3
C3
C3
C3
E7
7B
ENDCHAR
STARTCHAR 016E
ENCODING 366
SWIDTH 750 0
DWIDTH 15 0
BBX 11 19 2 0
BITMAP
0400
0A00
0A00
0600
0000
C060
C060
C060
C060
C060
C060
C060
C060
C060
C060
C060
60C0
7FC0
1F00
ENDCHAR
STARTCHAR 016F
ENCODING 367
SWIDTH 600 0
DWIDTH 12 0
BBX 8 14 2 0
BITMAP
18
18
18
00
C3
C3
C3
C3
C3
C3
C3
C3
E7
7B
ENDCHAR
STARTCHAR 0170
ENCODING 368
SWIDTH 750 0
DWIDTH 15 0
BBX 11 18 2 0
BITMAP
0580
0D00
0A00
0000
C060
C060
C060
C060
C060
C060
C060
C060
C060
C060
C060
60C0
7FC0
1F00
ENDCHAR
STARTCHAR 0171
ENCODING 369
SWIDTH 600 0
DWIDTH 12 0
BBX 8 14 2 1
BITMAP
16
14
00
00
C3
C3
C3
C3
C3
C3
C3
C3
E7
7B
ENDCHAR
STARTCHAR 0179
ENCODING 377
SWIDTH 650 0
DWIDTH 13 0
BBX 11 18 1 0
BITMAP
0300
0600
0400
0000
FFE0
FFE0
00C0
0180
0300
0700
0600
0C00
1800
3000
6000
C000
FFE0
FFE0
ENDCHAR
STARTCHAR 017A
ENCODING 378
SWIDTH 450 0
DWIDTH 9 0
BBX 8 14 1 1
BITMAP
0C
18
00
00
FE
06
0C
0C
18
30
30
60
C0
FF
ENDCHAR
STARTCHAR 017B
ENCODING 379
SWIDTH 650 0
DWIDTH 13 0
BBX 12 18 0 0
BITMAP
0600
0600
0000
0000
7FE0
7FE0
0060
00C0
0180
0300
0600
0C00
0C00
1800
3000
6000
FFF0
FFF0
ENDCHAR
STARTCHAR 017C
ENCODING 380
SWIDTH 450 0
DWIDTH 9 0
BBX 8 14 1 0
BITMAP
18
18
00
00
FF
06
04
0C
18
30
30
60
C0
FF
ENDCHAR
STARTCHAR 017D
ENCODING 381
SWIDTH 650 0
DWIDTH 13 0
BBX 11 18 1 0
BITMAP
1100
1A00
0E00
0000
FFE0
FFE0
00C0
0180
0300
0700
0600
0C00
1800
3000
6000
C000
FFE0
FFE0
ENDCHAR
STARTCHAR 017E
ENCODING 382
SWIDTH 450 0
DWIDTH 9 0
BBX 8 14 1 1
BITMAP
24
38
00
00
FF
06
0C
0C
18
30
30
60
C0
FF
ENDCHAR
STARTCHAR 0193
ENCODING 403
SWIDTH 750 0
DWIDTH 15 0
BBX 15 16 1 0
BITMAP
001E
0012
0FD0
3FF0
7830
6000
E000
C000
C000
C0F8
C018
E018
6018
7838
3FF0
0FC0
ENDCHAR
STARTCHAR 01C2
ENCODING 450
SWIDTH 500 0
DWIDTH 10 0
BBX 9 13 1 1
BITMAP
0800
0800
0800
0800
FF80
0800
0800
FF80
0800
0800
0800
0800
0800
ENDCHAR
STARTCHAR 01CD
ENCODING 461
SWIDTH 650 0
DWIDTH 13 0
BBX 12 18 0 1
BITMAP
0D80
0700
0000
0200
0700
0700
0D00
0D80
0980
1880
18C0
30C0
3FE0
2060
6020
6030
4030
C010
ENDCHAR
STARTCHAR 01CE
ENCODING 462
SWIDTH 550 0
DWIDTH 11 0
BBX 8 14 1 1
BITMAP
36
1C
00
00
3C
63
43
03
3F
E3
C3
C3
C5
79
ENDCHAR
STARTCHAR 01D0
ENCODING 464
SWIDTH 250 0
DWIDTH 5 0
BBX 4 14 1 1
BITMAP
90
60
00
00
60
60
60
60
60
60
60
60
60
60
ENDCHAR
STARTCHAR 01D1
ENCODING 465
SWIDTH 800 0
DWIDTH 16 0
BBX 14 18 1 0
BITMAP
08C0
0580
0300
0000
0FC0
3870
6018
6018
C00C
C00C
C00C
C00C
C00C
E01C
6018
7878
3FF0
0FC0
ENDCHAR
STARTCHAR 01D2
ENCODING 466
SWIDTH 600 0
DWIDTH 12 0
BBX 10 14 1 1
BITMAP
1200
0C00
0000
0000
1E00
6180
6180
C0C0
C0C0
C0C0
C0C0
6180
6180
1E00
ENDCHAR
STARTCHAR 01D4
ENCODING 468
SWIDTH 600 0
DWIDTH 12 0
BBX 8 14 2 1
BITMAP
24
18
00
00
C3
C3
C3
C3
C3
C3
C3
C3
E7
7B
ENDCHAR
STARTCHAR 01D6
ENCODING 470
SWIDTH 600 0
DWIDTH 12 0
BBX 8 16 2 0
BITMAP
3C
00
24
24
00
00
C3
C3
C3
C3
C3
C3
C3
C3
E7
7B
ENDCHAR
STARTCHAR 01D8
ENCODING 472
SWIDTH 600 0
DWIDTH 12 0
BBX 8 17 2 1
BITMAP
08
08
00
24
24
00
00
C3
C3
C3
C3
C3
C3
C3
C3
E7
7B
ENDCHAR
STARTCHAR 01DA
ENCODING 474
SWIDTH 600 0
DWIDTH 12 0
BBX 8 17 2 1
BITMAP
24
18
00
24
24
00
00
C3
C3
C3
C3
C3
C3
C3
C3
E7
7B
ENDCHAR
STARTCHAR 01DC
ENCODING 476
SWIDTH 600 0
DWIDTH 12 0
BBX 8 17 2 1
BITMAP
10
10
00
24
24
00
00
C3
C3
C3
C3
C3
C3
C3
C3
E7
7B
ENDCHAR
STARTCHAR 01F8
ENCODING 504
SWIDTH 750 0
DWIDTH 15 0
BBX 11 18 2 -1
BITMAP
0800
0C00
0400
0000
E060
E060
F060
D860
D860
CC60
C460
C660
C360
C360
C1E0
C1E0
C0E0
C060
ENDCHAR
STARTCHAR 01F9
ENCODING 505
SWIDTH 600 0
DWIDTH 12 0
BBX 8 14 2 1
BITMAP
30
10
00
00
DE
E7
C3
C3
C3
C3
C3
C3
C3
C3
ENDCHAR
STARTCHAR 01FD
ENCODING 509
SWIDTH 900 0
DWIDTH 18 0
BBX 16 14 1 1
BITMAP
00C0
0080
0000
0000
3E78
63C6
4182
0103
3FFF
6100
C100
C382
E6C6
7C7C
ENDCHAR
STARTCHAR 0250
ENCODING 592
SWIDTH 550 0
DWIDTH 11 0
BBX 8 10 2 0
BITMAP
9E
E3
C3
C3
C7
FC
C0
C2
C6
3C
ENDCHAR
STARTCHAR 0251
ENCODING 593
SWIDTH 600 0
DWIDTH 12 0
BBX 10 10 1 0
BITMAP
3EC0
61C0
40C0
C0C0
C0C0
C0C0
C0C0
C1C0
63C0
3E40
ENDCHAR
STARTCHAR 0252
ENCODING 594
SWIDTH 600 0
DWIDTH 12 0
BBX 10 10 2 0
BITMAP
9F00
FF80
E1C0
C0C0
C0C0
C0C0
C0C0
C080
E180
DF00
ENDCHAR
STARTCHAR 0253
ENCODING 595
SWIDTH 600 0
DWIDTH 12 0
BBX 10 14 2 -1
BITMAP
3E00
6180
C100
C000
DF00
F180
E180
C0C0
C0C0
C0C0
C0C0
C180
E180
DF00
ENDCHAR
STARTCHAR 0254
ENCODING 596
SWIDTH 550 0
DWIDTH 11 0
BBX 9 10 1 0
BITMAP
3E00
C300
8300
0180
0180
0180
0180
8300
C700
3C00
ENDCHAR
STARTCHAR 0255
ENCODING 597
SWIDTH 550 0
DWIDTH 11 0
BBX 10 12 1 -2
BITMAP
1E00
6180
6100
C000
C000
C000
C3C0
E440
6840
3F80
1000
1000
ENDCHAR
STARTCHAR 0256
ENCODING 598
SWIDTH 600 0
DWIDTH 12 0
BBX 13 19 1 -4
BITMAP
00C0
00C0
00C0
00C0
00C0
3EC0
61C0
40C0
C0C0
C0C0
C0C0
C0C0
61C0
61C0
3EC0
00C0
00C0
00C8
0070
ENDCHAR
STARTCHAR 0257
ENCODING 599
SWIDTH 600 0
DWIDTH 12 0
BBX 12 15 1 0
BITMAP
0070
00C0
00C0
00C0
00C0
3EC0
61C0
40C0
C0C0
C0C0
C0C0
C0C0
61C0
61C0
3EC0
ENDCHAR
STARTCHAR 0258
ENCODING 600
SWIDTH 550 0
DWIDTH 11 0
BBX 9 10 1 0
BITMAP
3E00
6300
C100
C180
FF80
0080
0180
0100
4300
3C00
ENDCHAR
STARTCHAR 0259
ENCODING 601
SWIDTH 550 0
DWIDTH 11 0
BBX 9 10 1 0
BITMAP
3E00
6300
4180
0180
0080
FF80
C180
C100
6300
3E00
ENDCHAR
STARTCHAR 025A
ENCODING 602
SWIDTH 800 0
DWIDTH 16 0
BBX 15 10 1 0
BITMAP
1E00
6310
41F0
C1D8
83CE
0CCE
38C0
60C0
3180
1F00
ENDCHAR
STARTCHAR 025C
ENCODING 604
SWIDTH 500 0
DWIDTH 10 0
BBX 8 10 1 0
BITMAP
FE
83
03
07
7C
06
03
03
FF
FE
ENDCHAR
STARTCHAR 025E
ENCODING 606
SWIDTH 600 0
DWIDTH 12 0
BBX 10 10 1 0
BITMAP
1F00
6180
4180
C380
CF00
C180
C0C0
60C0
7FC0
1F00
ENDCHAR
STARTCHAR 025F
ENCODING 607
SWIDTH 250 0
DWIDTH 5 0
BBX 6 14 0 -5
BITMAP
30
30
30
30
30
30
30
30
30
FC
30
30
E0
C0
ENDCHAR
STARTCHAR 0260
ENCODING 608
SWIDTH 600 0
DWIDTH 12 0
BBX 12 19 1 -4
BITMAP
0070
00C0
00C0
00C0
00C0
3EC0
61C0
60C0
C0C0
C0C0
C0C0
C0C0
E1C0
61C0
3EC0
00C0
40C0
6180
3F00
ENDCHAR
STARTCHAR 0261
ENCODING 609
SWIDTH 600 0
DWIDTH 12 0
BBX 10 14 1 -3
BITMAP
3EC0
61C0
60C0
C0C0
C0C0
C0C0
C0C0
E1C0
61C0
3EC0
00C0
40C0
6180
3F00
ENDCHAR
STARTCHAR 0264
ENCODING 612
SWIDTH 600 0
DWIDTH 12 0
BBX 11 10 0 0
BITMAP
E060
79E0
1F80
0600
0F00
1980
1980
1980
1980
0F00
ENDCHAR
STARTCHAR 0265
ENCODING 613
SWIDTH 600 0
DWIDTH 12 0
BBX 8 14 2 -4
BITMAP
C3
C3
C3
C3
C3
C3
C3
C3
E7
7B
03
03
03
03
ENDCHAR
STARTCHAR 0266
ENCODING 614
SWIDTH 600 0
DWIDTH 12 0
BBX 8 14 2 0
BITMAP
3E
63
C0
C0
DE
E7
C3
C3
C3
C3
C3
C3
C3
C3
ENDCHAR
STARTCHAR 0267
ENCODING 615
SWIDTH 600 0
DWIDTH 12 0
BBX 8 18 2 -5
BITMAP
3E
63
C0
C0
DE
E7
C3
C3
C3
C3
C3
C3
C3
C3
03
03
06
0C
ENDCHAR
STARTCHAR 0268
ENCODING 616
SWIDTH 300 0
DWIDTH 6 0
BBX 6 14 0 -1
BITMAP
30
30
00
00
30
30
30
30
FC
30
30
30
30
30
ENDCHAR
STARTCHAR 026C
ENCODING 620
SWIDTH 350 0
DWIDTH 7 0
BBX 7 15 -1 0
BITMAP
0C
0C
0C
0C
7C
9C
8C
7E
0C
0C
0C
0C
0C
0C
0C
ENDCHAR
STARTCHAR 026D
ENCODING 621
SWIDTH 300 0
DWIDTH 6 0
BBX 4 19 2 -4
BITMAP
C0
C0
C0
C0
C0
C0
C0
C0
C0
C0
C0
C0
C0
C0
C0
C0
C0
D0
70
ENDCHAR
STARTCHAR 026E
ENCODING 622
SWIDTH 650 0
DWIDTH 13 0
BBX 10 19 2 -4
BITMAP
C000
C000
C000
C000
C000
FFC0
C180
C300
C600
CC00
DF80
D180
C0C0
C0C0
C0C0
00C0
20C0
3180
0F00
ENDCHAR
STARTCHAR 026F
ENCODING 623
SWIDTH 850 0
DWIDTH 17 0
BBX 14 10 2 0
BITMAP
C30C
C30C
C30C
C30C
C30C
C30C
C30C
C30C
E59C
79EC
ENDCHAR
STARTCHAR 0270
ENCODING 624
SWIDTH 850 0
DWIDTH 17 0
BBX 14 14 2 -4
BITMAP
C30C
C30C
C30C
C30C
C30C
C30C
C30C
C30C
E59C
79EC
000C
000C
000C
000C
ENDCHAR
STARTCHAR 0271
ENCODING 625
SWIDTH 850 0
DWIDTH 17 0
BBX 14 14 2 -5
BITMAP
DE78
E69C
C30C
C30C
C30C
C30C
C30C
C30C
C30C
C30C
000C
000C
0038
0030
ENDCHAR
STARTCHAR 0272
ENCODING 626
SWIDTH 600 0
DWIDTH 12 0
BBX 11 14 -1 -5
BITMAP
1BC0
1CE0
1860
1860
1860
1860
1860
1860
1860
1860
1800
1800
7000
E000
ENDCHAR
STARTCHAR 0273
ENCODING 627
SWIDTH 600 0
DWIDTH 12 0
BBX 11 14 2 -4
BITMAP
DE00
E700
C300
C300
C300
C300
C300
C300
C300
C300
0300
0300
0320
01C0
ENDCHAR
STARTCHAR 0275
ENCODING 629
SWIDTH 600 0
DWIDTH 12 0
BBX 10 10 1 0
BITMAP
3E00
6180
C080
C0C0
FFC0
C0C0
C0C0
6180
6180
1E00
ENDCHAR
STARTCHAR 0279
ENCODING 633
SWIDTH 350 0
DWIDTH 7 0
BBX 6 10 -1 -1
BITMAP
0C
0C
0C
0C
0C
0C
1C
1C
6C
CC
ENDCHAR
STARTCHAR 027A
ENCODING 634
SWIDTH 350 0
DWIDTH 7 0
BBX 6 14 -1 -1
BITMAP
0C
0C
0C
0C
0C
0C
0C
0C
0C
0C
1C
1C
6C
CC
ENDCHAR
STARTCHAR 027B
ENCODING 635
SWIDTH 400 0
DWIDTH 8 0
BBX 8 14 0 -4
BITMAP
0C
0C
0C
0C
0C
0C
1C
1C
6C
CC
0C
0C
0D
07
ENDCHAR
STARTCHAR 027D
ENCODING 637
SWIDTH 350 0
DWIDTH 7 0
BBX 6 14 2 -3
BITMAP
CC
D8
E0
C0
C0
C0
C0
C0
C0
C0
C0
C0
C8
70
ENDCHAR
STARTCHAR 027E
ENCODING 638
SWIDTH 400 0
DWIDTH 8 0
BBX 6 10 2 0
BITMAP
3C
E0
C0
C0
C0
C0
C0
C0
C0
C0
ENDCHAR
STARTCHAR 0281
ENCODING 641
SWIDTH 550 0
DWIDTH 11 0
BBX 9 10 2 0
BITMAP
C180
C300
C200
C600
FC00
CE00
C300
C300
C700
FE00
ENDCHAR
STARTCHAR 0282
ENCODING 642
SWIDTH 450 0
DWIDTH 9 0
BBX 7 14 1 -4
BITMAP
7C
C6
C0
E0
78
3C
0E
06
C6
BC
80
80
D0
70
ENDCHAR
STARTCHAR 0283
ENCODING 643
SWIDTH 300 0
DWIDTH 6 0
BBX 6 20 0 -4
BITMAP
1C
38
30
30
30
30
30
30
30
30
30
30
30
30
30
30
30
30
E0
C0
ENDCHAR
STARTCHAR 0284
ENCODING 644
SWIDTH 300 0
DWIDTH 6 0
BBX 8 19 0 -5
BITMAP
0F
18
30
30
30
30
30
30
30
30
30
30
30
30
FC
30
30
E0
C0
ENDCHAR
STARTCHAR 0288
ENCODING 648
SWIDTH 350 0
DWIDTH 7 0
BBX 6 17 1 -3
BITMAP
20
60
60
FC
60
60
60
60
60
60
60
60
60
60
60
64
38
ENDCHAR
STARTCHAR 0289
ENCODING 649
SWIDTH 600 0
DWIDTH 12 0
BBX 10 11 1 0
BITMAP
6180
6180
6180
6180
FFC0
6180
6180
6180
6380
3380
3D80
ENDCHAR
STARTCHAR 028A
ENCODING 650
SWIDTH 600 0
DWIDTH 12 0
BBX 10 10 1 0
BITMAP
F3C0
3300
6180
C0C0
C0C0
C0C0
C0C0
E1C0
6180
1E00
ENDCHAR
STARTCHAR 028B
ENCODING 651
SWIDTH 600 0
DWIDTH 12 0
BBX 9 10 2 1
BITMAP
C600
C300
C180
C180
C180
C180
C180
C100
E300
7C00
ENDCHAR
STARTCHAR 028C
ENCODING 652
SWIDTH 500 0
DWIDTH 10 0
BBX 9 10 0 1
BITMAP
0C00
0C00
1E00
1600
3200
3300
2300
6180
4180
C080
ENDCHAR
STARTCHAR 028D
ENCODING 653
SWIDTH 750 0
DWIDTH 15 0
BBX 15 10 0 1
BITMAP
1830
1830
1C70
3458
3458
26C8
628C
628C
4384
C106
ENDCHAR
STARTCHAR 028E
ENCODING 654
SWIDTH 500 0
DWIDTH 10 0
BBX 10 14 0 0
BITMAP
0300
0780
0600
0C00
0C00
0C00
1C00
1600
3200
3300
2300
6180
6180
C0C0
ENDCHAR
STARTCHAR 0290
ENCODING 656
SWIDTH 450 0
DWIDTH 9 0
BBX 10 14 0 -4
BITMAP
7F00
0300
0600
0C00
0C00
1800
3000
6000
6000
FF00
0100
0100
0140
01C0
ENDCHAR
STARTCHAR 0291
ENCODING 657
SWIDTH 500 0
DWIDTH 10 0
BBX 9 12 1 -2
BITMAP
FE00
0600
0C00
0800
1800
3000
6700
4C80
D880
FF00
3000
2000
ENDCHAR
STARTCHAR 0292
ENCODING 658
SWIDTH 500 0
DWIDTH 10 0
BBX 8 14 1 -4
BITMAP
FF
06
0C
18
30
7C
46
03
03
03
03
83
C6
7C
ENDCHAR
STARTCHAR 0294
ENCODING 660
SWIDTH 500 0
DWIDTH 10 0
BBX 9 14 0 -1
BITMAP
3E00
6300
C180
0180
0180
0380
0F00
0C00
0C00
0C00
0C00
0C00
0C00
0C00
ENDCHAR
STARTCHAR 0295
ENCODING 661
SWIDTH 500 0
DWIDTH 10 0
BBX 9 14 1 -1
BITMAP
3E00
6300
C180
C000
C000
E000
7800
1800
1800
1800
1800
1800
1800
1800
ENDCHAR
STARTCHAR 0298
ENCODING 664
SWIDTH 650 0
DWIDTH 13 0
BBX 11 10 1 0
BITMAP
1F00
2080
4040
8020
8E20
8E20
8E20
4040
2080
1F00
ENDCHAR
STARTCHAR 029D
ENCODING 669
SWIDTH 350 0
DWIDTH 7 0
BBX 8 18 -1 -4
BITMAP
0C
0C
00
00
0C
0C
0C
0C
0C
0C
0C
0C
0C
0C
7C
8F
8C
78
ENDCHAR
STARTCHAR 02A1
ENCODING 673
SWIDTH 500 0
DWIDTH 10 0
BBX 9 14 0 -1
BITMAP
3E00
6300
C180
0180
0180
0380
0F00
0C00
3F00
0C00
0C00
0C00
0C00
0C00
ENDCHAR
STARTCHAR 02A2
ENCODING 674
SWIDTH 500 0
DWIDTH 10 0
BBX 9 14 1 -1
BITMAP
3E00
6300
C180
C000
C000
E000
7800
1800
7E00
1800
1800
1800
1800
1800
ENDCHAR
STARTCHAR 02BB
ENCODING 699
SWIDTH 1000 0
DWIDTH 20 0
BBX 3 5 15 12
BITMAP
60
40
40
E0
E0
ENDCHAR
STARTCHAR 02BC
ENCODING 700
SWIDTH 1000 0
DWIDTH 20 0
BBX 3 5 2 11
BITMAP
E0
E0
40
40
C0
ENDCHAR
STARTCHAR 02C6
ENCODING 710
SWIDTH 500 0
DWIDTH 10 0
BBX 4 2 3 12
BITMAP
60
90
ENDCHAR
STARTCHAR 02C7
ENCODING 711
SWIDTH 500 0
DWIDTH 10 0
BBX 4 2 3 12
BITMAP
90
60
ENDCHAR
STARTCHAR 02C8
ENCODING 712
SWIDTH 200 0
DWIDTH 4 0
BBX 1 8 1 7
BITMAP
80
80
80
80
80
80
80
80
ENDCHAR
STARTCHAR 02CC
ENCODING 716
SWIDTH 200 0
DWIDTH 4 0
BBX 1 7 1 -3
BITMAP
80
80
80
80
80
80
80
ENDCHAR
STARTCHAR 02D0
ENCODING 720
SWIDTH 300 0
DWIDTH 6 0
BBX 2 10 2 0
BITMAP
C0
C0
00
00
00
00
00
00
C0
C0
ENDCHAR
STARTCHAR 02D1
ENCODING 721
SWIDTH 300 0
DWIDTH 6 0
BBX 2 2 2 7
BITMAP
C0
C0
ENDCHAR
STARTCHAR 02D8
ENCODING 728
SWIDTH 500 0
DWIDTH 10 0
BBX 6 2 2 13
BITMAP
CC
78
ENDCHAR
STARTCHAR 02D9
ENCODING 729
SWIDTH 500 0
DWIDTH 10 0
BBX 2 2 4 12
BITMAP
C0
C0
ENDCHAR
STARTCHAR 02DB
ENCODING 731
SWIDTH 500 0
DWIDTH 10 0
BBX 4 5 3 -4
BITMAP
70
60
C0
D0
F0
ENDCHAR
STARTCHAR 02DC
ENCODING 732
SWIDTH 500 0
DWIDTH 10 0
BBX 6 2 2 11
BITMAP
E0
9C
ENDCHAR
STARTCHAR 02DD
ENCODING 733
SWIDTH 500 0
DWIDTH 10 0
BBX 5 2 3 12
BITMAP
58
D0
ENDCHAR
STARTCHAR 02DE
ENCODING 734
SWIDTH 500 0
DWIDTH 10 0
BBX 5 5 3 1
BITMAP
E0
40
40
48
70
ENDCHAR
STARTCHAR 02E5
ENCODING 741
SWIDTH 500 0
DWIDTH 10 0
BBX 5 14 1 0
BITMAP
F8
08
08
08
08
08
08
08
08
08
08
08
08
08
ENDCHAR
STARTCHAR 02E6
ENCODING 742
SWIDTH 500 0
DWIDTH 10 0
BBX 5 14 1 0
BITMAP
08
08
08
F8
08
08
08
08
08
08
08
08
08
08
ENDCHAR
STARTCHAR 02E7
ENCODING 743
SWIDTH 500 0
DWIDTH 10 0
BBX 5 15 1 0
BITMAP
08
08
08
08
08
08
08
F8
08
08
08
08
08
08
08
ENDCHAR
STARTCHAR 02E8
ENCODING 744
SWIDTH 500 0
DWIDTH 10 0
BBX 5 14 1 1
BITMAP
08
08
08
08
08
08
08
08
08
08
F8
08
08
08
ENDCHAR
STARTCHAR 02E9
ENCODING 745
SWIDTH 500 0
DWIDTH 10 0
BBX 5 14 1 1
BITMAP
08
08
08
08
08
08
08
08
08
08
08
08
08
F8
ENDCHAR
STARTCHAR 0300
ENCODING 768
SWIDTH 500 0
DWIDTH 10 0
BBX 3 2 3 12
BITMAP
C0
60
ENDCHAR
STARTCHAR 0301
ENCODING 769
SWIDTH 500 0
DWIDTH 10 0
BBX 3 2 4 12
BITMAP
60
C0
ENDCHAR
STARTCHAR 0302
ENCODING 770
SWIDTH 500 0
DWIDTH 10 0
BBX 4 2 3 12
BITMAP
60
90
ENDCHAR
STARTCHAR 0303
ENCODING 771
SWIDTH 500 0
DWIDTH 10 0
BBX 6 2 2 11
BITMAP
E0
9C
ENDCHAR
STARTCHAR 0304
ENCODING 772
SWIDTH 500 0
DWIDTH 10 0
BBX 6 1 2 13
BITMAP
FC
ENDCHAR
STARTCHAR 0305
ENCODING 773
SWIDTH 500 0
DWIDTH 10 0
BBX 6 1 2 13
BITMAP
FC
ENDCHAR
STARTCHAR 0306
ENCODING 774
SWIDTH 500 0
DWIDTH 10 0
BBX 6 2 2 13
BITMAP
CC
78
ENDCHAR
STARTCHAR 0308
ENCODING 776
SWIDTH 500 0
DWIDTH 10 0
BBX 6 2 2 13
BITMAP
CC
CC
ENDCHAR
STARTCHAR 030B
ENCODING 779
SWIDTH 500 0
DWIDTH 10 0
BBX 5 2 3 12
BITMAP
58
D0
ENDCHAR
STARTCHAR 030C
ENCODING 780
SWIDTH 500 0
DWIDTH 10 0
BBX 4 2 3 12
BITMAP
90
60
ENDCHAR
STARTCHAR 030F
ENCODING 783
SWIDTH 500 0
DWIDTH 10 0
BBX 5 2 2 12
BITMAP
D0
58
ENDCHAR
STARTCHAR 0318
ENCODING 792
SWIDTH 500 0
DWIDTH 10 0
BBX 3 5 3 -6
BITMAP
20
20
E0
20
20
ENDCHAR
STARTCHAR 0319
ENCODING 793
SWIDTH 500 0
DWIDTH 10 0
BBX 3 5 4 -6
BITMAP
80
80
E0
80
80
ENDCHAR
STARTCHAR 031A
ENCODING 794
SWIDTH 500 0
DWIDTH 10 0
BBX 4 5 2 8
BITMAP
F0
10
10
10
10
ENDCHAR
STARTCHAR 031C
ENCODING 796
SWIDTH 500 0
DWIDTH 10 0
BBX 2 4 4 -5
BITMAP
C0
80
80
40
ENDCHAR
STARTCHAR 031D
ENCODING 797
SWIDTH 500 0
DWIDTH 10 0
BBX 5 3 3 -3
BITMAP
20
20
F8
ENDCHAR
STARTCHAR 031E
ENCODING 798
SWIDTH 500 0
DWIDTH 10 0
BBX 5 3 3 -5
BITMAP
F8
20
20
ENDCHAR
STARTCHAR 031F
ENCODING 799
SWIDTH 500 0
DWIDTH 10 0
BBX 5 5 3 -6
BITMAP
20
20
F8
20
20
ENDCHAR
STARTCHAR 0320
ENCODING 800
SWIDTH 500 0
DWIDTH 10 0
BBX 6 1 2 -2
BITMAP
FC
ENDCHAR
STARTCHAR 0324
ENCODING 804
SWIDTH 500 0
DWIDTH 10 0
BBX 6 2 2 -3
BITMAP
CC
CC
ENDCHAR
STARTCHAR 0325
ENCODING 805
SWIDTH 500 0
DWIDTH 10 0
BBX 4 3 3 -4
BITMAP
F0
90
E0
ENDCHAR
STARTCHAR 0327
ENCODING 807
SWIDTH 500 0
DWIDTH 10 0
BBX 4 4 3 -4
BITMAP
40
70
10
F0
ENDCHAR
STARTCHAR 0329
ENCODING 809
SWIDTH 500 0
DWIDTH 10 0
BBX 1 6 5 -6
BITMAP
80
80
80
80
80
80
ENDCHAR
STARTCHAR 032A
ENCODING 810
SWIDTH 500 0
DWIDTH 10 0
BBX 6 3 2 -4
BITMAP
FC
84
84
ENDCHAR
STARTCHAR 032C
ENCODING 812
SWIDTH 500 0
DWIDTH 10 0
BBX 6 3 2 -3
BITMAP
CC
78
30
ENDCHAR
STARTCHAR 032F
ENCODING 815
SWIDTH 500 0
DWIDTH 10 0
BBX 6 2 2 -4
BITMAP
78
CC
ENDCHAR
STARTCHAR 0330
ENCODING 816
SWIDTH 500 0
DWIDTH 10 0
BBX 6 2 2 -2
BITMAP
E4
9C
ENDCHAR
STARTCHAR 0332
ENCODING 818
SWIDTH 500 0
DWIDTH 10 0
BBX 10 1 0 -2
BITMAP
FFC0
ENDCHAR
STARTCHAR 0334
ENCODING 820
SWIDTH 500 0
DWIDTH 10 0
BBX 6 2 2 5
BITMAP
E4
9C
ENDCHAR
STARTCHAR 0336
ENCODING 822
SWIDTH 950 0
DWIDTH 19 0
BBX 17 2 1 6
BITMAP
FFFF80
FFFF80
ENDCHAR
STARTCHAR 0339
ENCODING 825
SWIDTH 500 0
DWIDTH 10 0
BBX 2 4 4 -5
BITMAP
C0
40
40
C0
ENDCHAR
STARTCHAR 033A
ENCODING 826
SWIDTH 500 0
DWIDTH 10 0
BBX 6 3 2 -4
BITMAP
84
84
FC
ENDCHAR
STARTCHAR 033B
ENCODING 827
SWIDTH 500 0
DWIDTH 10 0
BBX 6 3 2 -4
BITMAP
FC
84
FC
ENDCHAR
STARTCHAR 033C
ENCODING 828
SWIDTH 500 0
DWIDTH 10 0
BBX 6 1 2 -3
BITMAP
FC
ENDCHAR
STARTCHAR 033D
ENCODING 829
SWIDTH 500 0
DWIDTH 10 0
BBX 4 4 3 12
BITMAP
90
60
60
90
ENDCHAR
STARTCHAR 0361
ENCODING 865
SWIDTH 0 0
DWIDTH 0 0
BBX 10 2 -5 15
BITMAP
3F00
C0C0
ENDCHAR
STARTCHAR 0391
ENCODING 913
SWIDTH 1000 0
DWIDTH 20 0
BBX 12 14 4 1
BITMAP
0600
0F00
0F00
1980
1980
1080
30C0
30C0
3FC0
6060
6060
C030
C030
C030
ENDCHAR
STARTCHAR 0392
ENCODING 914
SWIDTH 1000 0
DWIDTH 20 0
BBX 12 14 5 1
BITMAP
FF80
FFC0
C0E0
C060
C060
C0C0
FF80
C060
C030
C030
C030
C070
FFE0
FF80
ENDCHAR
STARTCHAR 0393
ENCODING 915
SWIDTH 1000 0
DWIDTH 20 0
BBX 11 14 5 1
BITMAP
FFE0
FFE0
C000
C000
C000
C000
C000
C000
C000
C000
C000
C000
C000
C000
ENDCHAR
STARTCHAR 0394
ENCODING 916
SWIDTH 1000 0
DWIDTH 20 0
BBX 14 14 3 1
BITMAP
0300
0780
0780
0CC0
0CC0
0840
1860
1020
3030
3030
6018
6018
7FF8
FFFC
ENDCHAR
STARTCHAR 0395
ENCODING 917
SWIDTH 1000 0
DWIDTH 20 0
BBX 11 14 5 1
BITMAP
FFE0
FFE0
C000
C000
C000
C000
FFC0
FFC0
C000
C000
C000
C000
FFE0
FFE0
ENDCHAR
STARTCHAR 0396
ENCODING 918
SWIDTH 1000 0
DWIDTH 20 0
BBX 12 14 4 1
BITMAP
7FE0
7FE0
0060
00C0
0180
0300
0600
0C00
1800
3800
3000
6000
FFF0
FFF0
ENDCHAR
STARTCHAR 0397
ENCODING 919
SWIDTH 1000 0
DWIDTH 20 0
BBX 12 15 4 0
BITMAP
C030
C030
C030
C030
C030
C030
FFF0
FFF0
C030
C030
C030
C030
C030
C030
C030
ENDCHAR
STARTCHAR 0398
ENCODING 920
SWIDTH 1000 0
DWIDTH 20 0
BBX 13 15 4 0
BITMAP
0F80
1FE0
3060
6030
E038
C018
FFD8
FFD8
C018
C018
E038
6030
3060
3FE0
0F80
ENDCHAR
STARTCHAR 0399
ENCODING 921
SWIDTH 1000 0
DWIDTH 20 0
BBX 2 14 9 1
BITMAP
C0
C0
C0
C0
C0
C0
C0
C0
C0
C0
C0
C0
C0
C0
ENDCHAR
STARTCHAR 039A
ENCODING 922
SWIDTH 1000 0
DWIDTH 20 0
BBX 12 14 5 1
BITMAP
C060
C0C0
C380
C700
CE00
DC00
FC00
E600
C300
C180
C1C0
C0E0
C060
C030
ENDCHAR
STARTCHAR 039B
ENCODING 923
SWIDTH 1000 0
DWIDTH 20 0
BBX 12 14 4 1
BITMAP
0600
0F00
0F00
0900
1980
1980
30C0
30C0
30C0
6060
6060
C030
C030
C030
ENDCHAR
STARTCHAR 039C
ENCODING 924
SWIDTH 1000 0
DWIDTH 20 0
BBX 14 14 3 1
BITMAP
E01C
E01C
F03C
D02C
D02C
D86C
C84C
C84C
CCCC
C48C
C48C
C78C
C30C
C30C
ENDCHAR
STARTCHAR 039D
ENCODING 925
SWIDTH 1000 0
DWIDTH 20 0
BBX 12 14 4 1
BITMAP
E030
F030
D030
D830
CC30
CC30
C630
C230
C330
C1B0
C0B0
C0F0
C070
C070
ENDCHAR
STARTCHAR 039E
ENCODING 926
SWIDTH 1000 0
DWIDTH 20 0
BBX 12 14 4 1
BITMAP
7FE0
7FE0
0000
0000
0000
0000
7FE0
7FE0
0000
0000
0000
0000
FFF0
FFF0
ENDCHAR
STARTCHAR 039F
ENCODING 927
SWIDTH 1000 0
DWIDTH 20 0
BBX 13 15 4 0
BITMAP
0F80
1FE0
3060
6030
E038
C018
C018
C018
C018
C018
E038
6030
3060
3FE0
0F80
ENDCHAR
STARTCHAR 03A0
ENCODING 928
SWIDTH 1000 0
DWIDTH 20 0
BBX 12 14 4 0
BITMAP
FFF0
FFF0
C030
C030
C030
C030
C030
C030
C030
C030
C030
C030
C030
C030
ENDCHAR
STARTCHAR 03A1
ENCODING 929
SWIDTH 1000 0
DWIDTH 20 0
BBX 11 14 5 0
BITMAP
FF80
FFC0
C0E0
C060
C060
C0E0
FFC0
FF80
C000
C000
C000
C000
C000
C000
ENDCHAR
STARTCHAR 03A3
ENCODING 931
SWIDTH 1000 0
DWIDTH 20 0
BBX 12 14 4 1
BITMAP
FFF0
FFF0
6000
3000
1800
0C00
0700
0600
0C00
1800
3000
6000
FFF0
FFF0
ENDCHAR
STARTCHAR 03A4
ENCODING 932
SWIDTH 1000 0
DWIDTH 20 0
BBX 12 14 4 1
BITMAP
FFF0
FFF0
0600
0600
0600
0600
0600
0600
0600
0600
0600
0600
0600
0600
ENDCHAR
STARTCHAR 03A5
ENCODING 933
SWIDTH 1000 0
DWIDTH 20 0
BBX 12 14 4 0
BITMAP
C030
E070
6060
30C0
39C0
1980
0F00
0F00
0600
0600
0600
0600
0600
0600
ENDCHAR
STARTCHAR 03A6
ENCODING 934
SWIDTH 1000 0
DWIDTH 20 0
BBX 14 14 3 2
BITMAP
0300
0300
1FE0
3B70
6318
C30C
C30C
C30C
C30C
6318
3BF0
0FE0
0300
0300
ENDCHAR
STARTCHAR 03A7
ENCODING 935
SWIDTH 1000 0
DWIDTH 20 0
BBX 13 14 3 1
BITMAP
7038
3030
1860
0CC0
0CC0
0780
0300
0780
0F80
0CC0
1860
3030
7038
E018
ENDCHAR
STARTCHAR 03A8
ENCODING 936
SWIDTH 1000 0
DWIDTH 20 0
BBX 12 14 4 2
BITMAP
C630
C630
C630
C630
C630
C630
C630
C630
6660
3FC0
0F00
0600
0600
0600
ENDCHAR
STARTCHAR 03A9
ENCODING 937
SWIDTH 1000 0
DWIDTH 20 0
BBX 14 14 3 1
BITMAP
0FC0
3FF0
7878
6018
C00C
C00C
C00C
C00C
6018
7038
1CE0
0CC0
FCFC
FCFC
ENDCHAR
STARTCHAR 03B1
ENCODING 945
SWIDTH 1000 0
DWIDTH 20 0
BBX 12 11 4 0
BITMAP
0E30
1F60
3360
61C0
61C0
C180
C100
C3B0
C7B0
FCE0
70E0
ENDCHAR
STARTCHAR 03B2
ENCODING 946
SWIDTH 1000 0
DWIDTH 20 0
BBX 11 17 4 -3
BITMAP
0380
0CC0
0860
1060
1060
30C0
2FC0
2780
6080
60C0
40C0
60C0
71C0
DF80
CF00
C000
C000
ENDCHAR
STARTCHAR 03B3
ENCODING 947
SWIDTH 1000 0
DWIDTH 20 0
BBX 12 13 4 -1
BITMAP
3820
7C70
CC60
04C0
0780
0700
0600
0600
0400
0C00
0C00
0C00
0800
ENDCHAR
STARTCHAR 03B4
ENCODING 948
SWIDTH 1000 0
DWIDTH 20 0
BBX 10 15 5 0
BITMAP
1E00
3380
30C0
1800
0C00
0E00
3300
6180
4180
C180
C180
C380
E700
7E00
3C00
ENDCHAR
STARTCHAR 03B5
ENCODING 949
SWIDTH 1000 0
DWIDTH 20 0
BBX 9 11 5 0
BITMAP
3F00
6180
6000
6000
1E00
7E00
C000
C000
C180
E300
3C00
ENDCHAR
STARTCHAR 03B6
ENCODING 950
SWIDTH 1000 0
DWIDTH 20 0
BBX 10 17 6 -1
BITMAP
31C0
4380
4F00
3800
1000
3000
6000
6000
4000
C000
C000
F000
7C00
0600
0600
4600
3C00
ENDCHAR
STARTCHAR 03B7
ENCODING 951
SWIDTH 1000 0
DWIDTH 20 0
BBX 11 13 4 -2
BITMAP
39C0
7FE0
CC60
0C60
0860
1840
10C0
10C0
30C0
20C0
0080
0180
0180
ENDCHAR
STARTCHAR 03B8
ENCODING 952
SWIDTH 1000 0
DWIDTH 20 0
BBX 10 15 5 0
BITMAP
0F00
1180
30C0
20C0
60C0
40C0
FFC0
C0C0
C0C0
C180
C180
C300
6700
7E00
3C00
ENDCHAR
STARTCHAR 03B9
ENCODING 953
SWIDTH 1000 0
DWIDTH 20 0
BBX 7 11 6 0
BITMAP
18
10
30
20
60
60
C0
C6
CE
FC
78
ENDCHAR
STARTCHAR 03BA
ENCODING 954
SWIDTH 1000 0
DWIDTH 20 0
BBX 10 11 5 0
BITMAP
0040
31C0
3380
2E00
7800
7C00
6C00
4440
C4C0
C780
0300
ENDCHAR
STARTCHAR 03BB
ENCODING 955
SWIDTH 1000 0
DWIDTH 20 0
BBX 11 14 4 1
BITMAP
1E00
3300
2100
0100
0100
0300
0700
0580
0D80
1980
3080
30C0
60C0
C060
ENDCHAR
STARTCHAR 03BC
ENCODING 956
SWIDTH 1000 0
DWIDTH 20 0
BBX 13 12 4 -2
BITMAP
1040
3040
30C0
20C0
2080
6180
6188
5398
5EF0
CC60
C000
C000
ENDCHAR
STARTCHAR 03BD
ENCODING 957
SWIDTH 1000 0
DWIDTH 20 0
BBX 9 10 6 2
BITMAP
C180
C180
6180
6100
6300
6300
6600
5C00
F000
C000
ENDCHAR
STARTCHAR 03BE
ENCODING 958
SWIDTH 1000 0
DWIDTH 20 0
BBX 9 17 5 -1
BITMAP
1B80
0F80
1800
3000
3000
3000
1F80
3B80
6000
C000
C000
E000
7E00
0780
0180
6180
3F00
ENDCHAR
STARTCHAR 03BF
ENCODING 959
SWIDTH 1000 0
DWIDTH 20 0
BBX 10 11 5 0
BITMAP
1F00
3180
60C0
60C0
C0C0
C0C0
C1C0
C180
E380
7F00
3E00
ENDCHAR
STARTCHAR 03C0
ENCODING 960
SWIDTH 1000 0
DWIDTH 20 0
BBX 11 12 5 0
BITMAP
0020
FFE0
9300
3300
3300
2200
6600
6600
4660
C660
C7C0
0380
ENDCHAR
STARTCHAR 03C1
ENCODING 961
SWIDTH 1000 0
DWIDTH 20 0
BBX 11 13 4 -3
BITMAP
0780
08C0
1060
3060
2060
2060
6060
60C0
60C0
5180
4F00
4000
C000
ENDCHAR
STARTCHAR 03C2
ENCODING 962
SWIDTH 600 0
DWIDTH 12 0
BBX 10 14 1 -4
BITMAP
1E00
2380
4180
40C0
4000
4000
2000
3800
1C00
0600
0200
0200
C200
7C00
ENDCHAR
STARTCHAR 03C3
ENCODING 963
SWIDTH 1000 0
DWIDTH 20 0
BBX 11 11 5 0
BITMAP
0FE0
3180
60C0
60C0
C0C0
C0C0
C1C0
C180
E380
7F00
3C00
ENDCHAR
STARTCHAR 03C4
ENCODING 964
SWIDTH 1000 0
DWIDTH 20 0
BBX 10 12 5 0
BITMAP
0040
7FC0
FE00
0C00
1800
1800
1000
3000
3100
3380
3F00
1E00
ENDCHAR
STARTCHAR 03C5
ENCODING 965
SWIDTH 1000 0
DWIDTH 20 0
BBX 11 11 4 1
BITMAP
38C0
D840
9860
3860
3060
3060
6060
60C0
6180
7F80
1E00
ENDCHAR
STARTCHAR 03C6
ENCODING 966
SWIDTH 1000 0
DWIDTH 20 0
BBX 12 16 4 -1
BITMAP
0180
0100
0100
0F80
3BE0
6260
C230
C630
C430
C430
EC60
7DC0
1F00
0800
1800
1800
ENDCHAR
STARTCHAR 03C7
ENCODING 967
SWIDTH 1000 0
DWIDTH 20 0
BBX 11 13 4 -2
BITMAP
3860
6CC0
0480
0580
0700
0600
0600
0E00
1A00
1200
3360
63E0
C1C0
ENDCHAR
STARTCHAR 03C8
ENCODING 968
SWIDTH 1000 0
DWIDTH 20 0
BBX 12 16 4 -2
BITMAP
0180
0100
0100
0300
3360
7260
4230
C630
C630
C430
C460
6CE0
3F80
0800
1800
1800
ENDCHAR
STARTCHAR 03C9
ENCODING 969
SWIDTH 1000 0
DWIDTH 20 0
BBX 13 11 3 0
BITMAP
0810
1C30
3018
6118
6318
C318
C218
C218
C530
7DF0
78E0
ENDCHAR
STARTCHAR 0401
ENCODING 1025
SWIDTH 1000 0
DWIDTH 20 0
BBX 11 16 5 2
BITMAP
3180
0000
FFE0
FFE0
C000
C000
C000
C000
FFC0
FFC0
C000
C000
C000
C000
FFE0
FFE0
ENDCHAR
STARTCHAR 0410
ENCODING 1040
SWIDTH 1000 0
DWIDTH 20 0
BBX 12 14 4 1
BITMAP
0600
0F00
0F00
1980
1980
1080
30C0
30C0
3FC0
6060
6060
C030
C030
C030
ENDCHAR
STARTCHAR 0411
ENCODING 1041
SWIDTH 1000 0
DWIDTH 20 0
BBX 12 14 5 1
BITMAP
FFE0
FFE0
C000
C000
C000
C000
FF80
FFE0
C070
C030
C030
C070
FFE0
FF80
ENDCHAR
STARTCHAR 0412
ENCODING 1042
SWIDTH 1000 0
DWIDTH 20 0
BBX 12 14 5 1
BITMAP
FF80
FFC0
C0E0
C060
C060
C0C0
FF80
C060
C030
C030
C030
C070
FFE0
FF80
ENDCHAR
STARTCHAR 0413
ENCODING 1043
SWIDTH 1000 0
DWIDTH 20 0
BBX 11 14 5 1
BITMAP
FFE0
FFE0
C000
C000
C000
C000
C000
C000
C000
C000
C000
C000
C000
C000
ENDCHAR
STARTCHAR 0414
ENCODING 1044
SWIDTH 1000 0
DWIDTH 20 0
BBX 14 16 3 -2
BITMAP
0FF0
0FF0
0C30
0C30
0830
0830
0830
1830
1830
1830
3030
3030
FFFC
FFFC
C00C
C00C
ENDCHAR
STARTCHAR 0415
ENCODING 1045
SWIDTH 1000 0
DWIDTH 20 0
BBX 11 14 5 1
BITMAP
FFE0
FFE0
C000
C000
C000
C000
FFC0
FFC0
C000
C000
C000
C000
FFE0
FFE0
ENDCHAR
STARTCHAR 0416
ENCODING 1046
SWIDTH 1000 0
DWIDTH 20 0
BBX 16 14 2 1
BITMAP
6186
6186
6186
2184
318C
1DB8
0FF0
0990
1998
318C
318C
6186
6186
C183
ENDCHAR
STARTCHAR 0417
ENCODING 1047
SWIDTH 1000 0
DWIDTH 20 0
BBX 12 15 4 0
BITMAP
1F80
30C0
6060
0060
0060
00C0
0F80
03C0
0060
0030
0030
C030
6060
70E0
1F80
ENDCHAR
STARTCHAR 0418
ENCODING 1048
SWIDTH 1000 0
DWIDTH 20 0
BBX 12 14 4 2
BITMAP
C030
C030
C070
C0F0
C1F0
C3B0
C730
CE30
DC30
F830
F030
C030
C030
C030
ENDCHAR
STARTCHAR 0419
ENCODING 1049
SWIDTH 1000 0
DWIDTH 20 0
BBX 12 16 4 2
BITMAP
1080
0F00
C030
C030
C070
C0F0
C1F0
C3B0
C730
CE30
DC30
F830
F030
E030
C030
C030
ENDCHAR
STARTCHAR 041A
ENCODING 1050
SWIDTH 1000 0
DWIDTH 20 0
BBX 12 14 5 1
BITMAP
C060
C060
C040
C0C0
C180
C700
FE00
C300
C300
C180
C0C0
C0E0
C060
C030
ENDCHAR
STARTCHAR 041B
ENCODING 1051
SWIDTH 1000 0
DWIDTH 20 0
BBX 12 15 3 0
BITMAP
07F0
07F0
0430
0430
0430
0430
0430
0430
0430
0430
0C30
8C30
C830
F830
7000
ENDCHAR
STARTCHAR 041C
ENCODING 1052
SWIDTH 1000 0
DWIDTH 20 0
BBX 14 14 3 1
BITMAP
E01C
E01C
F03C
D02C
D02C
D86C
C84C
C84C
CCCC
C48C
C48C
C78C
C30C
C30C
ENDCHAR
STARTCHAR 041D
ENCODING 1053
SWIDTH 1000 0
DWIDTH 20 0
BBX 12 15 4 0
BITMAP
C030
C030
C030
C030
C030
C030
FFF0
FFF0
C030
C030
C030
C030
C030
C030
C030
ENDCHAR
STARTCHAR 041E
ENCODING 1054
SWIDTH 1000 0
DWIDTH 20 0
BBX 13 15 4 0
BITMAP
0F80
1FE0
3060
6030
E038
C018
C018
C018
C018
C018
E038
6030
3060
3FE0
0F80
ENDCHAR
STARTCHAR 041F
ENCODING 1055
SWIDTH 1000 0
DWIDTH 20 0
BBX 12 14 4 0
BITMAP
FFF0
FFF0
C030
C030
C030
C030
C030
C030
C030
C030
C030
C030
C030
C030
ENDCHAR
STARTCHAR 0420
ENCODING 1056
SWIDTH 1000 0
DWIDTH 20 0
BBX 11 14 5 0
BITMAP
FF80
FFC0
C0E0
C060
C060
C0E0
FFC0
FF80
C000
C000
C000
C000
C000
C000
ENDCHAR
STARTCHAR 0421
ENCODING 1057
SWIDTH 1000 0
DWIDTH 20 0
BBX 13 15 3 0
BITMAP
0FC0
1FE0
3030
6018
4000
C000
C000
C000
C000
C018
E018
6038
3870
3FE0
0F80
ENDCHAR
STARTCHAR 0422
ENCODING 1058
SWIDTH 1000 0
DWIDTH 20 0
BBX 12 14 4 1
BITMAP
FFF0
FFF0
0600
0600
0600
0600
0600
0600
0600
0600
0600
0600
0600
0600
ENDCHAR
STARTCHAR 0423
ENCODING 1059
SWIDTH 1000 0
DWIDTH 20 0
BBX 11 14 5 0
BITMAP
C060
C060
60C0
60C0
3080
3180
1980
1B00
0F00
0600
0600
0400
3C00
F800
ENDCHAR
STARTCHAR 0424
ENCODING 1060
SWIDTH 1000 0
DWIDTH 20 0
BBX 14 14 3 2
BITMAP
0300
0300
1FE0
3B70
6318
C30C
C30C
C30C
C30C
6318
3FF0
0FE0
0300
0300
ENDCHAR
STARTCHAR 0425
ENCODING 1061
SWIDTH 1000 0
DWIDTH 20 0
BBX 13 14 3 1
BITMAP
7038
3030
1860
0CC0
0CC0
0780
0300
0780
0F80
0CC0
1860
3030
7038
E018
ENDCHAR
STARTCHAR 0426
ENCODING 1062
SWIDTH 1000 0
DWIDTH 20 0
BBX 13 16 4 -1
BITMAP
C060
C060
C060
C060
C060
C060
C060
C060
C060
C060
C060
C060
FFF8
FFF8
0018
0018
ENDCHAR
STARTCHAR 0427
ENCODING 1063
SWIDTH 1000 0
DWIDTH 20 0
BBX 10 14 5 2
BITMAP
C0C0
C0C0
C0C0
C0C0
C0C0
C0C0
C1C0
FFC0
3EC0
00C0
00C0
00C0
00C0
00C0
ENDCHAR
STARTCHAR 0428
ENCODING 1064
SWIDTH 1000 0
DWIDTH 20 0
BBX 14 14 3 2
BITMAP
C30C
C30C
C30C
C30C
C30C
C30C
C30C
C30C
C30C
C30C
C30C
C30C
FFFC
FFFC
ENDCHAR
STARTCHAR 0429
ENCODING 1065
SWIDTH 1000 0
DWIDTH 20 0
BBX 15 16 3 -1
BITMAP
C30C
C30C
C30C
C30C
C30C
C30C
C30C
C30C
C30C
C30C
C30C
C30C
FFFE
FFFE
0006
0006
ENDCHAR
STARTCHAR 042A
ENCODING 1066
SWIDTH 1000 0
DWIDTH 20 0
BBX 14 14 3 1
BITMAP
F800
F800
1800
1800
1800
1800
1FF0
1FF8
181C
180C
180C
181C
1FF8
1FE0
ENDCHAR
STARTCHAR 042B
ENCODING 1067
SWIDTH 1000 0
DWIDTH 20 0
BBX 14 14 3 1
BITMAP
C00C
C00C
C00C
C00C
C00C
C00C
FF0C
FF8C
C1CC
C0CC
C0CC
C1CC
FF8C
FF0C
ENDCHAR
STARTCHAR 042C
ENCODING 1068
SWIDTH 1000 0
DWIDTH 20 0
BBX 12 14 5 1
BITMAP
C000
C000
C000
C000
C000
C000
FF80
FFE0
C070
C030
C030
C070
FFE0
FF80
ENDCHAR
STARTCHAR 042D
ENCODING 1069
SWIDTH 1000 0
DWIDTH 20 0
BBX 13 15 4 0
BITMAP
1F80
3FC0
60E0
C030
0030
0018
3F98
3F98
0018
0018
C038
E030
70F0
3FE0
1F80
ENDCHAR
STARTCHAR 042E
ENCODING 1070
SWIDTH 1000 0
DWIDTH 20 0
BBX 15 15 3 0
BITMAP
C1F0
C3F8
C71C
C60C
CC06
CC06
FC06
FC06
CC06
CC06
CE06
C60C
C71C
C3F8
01F0
ENDCHAR
STARTCHAR 042F
ENCODING 1071
SWIDTH 1000 0
DWIDTH 20 0
BBX 11 14 4 1
BITMAP
3FE0
7FE0
E060
C060
C060
E060
7FE0
1FE0
0C60
1860
3060
3060
6060
C060
ENDCHAR
STARTCHAR 0430
ENCODING 1072
SWIDTH 1000 0
DWIDTH 20 0
BBX 10 11 5 0
BITMAP
3E00
6100
6180
0180
3F80
7180
E180
C180
C180
42C0
3CC0
ENDCHAR
STARTCHAR 0431
ENCODING 1073
SWIDTH 1000 0
DWIDTH 20 0
BBX 10 15 5 0
BITMAP
0180
0F00
1C00
3000
6000
5F00
E180
C080
C0C0
C0C0
C0C0
C0C0
6180
7F80
1E00
ENDCHAR
STARTCHAR 0432
ENCODING 1074
SWIDTH 1000 0
DWIDTH 20 0
BBX 8 10 6 1
BITMAP
FE
C3
C3
C3
FC
C3
C3
C3
C3
FE
ENDCHAR
STARTCHAR 0433
ENCODING 1075
SWIDTH 1000 0
DWIDTH 20 0
BBX 8 10 6 0
BITMAP
FF
FF
C0
C0
C0
C0
C0
C0
C0
C0
ENDCHAR
STARTCHAR 0434
ENCODING 1076
SWIDTH 1000 0
DWIDTH 20 0
BBX 11 12 4 -2
BITMAP
0FC0
08C0
08C0
08C0
18C0
18C0
10C0
30C0
30C0
FFE0
C060
C060
ENDCHAR
STARTCHAR 0435
ENCODING 1077
SWIDTH 1000 0
DWIDTH 20 0
BBX 10 11 5 0
BITMAP
1E00
2180
4080
C0C0
FFC0
C000
C000
C0C0
6180
2180
1E00
ENDCHAR
STARTCHAR 0436
ENCODING 1078
SWIDTH 1000 0
DWIDTH 20 0
BBX 12 10 4 1
BITMAP
C630
C630
C630
6660
3FC0
3FC0
6660
6660
C630
C630
ENDCHAR
STARTCHAR 0437
ENCODING 1079
SWIDTH 1000 0
DWIDTH 20 0
BBX 9 11 5 0
BITMAP
1E00
6180
6180
0180
0300
1F00
0180
0180
E180
6300
3E00
ENDCHAR
STARTCHAR 0438
ENCODING 1080
SWIDTH 1000 0
DWIDTH 20 0
BBX 8 10 6 1
BITMAP
C3
C3
C7
CF
CB
DB
F3
E3
C3
C3
ENDCHAR
STARTCHAR 0439
ENCODING 1081
SWIDTH 1000 0
DWIDTH 20 0
BBX 8 13 6 2
BITMAP
66
24
1C
C3
C3
C7
CF
CB
DB
F3
E3
C3
C3
ENDCHAR
STARTCHAR 043A
ENCODING 1082
SWIDTH 1000 0
DWIDTH 20 0
BBX 9 10 6 1
BITMAP
C180
C100
C300
C600
FC00
FC00
C600
C300
C380
C180
ENDCHAR
STARTCHAR 043B
ENCODING 1083
SWIDTH 1000 0
DWIDTH 20 0
BBX 11 11 3 0
BITMAP
0FE0
0FE0
0C60
0C60
0C60
0C60
0C60
CC60
D860
F860
7000
ENDCHAR
STARTCHAR 043C
ENCODING 1084
SWIDTH 1000 0
DWIDTH 20 0
BBX 10 10 5 0
BITMAP
E1C0
E1C0
F3C0
D2C0
D2C0
D2C0
DEC0
CCC0
CCC0
CCC0
ENDCHAR
STARTCHAR 043D
ENCODING 1085
SWIDTH 1000 0
DWIDTH 20 0
BBX 8 10 6 0
BITMAP
C3
C3
C3
C3
FF
FF
C3
C3
C3
C3
ENDCHAR
STARTCHAR 043E
ENCODING 1086
SWIDTH 1000 0
DWIDTH 20 0
BBX 10 11 5 0
BITMAP
1E00
7300
6180
C0C0
C0C0
C0C0
C0C0
C0C0
6180
3300
1E00
ENDCHAR
STARTCHAR 043F
ENCODING 1087
SWIDTH 1000 0
DWIDTH 20 0
BBX 8 10 6 0
BITMAP
FF
FF
C3
C3
C3
C3
C3
C3
C3
C3
ENDCHAR
STARTCHAR 0440
ENCODING 1088
SWIDTH 1000 0
DWIDTH 20 0
BBX 10 13 6 -3
BITMAP
DE00
FF80
E180
C0C0
C0C0
C0C0
C0C0
E0C0
E180
DF80
CE00
C000
C000
ENDCHAR
STARTCHAR 0441
ENCODING 1089
SWIDTH 1000 0
DWIDTH 20 0
BBX 10 11 5 0
BITMAP
1E00
3F80
6180
C000
C000
C000
C000
E0C0
6180
3F00
1E00
ENDCHAR
STARTCHAR 0442
ENCODING 1090
SWIDTH 1000 0
DWIDTH 20 0
BBX 10 10 5 0
BITMAP
FFC0
FFC0
0C00
0C00
0C00
0C00
0C00
0C00
0C00
0C00
ENDCHAR
STARTCHAR 0443
ENCODING 1091
SWIDTH 1000 0
DWIDTH 20 0
BBX 10 13 5 -3
BITMAP
C0C0
60C0
6180
2180
3100
1300
1B00
0E00
0E00
0C00
0C00
7800
F000
ENDCHAR
STARTCHAR 0444
ENCODING 1092
SWIDTH 1000 0
DWIDTH 20 0
BBX 14 17 3 -2
BITMAP
0300
0300
0300
0300
3FF0
7FF8
6318
C30C
C30C
C30C
C30C
C30C
6798
7FF8
3B70
0300
0300
ENDCHAR
STARTCHAR 0445
ENCODING 1093
SWIDTH 1000 0
DWIDTH 20 0
BBX 10 10 5 1
BITMAP
E1C0
6180
3300
1E00
0C00
1E00
3F00
7380
6180
C0C0
ENDCHAR
STARTCHAR 0446
ENCODING 1094
SWIDTH 1000 0
DWIDTH 20 0
BBX 10 12 6 -2
BITMAP
C300
C300
C300
C300
C300
C300
C300
C300
FFC0
FFC0
00C0
00C0
ENDCHAR
STARTCHAR 0447
ENCODING 1095
SWIDTH 1000 0
DWIDTH 20 0
BBX 9 10 5 1
BITMAP
C180
C180
C180
C180
C380
FF80
7D80
0180
0180
0180
ENDCHAR
STARTCHAR 0448
ENCODING 1096
SWIDTH 1000 0
DWIDTH 20 0
BBX 12 10 4 1
BITMAP
C630
C630
C630
C630
C630
C630
C630
C630
FFF0
FFF0
ENDCHAR
STARTCHAR 0449
ENCODING 1097
SWIDTH 1000 0
DWIDTH 20 0
BBX 14 12 4 -2
BITMAP
C630
C630
C630
C630
C630
C630
C630
C630
FFFC
FFFC
000C
000C
ENDCHAR
STARTCHAR 044A
ENCODING 1098
SWIDTH 1000 0
DWIDTH 20 0
BBX 12 10 4 1
BITMAP
F800
1800
1800
1FC0
1860
1830
1830
1830
1870
1FE0
ENDCHAR
STARTCHAR 044B
ENCODING 1099
SWIDTH 1000 0
DWIDTH 20 0
BBX 12 10 4 1
BITMAP
C030
C030
C030
FE30
C330
C1B0
C1B0
C1B0
C330
FE30
ENDCHAR
STARTCHAR 044C
ENCODING 1100
SWIDTH 1000 0
DWIDTH 20 0
BBX 9 10 6 1
BITMAP
C000
C000
C000
FE00
C300
C180
C180
C180
C380
FF00
ENDCHAR
STARTCHAR 044D
ENCODING 1101
SWIDTH 1000 0
DWIDTH 20 0
BBX 10 11 5 0
BITMAP
1E00
6180
4080
00C0
38C0
26C0
00C0
C0C0
6180
6300
1E00
ENDCHAR
STARTCHAR 044E
ENCODING 1102
SWIDTH 1000 0
DWIDTH 20 0
BBX 14 11 4 0
BITMAP
C1E0
C7F8
C618
CC0C
FC0C
FC0C
CC0C
CC0C
C618
C7F8
01E0
ENDCHAR
STARTCHAR 044F
ENCODING 1103
SWIDTH 1000 0
DWIDTH 20 0
BBX 9 10 5 1
BITMAP
3F80
6180
6180
6180
3F80
3180
3180
6180
6180
C180
ENDCHAR
STARTCHAR 0451
ENCODING 1105
SWIDTH 1000 0
DWIDTH 20 0
BBX 10 14 5 1
BITMAP
2100
2100
0000
1E00
2180
4080
C0C0
FFC0
C000
C000
C0C0
6180
2180
1E00
ENDCHAR
STARTCHAR 1E3E
ENCODING 7742
SWIDTH 900 0
DWIDTH 18 0
BBX 14 18 2 -1
BITMAP
0180
0100
0300
0000
E01C
E01C
F03C
D02C
D02C
D86C
C84C
CCCC
CCCC
C48C
C78C
C30C
C30C
C30C
ENDCHAR
STARTCHAR 1E3F
ENCODING 7743
SWIDTH 850 0
DWIDTH 17 0
BBX 14 14 2 1
BITMAP
0080
0100
0000
0000
DE78
E69C
C30C
C30C
C30C
C30C
C30C
C30C
C30C
C30C
ENDCHAR
STARTCHAR 1F70
ENCODING 8048
SWIDTH 600 0
DWIDTH 12 0
BBX 10 14 1 1
BITMAP
1800
0800
0000
0000
3EC0
61C0
40C0
C0C0
C0C0
C0C0
C0C0
C1C0
63C0
3E40
ENDCHAR
STARTCHAR 1F71
ENCODING 8049
SWIDTH 600 0
DWIDTH 12 0
BBX 10 14 1 1
BITMAP
0600
0400
0000
0000
3EC0
61C0
40C0
C0C0
C0C0
C0C0
C0C0
C1C0
63C0
3E40
ENDCHAR
STARTCHAR 1F72
ENCODING 8050
SWIDTH 500 0
DWIDTH 10 0
BBX 8 14 1 1
BITMAP
10
18
00
00
3F
E1
C0
E0
3E
60
C0
C0
FF
3F
ENDCHAR
STARTCHAR 1F73
ENCODING 8051
SWIDTH 500 0
DWIDTH 10 0
BBX 8 14 1 1
BITMAP
06
0C
00
00
3F
E1
C0
E0
3E
60
C0
C0
FF
3F
ENDCHAR
STARTCHAR 2002
ENCODING 8194
SWIDTH 500 0
DWIDTH 10 0
BBX 0 0 0 0
BITMAP
ENDCHAR
STARTCHAR 2003
ENCODING 8195
SWIDTH 1000 0
DWIDTH 20 0
BBX 0 0 0 0
BITMAP
ENDCHAR
STARTCHAR 2010
ENCODING 8208
SWIDTH 350 0
DWIDTH 7 0
BBX 5 2 1 5
BITMAP
F8
F8
ENDCHAR
STARTCHAR 2011
ENCODING 8209
SWIDTH 350 0
DWIDTH 7 0
BBX 5 2 1 5
BITMAP
F8
F8
ENDCHAR
STARTCHAR 2012
ENCODING 8210
SWIDTH 350 0
DWIDTH 7 0
BBX 5 2 1 5
BITMAP
F8
F8
ENDCHAR
STARTCHAR 2013
ENCODING 8211
SWIDTH 550 0
DWIDTH 11 0
BBX 9 1 1 6
BITMAP
FF80
ENDCHAR
STARTCHAR 2014
ENCODING 8212
SWIDTH 950 0
DWIDTH 19 0
BBX 17 2 1 6
BITMAP
FFFF80
FFFF80
ENDCHAR
STARTCHAR 2015
ENCODING 8213
SWIDTH 1000 0
DWIDTH 20 0
BBX 16 2 2 6
BITMAP
FFFF
FFFF
ENDCHAR
STARTCHAR 2016
ENCODING 8214
SWIDTH 1000 0
DWIDTH 20 0
BBX 6 20 7 -3
BITMAP
CC
CC
CC
CC
CC
CC
CC
CC
CC
CC
CC
CC
CC
CC
CC
CC
CC
CC
CC
CC
ENDCHAR
STARTCHAR 2018
ENCODING 8216
SWIDTH 1000 0
DWIDTH 20 0
BBX 3 5 15 12
BITMAP
60
40
40
E0
E0
ENDCHAR
STARTCHAR 2019
ENCODING 8217
SWIDTH 1000 0
DWIDTH 20 0
BBX 3 5 2 11
BITMAP
E0
E0
40
40
C0
ENDCHAR
STARTCHAR 201C
ENCODING 8220
SWIDTH 1000 0
DWIDTH 20 0
BBX 7 5 11 12
BITMAP
66
44
44
EE
EE
ENDCHAR
STARTCHAR 201D
ENCODING 8221
SWIDTH 1000 0
DWIDTH 20 0
BBX 7 5 2 11
BITMAP
EE
EE
44
44
CC
ENDCHAR
STARTCHAR 2020
ENCODING 8224
SWIDTH 1000 0
DWIDTH 20 0
BBX 9 18 5 -2
BITMAP
1C00
1C00
1C00
0800
EB80
FF80
EB80
1C00
1C00
0800
0800
0800
0800
0800
0800
0800
0800
0800
ENDCHAR
STARTCHAR 2021
ENCODING 8225
SWIDTH 1000 0
DWIDTH 20 0
BBX 8 19 6 -2
BITMAP
18
18
18
F7
FF
18
18
18
10
10
10
18
18
18
FF
F7
18
18
18
ENDCHAR
STARTCHAR 2022
ENCODING 8226
SWIDTH 350 0
DWIDTH 7 0
BBX 5 5 1 5
BITMAP
70
F8
F8
F8
70
ENDCHAR
STARTCHAR 2025
ENCODING 8229
SWIDTH 1000 0
DWIDTH 20 0
BBX 12 2 4 7
BITMAP
C030
C030
ENDCHAR
STARTCHAR 2026
ENCODING 8230
SWIDTH 1000 0
DWIDTH 20 0
BBX 16 2 2 7
BITMAP
C183
C183
ENDCHAR
STARTCHAR 2030
ENCODING 8240
SWIDTH 1000 0
DWIDTH 20 0
BBX 18 18 1 -1
BITMAP
003000
702000
884000
88C000
888000
898000
890000
720000
060000
04E380
0D1440
191440
111440
311440
211440
40E380
C00000
800000
ENDCHAR
STARTCHAR 2032
ENCODING 8242
SWIDTH 300 0
DWIDTH 6 0
BBX 3 6 1 11
BITMAP
60
60
40
40
40
80
ENDCHAR
STARTCHAR 2033
ENCODING 8243
SWIDTH 450 0
DWIDTH 9 0
BBX 6 6 1 11
BITMAP
64
6C
48
48
48
90
ENDCHAR
STARTCHAR 203B
ENCODING 8251
SWIDTH 1000 0
DWIDTH 20 0
BBX 16 17 2 -1
BITMAP
01C0
C1C3
61C6
300C
1818
0C30
0660
E3C6
E187
E3C7
0660
0C30
1818
31CC
61C6
C1C3
8001
ENDCHAR
STARTCHAR 203C
ENCODING 8252
SWIDTH 500 0
DWIDTH 10 0
BBX 6 14 2 0
BITMAP
CC
CC
CC
CC
CC
CC
CC
CC
CC
CC
00
00
CC
CC
ENDCHAR
STARTCHAR 203E
ENCODING 8254
SWIDTH 500 0
DWIDTH 10 0
BBX 6 1 2 13
BITMAP
FC
ENDCHAR
STARTCHAR 203F
ENCODING 8255
SWIDTH 450 0
DWIDTH 9 0
BBX 9 2 0 -2
BITMAP
C180
3E00
ENDCHAR
STARTCHAR 2042
ENCODING 8258
SWIDTH 1000 0
DWIDTH 20 0
BBX 14 15 3 0
BITMAP
0300
0B40
0EC0
0300
0FC0
0B40
0300
0000
2010
A494
ECDC
3030
FCFC
2010
2010
ENDCHAR
STARTCHAR 2047
ENCODING 8263
SWIDTH 1000 0
DWIDTH 20 0
BBX 19 14 1 0
BITMAP
3E0F80
6318C0
C1B060
81E060
018060
0300C0
060180
0C0300
180600
180600
180600
000000
180600
180600
ENDCHAR
STARTCHAR 2048
ENCODING 8264
SWIDTH 750 0
DWIDTH 15 0
BBX 12 14 1 0
BITMAP
3E30
6330
C1B0
81B0
01B0
0330
0630
0C30
0830
1830
1800
0000
1830
1830
ENDCHAR
STARTCHAR 2049
ENCODING 8265
SWIDTH 800 0
DWIDTH 16 0
BBX 13 14 2 0
BITMAP
C3E0
CE30
CC18
D818
C018
C030
C060
C0C0
C080
C180
0180
0000
C180
C180
ENDCHAR
STARTCHAR 2051
ENCODING 8273
SWIDTH 1000 0
DWIDTH 20 0
BBX 6 15 7 0
BITMAP
30
B4
68
78
FC
30
30
00
00
30
B4
78
78
BC
30
ENDCHAR
STARTCHAR 205A
ENCODING 8282
SWIDTH 1000 0
DWIDTH 20 0
BBX 2 13 9 1
BITMAP
C0
C0
00
00
00
00
00
00
00
00
00
C0
C0
ENDCHAR
STARTCHAR 205D
ENCODING 8285
SWIDTH 1000 0
DWIDTH 20 0
BBX 2 15 9 0
BITMAP
C0
C0
00
00
00
00
C0
C0
00
00
00
00
00
C0
C0
ENDCHAR
STARTCHAR 20AC
ENCODING 8364
SWIDTH 650 0
DWIDTH 13 0
BBX 11 14 1 0
BITMAP
0F80
1FC0
3000
6000
FFC0
6000
6000
6000
FFC0
6000
6000
3040
1FE0
0F80
ENDCHAR
STARTCHAR 2103
ENCODING 8451
SWIDTH 1000 0
DWIDTH 20 0
BBX 17 16 1 1
BITMAP
700000
88F800
89FE00
8B0600
760300
060300
0C0000
0C0000
0C0000
0C0000
0C0000
0E0180
060300
070700
03FE00
00F800
ENDCHAR
STARTCHAR 210F
ENCODING 8463
SWIDTH 600 0
DWIDTH 12 0
BBX 9 15 1 0
BITMAP
1000
3000
3E00
E000
2000
6700
6980
7180
6180
4180
C180
C300
C300
8300
8300
ENDCHAR
STARTCHAR 2113
ENCODING 8467
SWIDTH 1000 0
DWIDTH 20 0
BBX 10 15 5 0
BITMAP
0700
0C80
0880
1080
1080
2080
2100
2100
2300
2200
2400
3C00
30C0
F980
8F00
ENDCHAR
STARTCHAR 2116
ENCODING 8470
SWIDTH 1000 0
DWIDTH 20 0
BBX 18 14 1 1
BITMAP
E18000
E18000
F18000
F18000
D99C00
D99200
C9A100
CDA100
C5A100
C7A100
C7A100
C3A100
C392C0
C18CC0
ENDCHAR
STARTCHAR 2121
ENCODING 8481
SWIDTH 1000 0
DWIDTH 20 0
BBX 17 14 1 1
BITMAP
FE0000
180000
180000
19E400
190400
190400
190400
190400
19E400
190400
190400
190400
190400
19F780
ENDCHAR
STARTCHAR 2127
ENCODING 8487
SWIDTH 850 0
DWIDTH 17 0
BBX 13 14 2 0
BITMAP
F8F8
18C0
3060
3030
6030
6018
6018
6018
6018
6018
3030
3030
1860
0FC0
ENDCHAR
STARTCHAR 212B
ENCODING 8491
SWIDTH 1000 0
DWIDTH 20 0
BBX 12 16 4 1
BITMAP
0600
0900
0900
0600
0600
0700
0F00
0900
1980
1080
30C0
3FC0
6060
4020
C030
8010
ENDCHAR
STARTCHAR 2135
ENCODING 8501
SWIDTH 700 0
DWIDTH 14 0
BBX 12 14 1 -1
BITMAP
2040
C080
C060
E090
7180
3D00
6F00
6380
61C0
60E0
6060
6060
6060
C0C0
ENDCHAR
STARTCHAR 2153
ENCODING 8531
SWIDTH 850 0
DWIDTH 17 0
BBX 14 15 2 -1
BITMAP
2010
E030
2020
2040
20C0
2080
2100
2270
02CC
0404
0808
1838
1004
20C4
6078
ENDCHAR
STARTCHAR 2154
ENCODING 8532
SWIDTH 850 0
DWIDTH 17 0
BBX 15 16 1 -1
BITMAP
0008
7818
C410
0420
1860
6040
C080
FDBC
0322
0202
0404
0C1C
1802
1062
203C
2000
ENDCHAR
STARTCHAR 2155
ENCODING 8533
SWIDTH 850 0
DWIDTH 17 0
BBX 14 15 2 -1
BITMAP
2010
E030
2020
2040
2080
2080
2100
027C
0240
0440
0878
1844
1004
2044
6078
ENDCHAR
STARTCHAR 2160
ENCODING 8544
SWIDTH 1000 0
DWIDTH 20 0
BBX 2 14 9 1
BITMAP
C0
C0
C0
C0
C0
C0
C0
C0
C0
C0
C0
C0
C0
C0
ENDCHAR
STARTCHAR 2161
ENCODING 8545
SWIDTH 1000 0
DWIDTH 20 0
BBX 8 14 6 2
BITMAP
C3
C3
C3
C3
C3
C3
C3
C3
C3
C3
C3
C3
C3
C3
ENDCHAR
STARTCHAR 2162
ENCODING 8546
SWIDTH 1000 0
DWIDTH 20 0
BBX 12 14 4 2
BITMAP
C630
C630
C630
C630
C630
C630
C630
C630
C630
C630
C630
C630
C630
C630
ENDCHAR
STARTCHAR 2163
ENCODING 8547
SWIDTH 1000 0
DWIDTH 20 0
BBX 15 14 3 1
BITMAP
D806
CC06
CC0C
CC0C
C60C
C618
C218
C318
C330
C130
C1A0
C1E0
C0E0
C0C0
ENDCHAR
STARTCHAR 2164
ENCODING 8548
SWIDTH 1000 0
DWIDTH 20 0
BBX 12 14 4 1
BITMAP
C030
C030
C030
6060
6060
30C0
30C0
30C0
1980
1980
0900
0F00
0F00
0600
ENDCHAR
STARTCHAR 2165
ENCODING 8549
SWIDTH 1000 0
DWIDTH 20 0
BBX 15 14 2 1
BITMAP
C036
C066
6066
6066
60C6
30C6
3086
3186
1986
1906
0B06
0F06
0E06
0606
ENDCHAR
STARTCHAR 2166
ENCODING 8550
SWIDTH 1000 0
DWIDTH 20 0
BBX 17 14 1 1
BITMAP
C0D980
C19980
C19980
419980
611980
631980
231980
331980
321980
361980
161980
1C1980
1C1980
0C1980
ENDCHAR
STARTCHAR 2167
ENCODING 8551
SWIDTH 1000 0
DWIDTH 20 0
BBX 17 14 1 1
BITMAP
C1BD80
C1BD80
413D80
633D80
633D80
633D80
223D80
363D80
363D80
363D80
143D80
143D80
1C3D80
1C3D80
ENDCHAR
STARTCHAR 2168
ENCODING 8552
SWIDTH 1000 0
DWIDTH 20 0
BBX 15 14 3 1
BITMAP
C60C
C60C
C318
C198
C1B0
C0E0
C0E0
C0E0
C1B0
C1B8
C318
C60C
C60C
CC06
ENDCHAR
STARTCHAR 2169
ENCODING 8553
SWIDTH 1000 0
DWIDTH 20 0
BBX 13 14 3 1
BITMAP
7038
3030
1860
0CC0
0CC0
0780
0300
0780
0F80
0CC0
1860
3030
7038
E018
ENDCHAR
STARTCHAR 216A
ENCODING 8554
SWIDTH 1000 0
DWIDTH 20 0
BBX 15 14 2 1
BITMAP
60C6
60C6
3186
3306
1B06
0E06
0E06
0E06
1B06
3B06
3186
60C6
60C6
C066
ENDCHAR
STARTCHAR 216B
ENCODING 8555
SWIDTH 1000 0
DWIDTH 20 0
BBX 17 14 1 1
BITMAP
619980
611980
331980
321980
1E1980
1C1980
0C1980
1C1980
1E1980
321980
331980
619980
619980
C0D980
ENDCHAR
STARTCHAR 2170
ENCODING 8560
SWIDTH 1000 0
DWIDTH 20 0
BBX 2 14 9 1
BITMAP
C0
C0
00
00
C0
C0
C0
C0
C0
C0
C0
C0
C0
C0
ENDCHAR
STARTCHAR 2171
ENCODING 8561
SWIDTH 1000 0
DWIDTH 20 0
BBX 8 14 6 1
BITMAP
C3
C3
00
00
C3
C3
C3
C3
C3
C3
C3
C3
C3
C3
ENDCHAR
STARTCHAR 2172
ENCODING 8562
SWIDTH 1000 0
DWIDTH 20 0
BBX 10 14 5 1
BITMAP
CCC0
CCC0
0000
0000
CCC0
CCC0
CCC0
CCC0
CCC0
CCC0
CCC0
CCC0
CCC0
CCC0
ENDCHAR
STARTCHAR 2173
ENCODING 8563
SWIDTH 1000 0
DWIDTH 20 0
BBX 13 14 4 1
BITMAP
C000
C000
0000
0000
D818
CC18
CC30
C430
C620
C260
C340
C3C0
C1C0
C180
ENDCHAR
STARTCHAR 2174
ENCODING 8564
SWIDTH 1000 0
DWIDTH 20 0
BBX 10 10 5 1
BITMAP
C0C0
C0C0
6180
6180
2100
3300
3300
1E00
1E00
0C00
ENDCHAR
STARTCHAR 2175
ENCODING 8565
SWIDTH 1000 0
DWIDTH 20 0
BBX 13 14 3 1
BITMAP
0018
0018
0000
0000
C0D8
C198
6198
6118
2318
3218
1618
1E18
1C18
0C18
ENDCHAR
STARTCHAR 2176
ENCODING 8566
SWIDTH 1000 0
DWIDTH 20 0
BBX 16 14 1 2
BITMAP
0033
0033
0000
0000
C1B3
41B3
6333
6333
2233
3633
1633
1C33
1C33
0C33
ENDCHAR
STARTCHAR 2177
ENCODING 8567
SWIDTH 1000 0
DWIDTH 20 0
BBX 16 14 2 2
BITMAP
007B
007B
0000
0000
837B
C37B
C27B
467B
667B
647B
2C7B
3C7B
187B
187B
ENDCHAR
STARTCHAR 2178
ENCODING 8568
SWIDTH 1000 0
DWIDTH 20 0
BBX 13 14 4 1
BITMAP
C000
C000
0000
0000
CC18
C630
C360
C3E0
C1C0
C1C0
C360
C630
CC38
CC18
ENDCHAR
STARTCHAR 2179
ENCODING 8569
SWIDTH 1000 0
DWIDTH 20 0
BBX 10 10 5 1
BITMAP
E1C0
6180
3300
1E00
0C00
1E00
3F00
7380
6180
C0C0
ENDCHAR
STARTCHAR 217A
ENCODING 8570
SWIDTH 1000 0
DWIDTH 20 0
BBX 13 14 3 1
BITMAP
0018
0018
0000
0000
C198
6318
3618
3E18
1C18
1C18
3618
6318
E198
C198
ENDCHAR
STARTCHAR 217B
ENCODING 8571
SWIDTH 1000 0
DWIDTH 20 0
BBX 15 15 2 1
BITMAP
0036
0036
0036
0000
0000
6336
6236
3636
1C36
1836
1C36
3436
6636
6336
C136
ENDCHAR
STARTCHAR 2190
ENCODING 8592
SWIDTH 1000 0
DWIDTH 20 0
BBX 18 7 1 4
BITMAP
0C0000
180000
700000
FFFFC0
700000
180000
0C0000
ENDCHAR
STARTCHAR 2191
ENCODING 8593
SWIDTH 1000 0
DWIDTH 20 0
BBX 8 18 6 -1
BITMAP
10
18
3C
7E
D7
93
11
10
10
10
10
10
10
10
10
10
10
10
ENDCHAR
STARTCHAR 2192
ENCODING 8594
SWIDTH 1000 0
DWIDTH 20 0
BBX 18 7 1 4
BITMAP
000C00
000600
000380
FFFFC0
000380
000600
000C00
ENDCHAR
STARTCHAR 2193
ENCODING 8595
SWIDTH 1000 0
DWIDTH 20 0
BBX 8 17 6 -1
BITMAP
10
10
10
10
10
10
10
10
10
10
10
91
93
D6
7C
38
10
ENDCHAR
STARTCHAR 2194
ENCODING 8596
SWIDTH 750 0
DWIDTH 15 0
BBX 13 8 1 3
BITMAP
1080
1040
2020
4030
FFF8
4030
2060
1040
ENDCHAR
STARTCHAR 2196
ENCODING 8598
SWIDTH 1000 0
DWIDTH 20 0
BBX 14 14 3 1
BITMAP
FC00
E600
F000
5800
4C00
4600
0300
0180
00C0
0060
0030
0018
000C
0004
ENDCHAR
STARTCHAR 2197
ENCODING 8599
SWIDTH 1000 0
DWIDTH 20 0
BBX 14 14 3 1
BITMAP
00FC
019C
003C
0068
00C8
0188
0300
0600
0C00
1800
3000
6000
C000
8000
ENDCHAR
STARTCHAR 2198
ENCODING 8600
SWIDTH 1000 0
DWIDTH 20 0
BBX 14 14 3 0
BITMAP
8000
C000
6000
3000
1800
0C00
0600
0300
0188
00C8
0068
003C
019C
00FC
ENDCHAR
STARTCHAR 2199
ENCODING 8601
SWIDTH 1000 0
DWIDTH 20 0
BBX 14 14 3 0
BITMAP
0004
000C
0018
0030
0060
00C0
0180
0300
4600
4C00
5800
F000
E600
FC00
ENDCHAR
STARTCHAR 21C4
ENCODING 8644
SWIDTH 1000 0
DWIDTH 20 0
BBX 18 15 1 0
BITMAP
000C00
000600
000380
FFFFC0
000380
000600
000C00
000000
0C0000
180000
700000
FFFFC0
700000
180000
0C0000
ENDCHAR
STARTCHAR 21D2
ENCODING 8658
SWIDTH 750 0
DWIDTH 15 0
BBX 13 9 1 2
BITMAP
0080
0040
FFE0
0010
0018
0010
FFE0
0040
0080
ENDCHAR
STARTCHAR 21D4
ENCODING 8660
SWIDTH 750 0
DWIDTH 15 0
BBX 12 8 1 2
BITMAP
18C0
3040
7FE0
C010
C010
7FE0
3040
18C0
ENDCHAR
STARTCHAR 21E6
ENCODING 8678
SWIDTH 1000 0
DWIDTH 20 0
BBX 17 7 1 4
BITMAP
040000
1C0000
27FF80
C00080
27FF80
1C0000
040000
ENDCHAR
STARTCHAR 21E7
ENCODING 8679
SWIDTH 1000 0
DWIDTH 20 0
BBX 6 17 7 0
BITMAP
30
30
48
88
FC
30
30
30
30
30
30
30
30
30
30
30
30
ENDCHAR
STARTCHAR 21E8
ENCODING 8680
SWIDTH 1000 0
DWIDTH 20 0
BBX 17 7 2 4
BITMAP
001000
001C00
FFF200
800180
FFF200
001C00
001000
ENDCHAR
STARTCHAR 21E9
ENCODING 8681
SWIDTH 1000 0
DWIDTH 20 0
BBX 6 17 7 -2
BITMAP
30
30
30
30
30
30
30
30
30
30
30
FC
88
48
50
30
20
ENDCHAR
STARTCHAR 2200
ENCODING 8704
SWIDTH 750 0
DWIDTH 15 0
BBX 13 15 1 -1
BITMAP
8008
8008
C010
4010
6030
3FE0
3060
1040
18C0
0880
0980
0500
0500
0600
0200
ENDCHAR
STARTCHAR 2202
ENCODING 8706
SWIDTH 600 0
DWIDTH 12 0
BBX 9 15 1 0
BITMAP
1E00
3F00
0100
0180
0080
0080
1E80
6380
4180
C180
C100
C300
E300
7E00
3C00
ENDCHAR
STARTCHAR 2203
ENCODING 8707
SWIDTH 750 0
DWIDTH 15 0
BBX 10 14 2 0
BITMAP
FFC0
0040
0040
0040
0040
0040
FFC0
0040
0040
0040
0040
0040
0040
FFC0
ENDCHAR
STARTCHAR 2205
ENCODING 8709
SWIDTH 800 0
DWIDTH 16 0
BBX 13 13 1 2
BITMAP
0FC8
3070
6030
4058
8088
8108
8208
8408
C808
5010
2030
5860
0F80
ENDCHAR
STARTCHAR 2207
ENCODING 8711
SWIDTH 750 0
DWIDTH 15 0
BBX 13 14 1 -1
BITMAP
FFF8
C010
6010
6030
3020
3060
1840
18C0
0880
0D80
0D00
0700
0600
0200
ENDCHAR
STARTCHAR 2208
ENCODING 8712
SWIDTH 700 0
DWIDTH 14 0
BBX 11 10 1 1
BITMAP
1FE0
6000
4000
C000
FFE0
8000
C000
4000
6000
1FE0
ENDCHAR
STARTCHAR 2209
ENCODING 8713
SWIDTH 700 0
DWIDTH 14 0
BBX 11 13 1 -1
BITMAP
0080
0080
1FE0
6100
4300
C200
FFE0
8400
C400
4C00
6800
1FE0
1000
ENDCHAR
STARTCHAR 220B
ENCODING 8715
SWIDTH 700 0
DWIDTH 14 0
BBX 11 10 1 1
BITMAP
FF00
00C0
0040
0020
FFE0
0020
0020
0040
00C0
FF80
ENDCHAR
STARTCHAR 2212
ENCODING 8722
SWIDTH 700 0
DWIDTH 14 0
BBX 11 1 1 6
BITMAP
FFE0
ENDCHAR
STARTCHAR 2213
ENCODING 8723
SWIDTH 700 0
DWIDTH 14 0
BBX 11 11 1 0
BITMAP
FFE0
0000
0400
0400
0400
0400
FFE0
0400
0400
0400
0400
ENDCHAR
STARTCHAR 2219
ENCODING 8729
SWIDTH 250 0
DWIDTH 5 0
BBX 2 2 2 5
BITMAP
C0
C0
ENDCHAR
STARTCHAR 221A
ENCODING 8730
SWIDTH 600 0
DWIDTH 12 0
BBX 12 19 1 -2
BITMAP
0030
0020
0020
0060
0040
0040
00C0
0080
0080
2180
2100
2100
7200
5200
DE00
8C00
8C00
0C00
0800
ENDCHAR
STARTCHAR 221D
ENCODING 8733
SWIDTH 700 0
DWIDTH 14 0
BBX 10 7 2 3
BITMAP
01C0
7A00
CE00
8400
8600
CB00
71C0
ENDCHAR
STARTCHAR 221E
ENCODING 8734
SWIDTH 700 0
DWIDTH 14 0
BBX 12 6 1 3
BITMAP
79E0
CE30
8410
8610
CB30
71E0
ENDCHAR
STARTCHAR 221F
ENCODING 8735
SWIDTH 700 0
DWIDTH 14 0
BBX 10 12 2 2
BITMAP
8000
8000
8000
8000
8000
8000
8000
8000
8000
8000
8000
FFC0
ENDCHAR
STARTCHAR 2220
ENCODING 8736
SWIDTH 700 0
DWIDTH 14 0
BBX 12 12 1 2
BITMAP
0200
0600
0400
0C00
0800
1800
1000
3000
2000
4000
C000
FFF0
ENDCHAR
STARTCHAR 2225
ENCODING 8741
SWIDTH 700 0
DWIDTH 14 0
BBX 11 17 1 -1
BITMAP
0220
0260
0640
0440
04C0
0C80
0880
0980
1900
1100
3300
3200
2600
6600
4400
4C00
C800
ENDCHAR
STARTCHAR 2226
ENCODING 8742
SWIDTH 700 0
DWIDTH 14 0
BBX 11 17 1 -1
BITMAP
0320
0260
0640
0440
C4C0
6C80
3880
1D80
1F00
1300
1380
32C0
2220
6600
6400
4C00
CC00
ENDCHAR
STARTCHAR 2227
ENCODING 8743
SWIDTH 700 0
DWIDTH 14 0
BBX 11 11 1 0
BITMAP
0400
0600
0A00
0900
1900
1180
3080
20C0
6040
4060
C020
ENDCHAR
STARTCHAR 2228
ENCODING 8744
SWIDTH 700 0
DWIDTH 14 0
BBX 10 11 2 0
BITMAP
8040
8040
8080
4080
4100
2100
2200
1200
1600
0C00
0C00
ENDCHAR
STARTCHAR 2229
ENCODING 8745
SWIDTH 700 0
DWIDTH 14 0
BBX 10 12 2 0
BITMAP
1E00
6180
4080
8040
8040
8040
8040
8040
8040
8040
8040
8040
ENDCHAR
STARTCHAR 222A
ENCODING 8746
SWIDTH 700 0
DWIDTH 14 0
BBX 10 12 2 1
BITMAP
8040
8040
8040
8040
8040
8040
8040
8040
8040
4080
6180
1E00
ENDCHAR
STARTCHAR 222B
ENCODING 8747
SWIDTH 550 0
DWIDTH 11 0
BBX 10 18 1 -4
BITMAP
0380
0480
04C0
0400
0C00
0C00
0C00
0800
0800
0800
0800
0800
0800
0800
0800
9800
9000
7000
ENDCHAR
STARTCHAR 222C
ENCODING 8748
SWIDTH 900 0
DWIDTH 18 0
BBX 16 18 1 -4
BITMAP
038E
0489
04D9
0418
0C18
0C10
0C10
0810
0810
0810
0810
0810
0810
0830
0830
9920
9120
70C0
ENDCHAR
STARTCHAR 222E
ENCODING 8750
SWIDTH 550 0
DWIDTH 11 0
BBX 10 18 1 -4
BITMAP
0380
0480
04C0
0C00
0C00
0C00
1E00
2900
2900
2900
2B00
1C00
0800
0800
1800
9800
9000
7000
ENDCHAR
STARTCHAR 2234
ENCODING 8756
SWIDTH 700 0
DWIDTH 14 0
BBX 12 11 1 1
BITMAP
0E00
0E00
0E00
0000
0000
0000
0000
0000
E070
E070
E070
ENDCHAR
STARTCHAR 2235
ENCODING 8757
SWIDTH 700 0
DWIDTH 14 0
BBX 12 11 1 1
BITMAP
E070
E070
E070
0000
0000
0000
0000
0000
0E00
0E00
0E00
ENDCHAR
STARTCHAR 223C
ENCODING 8764
SWIDTH 500 0
DWIDTH 10 0
BBX 6 2 2 11
BITMAP
E4
9C
ENDCHAR
STARTCHAR 223D
ENCODING 8765
SWIDTH 700 0
DWIDTH 14 0
BBX 12 6 1 4
BITMAP
71E0
C330
8210
8410
CC30
78E0
ENDCHAR
STARTCHAR 2243
ENCODING 8771
SWIDTH 700 0
DWIDTH 14 0
BBX 11 6 1 3
BITMAP
3800
4620
81C0
0000
0000
FFE0
ENDCHAR
STARTCHAR 2245
ENCODING 8773
SWIDTH 700 0
DWIDTH 14 0
BBX 11 8 1 2
BITMAP
7820
4620
01C0
0000
FFE0
0000
0000
FFE0
ENDCHAR
STARTCHAR 2248
ENCODING 8776
SWIDTH 700 0
DWIDTH 14 0
BBX 11 6 1 3
BITMAP
7C20
C3C0
0000
7800
4620
81C0
ENDCHAR
STARTCHAR 2252
ENCODING 8786
SWIDTH 700 0
DWIDTH 14 0
BBX 11 13 1 0
BITMAP
7000
7000
7000
0000
FFE0
0000
0000
0000
FFE0
0000
00E0
00E0
00E0
ENDCHAR
STARTCHAR 2260
ENCODING 8800
SWIDTH 700 0
DWIDTH 14 0
BBX 11 13 1 0
BITMAP
0100
0100
0100
0200
FFE0
0600
0400
0400
FFE0
0800
0800
0800
1000
ENDCHAR
STARTCHAR 2261
ENCODING 8801
SWIDTH 700 0
DWIDTH 14 0
BBX 11 7 1 3
BITMAP
FFE0
0000
0000
FFE0
0000
0000
FFE0
ENDCHAR
STARTCHAR 2262
ENCODING 8802
SWIDTH 700 0
DWIDTH 14 0
BBX 11 12 1 1
BITMAP
0100
0100
FFE0
0200
0200
FFE0
0400
0C00
FFE0
0800
1800
1000
ENDCHAR
STARTCHAR 2266
ENCODING 8806
SWIDTH 700 0
DWIDTH 14 0
BBX 11 13 1 0
BITMAP
0020
01E0
0E00
7000
E000
1C00
03C0
0060
0000
FFE0
0000
0000
FFE0
ENDCHAR
STARTCHAR 2267
ENCODING 8807
SWIDTH 700 0
DWIDTH 14 0
BBX 11 13 1 0
BITMAP
8000
7000
0F00
00E0
0060
0780
3C00
C000
0000
FFE0
0000
0000
FFE0
ENDCHAR
STARTCHAR 226A
ENCODING 8810
SWIDTH 700 0
DWIDTH 14 0
BBX 11 11 1 0
BITMAP
0220
0660
08C0
3300
6600
CC00
4600
3300
1980
0460
0220
ENDCHAR
STARTCHAR 226B
ENCODING 8811
SWIDTH 700 0
DWIDTH 14 0
BBX 12 11 1 0
BITMAP
8800
6600
3300
1980
0460
0230
0660
0CC0
3300
6600
CC00
ENDCHAR
STARTCHAR 2276
ENCODING 8822
SWIDTH 700 0
DWIDTH 14 0
BBX 12 13 1 1
BITMAP
00F0
0F00
7000
E000
1E00
01E0
F020
1E00
01C0
0060
0780
7800
C000
ENDCHAR
STARTCHAR 2277
ENCODING 8823
SWIDTH 700 0
DWIDTH 14 0
BBX 12 13 1 1
BITMAP
F000
1E00
01E0
00E0
0700
7800
80F0
0700
7800
E000
1E00
03C0
0020
ENDCHAR
STARTCHAR 2282
ENCODING 8834
SWIDTH 700 0
DWIDTH 14 0
BBX 11 10 1 1
BITMAP
1FE0
6000
4000
8000
8000
8000
8000
4000
6000
1FE0
ENDCHAR
STARTCHAR 2283
ENCODING 8835
SWIDTH 700 0
DWIDTH 14 0
BBX 11 10 1 1
BITMAP
FF00
00C0
0040
0020
0020
0020
0020
0040
00C0
FF80
ENDCHAR
STARTCHAR 2284
ENCODING 8836
SWIDTH 700 0
DWIDTH 14 0
BBX 11 12 1 0
BITMAP
00C0
1FE0
6180
4100
8100
8300
8200
8200
4400
6400
1FE0
0800
ENDCHAR
STARTCHAR 2285
ENCODING 8837
SWIDTH 700 0
DWIDTH 14 0
BBX 11 12 1 0
BITMAP
0300
FF80
02C0
0460
0420
0C20
0820
0820
1060
10C0
FF80
2000
ENDCHAR
STARTCHAR 2286
ENCODING 8838
SWIDTH 700 0
DWIDTH 14 0
BBX 11 12 1 1
BITMAP
3FE0
6000
C000
8000
8000
8000
8000
6000
3FE0
0000
0000
FFE0
ENDCHAR
STARTCHAR 2287
ENCODING 8839
SWIDTH 700 0
DWIDTH 14 0
BBX 11 12 1 1
BITMAP
FF80
0040
0020
0020
0020
0020
0020
0040
FF80
0000
0000
FFE0
ENDCHAR
STARTCHAR 228A
ENCODING 8842
SWIDTH 700 0
DWIDTH 14 0
BBX 11 13 1 -1
BITMAP
3FE0
6000
C000
8000
8000
8000
8000
6000
3FE0
0000
0200
FFE0
0400
ENDCHAR
STARTCHAR 228B
ENCODING 8843
SWIDTH 700 0
DWIDTH 14 0
BBX 11 13 1 -1
BITMAP
FF80
0040
0020
0020
0020
0020
0020
0040
FF80
0000
0200
FFE0
0400
ENDCHAR
STARTCHAR 2295
ENCODING 8853
SWIDTH 850 0
DWIDTH 17 0
BBX 15 14 1 0
BITMAP
07C0
1830
2108
4104
4106
8102
BFFA
8102
8102
C104
4104
2108
1830
07C0
ENDCHAR
STARTCHAR 2296
ENCODING 8854
SWIDTH 850 0
DWIDTH 17 0
BBX 15 14 1 0
BITMAP
07C0
1830
2008
4004
4006
8002
BFFA
8002
8002
C004
4004
2008
1830
07C0
ENDCHAR
STARTCHAR 2297
ENCODING 8855
SWIDTH 850 0
DWIDTH 17 0
BBX 15 14 1 0
BITMAP
07C0
1830
2008
5834
4C66
86C2
8382
8382
86C2
CC64
5834
2008
1830
07C0
ENDCHAR
STARTCHAR 22A5
ENCODING 8869
SWIDTH 700 0
DWIDTH 14 0
BBX 11 12 1 2
BITMAP
0400
0400
0400
0400
0400
0400
0400
0400
0400
0400
0400
FFE0
ENDCHAR
STARTCHAR 22BF
ENCODING 8895
SWIDTH 700 0
DWIDTH 14 0
BBX 12 12 1 2
BITMAP
0010
0030
0070
00D0
0190
0310
0610
0C10
1810
3010
6010
FFF0
ENDCHAR
STARTCHAR 22DA
ENCODING 8922
SWIDTH 700 0
DWIDTH 14 0
BBX 11 14 1 -1
BITMAP
0020
0FC0
F000
7C00
03E0
0000
FFE0
0000
E000
3F00
01E0
01E0
3E00
E000
ENDCHAR
STARTCHAR 22DB
ENCODING 8923
SWIDTH 700 0
DWIDTH 14 0
BBX 11 14 1 -1
BITMAP
C000
3E00
01E0
07C0
F800
0000
FFE0
0000
00E0
0F80
F000
F800
0FC0
0060
ENDCHAR
STARTCHAR 2305
ENCODING 8965
SWIDTH 700 0
DWIDTH 14 0
BBX 11 9 1 1
BITMAP
FFE0
0600
0E00
0B00
1900
1180
1080
2080
2000
ENDCHAR
STARTCHAR 2306
ENCODING 8966
SWIDTH 700 0
DWIDTH 14 0
BBX 11 12 1 0
BITMAP
FFE0
0000
0000
FFE0
0600
0E00
0B00
1900
1180
1080
2080
20C0
ENDCHAR
STARTCHAR 2312
ENCODING 8978
SWIDTH 1000 0
DWIDTH 20 0
BBX 18 4 1 12
BITMAP
07F800
380700
600180
800040
ENDCHAR
STARTCHAR 2318
ENCODING 8984
SWIDTH 1000 0
DWIDTH 20 0
BBX 18 19 1 -2
BITMAP
780780
CC0CC0
840840
840840
C408C0
7FFF80
040800
040800
040800
040800
040800
040800
040800
7FFF80
C408C0
840840
840840
CC0C80
780700
ENDCHAR
STARTCHAR 23BE
ENCODING 9150
SWIDTH 1000 0
DWIDTH 20 0
BBX 11 20 10 -3
BITMAP
FFE0
8000
8000
8000
8000
8000
8000
8000
8000
8000
8000
8000
8000
8000
8000
8000
8000
8000
8000
8000
ENDCHAR
STARTCHAR 23BF
ENCODING 9151
SWIDTH 1000 0
DWIDTH 20 0
BBX 11 20 10 -1
BITMAP
8000
8000
8000
8000
8000
8000
8000
8000
8000
8000
8000
8000
8000
8000
8000
8000
8000
8000
8000
FFE0
ENDCHAR
STARTCHAR 23C0
ENCODING 9152
SWIDTH 1000 0
DWIDTH 20 0
BBX 15 20 3 -3
BITMAP
0100
0100
0100
0FE0
1110
2108
4104
4104
8102
8102
8102
8102
8102
4104
4104
2108
1110
0FE0
0100
0100
ENDCHAR
STARTCHAR 23C1
ENCODING 9153
SWIDTH 1000 0
DWIDTH 20 0
BBX 21 20 0 -3
BITMAP
FFFFF8
002000
002000
01FC00
062300
0C2100
082080
102040
102040
102040
102040
102040
102040
082080
082080
042100
032600
00F800
002000
002000
ENDCHAR
STARTCHAR 23C2
ENCODING 9154
SWIDTH 1000 0
DWIDTH 20 0
BBX 21 20 0 -1
BITMAP
002000
002000
00F800
032600
042100
082080
082080
102040
102040
102040
102040
102040
182040
082080
042100
062200
01AC00
007000
002000
FFFFF8
ENDCHAR
STARTCHAR 23C3
ENCODING 9155
SWIDTH 1000 0
DWIDTH 20 0
BBX 17 20 2 -3
BITMAP
008000
008000
008000
008000
01C000
02A000
02A000
049000
049000
088800
108800
108400
208200
208200
408100
808100
FFFF80
008000
008000
008000
ENDCHAR
STARTCHAR 23C4
ENCODING 9156
SWIDTH 1000 0
DWIDTH 20 0
BBX 21 20 0 -3
BITMAP
FFFFF8
002000
002000
002000
007000
00B000
00A800
012400
012400
022200
042200
042100
082080
082080
102040
102040
3FFFE0
002000
002000
002000
ENDCHAR
STARTCHAR 23C5
ENCODING 9157
SWIDTH 1000 0
DWIDTH 20 0
BBX 21 20 0 -2
BITMAP
002000
002000
002000
002000
007000
00A800
00A800
012400
012400
022200
042200
042100
082080
082080
102040
202040
3FFFE0
002000
002000
FFFFF8
ENDCHAR
STARTCHAR 23C6
ENCODING 9158
SWIDTH 1000 0
DWIDTH 20 0
BBX 17 20 2 -3
BITMAP
008000
008000
008000
008000
008000
008000
008000
008000
7C8000
838000
008000
00E080
009F00
008000
008000
008000
008000
008000
008000
008000
ENDCHAR
STARTCHAR 23C7
ENCODING 9159
SWIDTH 1000 0
DWIDTH 20 0
BBX 21 20 0 -3
BITMAP
FFFFF8
002000
002000
002000
002000
002000
002000
002000
1F2000
20E000
003000
002C20
0027C0
002000
002000
002000
002000
002000
002000
002000
ENDCHAR
STARTCHAR 23C8
ENCODING 9160
SWIDTH 1000 0
DWIDTH 20 0
BBX 21 20 0 -1
BITMAP
002000
002000
002000
002000
002000
002000
002000
1F2000
21A000
006000
003820
0027C0
002000
002000
002000
002000
002000
002000
002000
FFFFF8
ENDCHAR
STARTCHAR 23C9
ENCODING 9161
SWIDTH 1000 0
DWIDTH 20 0
BBX 21 20 0 -3
BITMAP
FFFFF8
002000
002000
002000
002000
002000
002000
002000
002000
002000
002000
002000
002000
002000
002000
002000
002000
002000
002000
002000
ENDCHAR
STARTCHAR 23CA
ENCODING 9162
SWIDTH 1000 0
DWIDTH 20 0
BBX 21 20 0 -1
BITMAP
002000
002000
002000
002000
002000
002000
002000
002000
002000
002000
002000
002000
002000
002000
002000
002000
002000
002000
002000
FFFFF8
ENDCHAR
STARTCHAR 23CB
ENCODING 9163
SWIDTH 1000 0
DWIDTH 20 0
BBX 11 20 -1 -3
BITMAP
FFE0
0020
0020
0020
0020
0020
0020
0020
0020
0020
0020
0020
0020
0020
0020
0020
0020
0020
0020
0020
ENDCHAR
STARTCHAR 23CC
ENCODING 9164
SWIDTH 1000 0
DWIDTH 20 0
BBX 11 20 -1 -1
BITMAP
0020
0020
0020
0020
0020
0020
0020
0020
0020
0020
0020
0020
0020
0020
0020
0020
0020
0020
0020
FFE0
ENDCHAR
STARTCHAR 23CE
ENCODING 9166
SWIDTH 1000 0
DWIDTH 20 0
BBX 17 17 1 -2
BITMAP
001F80
001080
001080
001080
001080
021080
061080
0A1080
13F080
200080
C00080
C00180
200100
13FE00
0A0000
060000
020000
ENDCHAR
STARTCHAR 2423
ENCODING 9251
SWIDTH 1000 0
DWIDTH 20 0
BBX 16 4 2 0
BITMAP
8001
8001
8001
FFFF
ENDCHAR
STARTCHAR 2460
ENCODING 9312
SWIDTH 1000 0
DWIDTH 20 0
BBX 19 19 0 -2
BITMAP
01F800
0E0E00
180300
306180
61E0C0
416040
C06060
806020
806020
806020
806020
806020
406040
406040
6060C0
306180
180300
0E0E00
03F800
ENDCHAR
STARTCHAR 2461
ENCODING 9313
SWIDTH 1000 0
DWIDTH 20 0
BBX 18 18 1 -1
BITMAP
03F000
0C0C00
100200
21E100
431080
460880
860840
800840
803040
807040
81C040
838040
430080
460080
27FD00
100200
0C0C00
03F000
ENDCHAR
STARTCHAR 2462
ENCODING 9314
SWIDTH 1000 0
DWIDTH 20 0
BBX 18 19 1 -2
BITMAP
03F000
0C0C00
180600
21E100
661180
460880
C00840
801840
81F040
81F040
800840
800440
CC04C0
460480
670980
21F100
180600
0C0C00
03F000
ENDCHAR
STARTCHAR 2463
ENCODING 9315
SWIDTH 1000 0
DWIDTH 20 0
BBX 19 18 0 -2
BITMAP
03F800
0E0E00
180300
207080
607040
40F040
81B020
833020
833020
863020
8C3020
8FFC20
403040
6030C0
203080
180300
0E0E00
03F800
ENDCHAR
STARTCHAR 2464
ENCODING 9316
SWIDTH 1000 0
DWIDTH 20 0
BBX 18 18 1 -1
BITMAP
03F000
0C0C00
300200
23F900
420080
460080
860040
87F040
870840
820440
800440
800440
460480
430880
21F100
100200
0C0C00
03F000
ENDCHAR
STARTCHAR 2465
ENCODING 9317
SWIDTH 1000 0
DWIDTH 20 0
BBX 18 19 1 -2
BITMAP
03F000
0C0C00
180600
20E100
611980
421880
C60040
840040
85E040
871040
860840
860840
C608C0
420880
631180
21E100
180600
0C0C00
03F000
ENDCHAR
STARTCHAR 2466
ENCODING 9318
SWIDTH 1000 0
DWIDTH 20 0
BBX 18 19 1 -2
BITMAP
03F000
0C0C00
180600
200100
67F980
401880
C01840
803040
803040
802040
806040
804040
C0C0C0
40C080
608180
218100
180600
0C0C00
03F000
ENDCHAR
STARTCHAR 2467
ENCODING 9319
SWIDTH 1000 0
DWIDTH 20 0
BBX 18 19 1 -2
BITMAP
03F000
0C0C00
180600
21E100
621180
440880
C40840
861840
83F040
821040
840840
880440
C804C0
480480
661980
23F100
180600
0C0C00
03F000
ENDCHAR
STARTCHAR 2468
ENCODING 9320
SWIDTH 1000 0
DWIDTH 20 0
BBX 18 19 1 -2
BITMAP
03F000
0C0C00
180600
21E100
621180
440880
C40C40
840C40
860C40
831C40
81EC40
800C40
C60CC0
461880
633180
21E100
180600
0C0C00
03F000
ENDCHAR
STARTCHAR 2469
ENCODING 9321
SWIDTH 1000 0
DWIDTH 20 0
BBX 20 19 0 -2
BITMAP
01F800
060600
180180
361CC0
6E2240
4E2220
C64120
864110
864110
864110
864110
864110
464120
462220
262240
361CC0
180180
060600
01F800
ENDCHAR
STARTCHAR 246A
ENCODING 9322
SWIDTH 1000 0
DWIDTH 20 0
BBX 18 19 1 -2
BITMAP
03F000
0C0C00
180600
261900
6E3980
4E3880
C61840
861840
861840
861840
861840
861840
C618C0
461880
661980
261900
180600
0C0C00
03F000
ENDCHAR
STARTCHAR 246B
ENCODING 9323
SWIDTH 1000 0
DWIDTH 20 0
BBX 20 18 0 -2
BITMAP
01F800
0E0600
180180
361CC0
6E2260
466120
866110
860310
860610
860E10
861810
863010
462020
666060
367FC0
180180
060600
01F800
ENDCHAR
STARTCHAR 246C
ENCODING 9324
SWIDTH 1000 0
DWIDTH 20 0
BBX 20 19 0 -2
BITMAP
01F800
060600
180180
363CC0
6E6240
4E6120
C60120
860110
861E10
861E10
860310
860110
464120
464120
266240
363CC0
180180
060600
01F800
ENDCHAR
STARTCHAR 246D
ENCODING 9325
SWIDTH 1000 0
DWIDTH 20 0
BBX 20 18 0 -1
BITMAP
01F800
0E0600
180180
3606C0
6E0E60
461E20
861610
863610
862610
866610
86C610
86FF90
460620
660660
3606C0
180180
060600
01F800
ENDCHAR
STARTCHAR 246E
ENCODING 9326
SWIDTH 1000 0
DWIDTH 20 0
BBX 20 18 0 -1
BITMAP
01F800
0E0600
180180
367EC0
6E6060
466020
866010
867C10
866210
860110
860110
860110
464120
666260
363CC0
180180
060600
01F800
ENDCHAR
STARTCHAR 246F
ENCODING 9327
SWIDTH 1000 0
DWIDTH 20 0
BBX 20 19 0 -2
BITMAP
01F800
060600
180180
361CC0
6E2240
4E2320
C66020
864010
865C10
866210
864110
864110
464120
464120
262240
361CC0
180180
060600
01F800
ENDCHAR
STARTCHAR 2470
ENCODING 9328
SWIDTH 1000 0
DWIDTH 20 0
BBX 19 18 0 -1
BITMAP
03F800
0E0E00
180300
267E80
6E0240
460640
860420
860C20
860C20
860820
861820
861820
461040
6610C0
263080
180300
0E0E00
03F800
ENDCHAR
STARTCHAR 2471
ENCODING 9329
SWIDTH 1000 0
DWIDTH 20 0
BBX 20 19 0 -2
BITMAP
01F800
060600
180180
363CC0
6E6240
4E4120
C64120
866310
863E10
864610
868310
868110
468120
468120
264240
363CC0
180180
060600
01F800
ENDCHAR
STARTCHAR 2472
ENCODING 9330
SWIDTH 1000 0
DWIDTH 20 0
BBX 20 19 0 -2
BITMAP
01F800
060600
180180
361CC0
6E2640
4E4320
C64120
864110
864110
862310
861F10
860310
460320
466220
262640
363CC0
180180
060600
01F800
ENDCHAR
STARTCHAR 2473
ENCODING 9331
SWIDTH 1000 0
DWIDTH 20 0
BBX 18 18 1 -1
BITMAP
03F000
0C0C00
100200
271D00
489480
58A280
98A240
81A240
812240
832240
862240
8C2240
482280
581480
3F9D00
100200
0C0C00
03F000
ENDCHAR
STARTCHAR 24D0
ENCODING 9424
SWIDTH 1000 0
DWIDTH 20 0
BBX 19 19 0 -2
BITMAP
01F800
060E00
180300
300180
6000C0
40F040
C11860
830820
801820
81F820
830820
821820
423840
41CC40
6000C0
300180
180300
0E0E00
03F800
ENDCHAR
STARTCHAR 24D1
ENCODING 9425
SWIDTH 1000 0
DWIDTH 20 0
BBX 19 19 1 -2
BITMAP
03F000
0E0C00
180300
330180
6300C0
430040
C37840
83C420
838220
830220
830220
830220
430640
438C40
6378C0
300180
180300
0E0E00
03F800
ENDCHAR
STARTCHAR 24D2
ENCODING 9426
SWIDTH 1000 0
DWIDTH 20 0
BBX 18 19 1 -2
BITMAP
03F000
0C0C00
180600
200100
600180
41E080
C23040
841840
840040
840040
840040
841840
C230C0
41E080
600180
200100
180600
0C0C00
03F000
ENDCHAR
STARTCHAR 24D3
ENCODING 9427
SWIDTH 1000 0
DWIDTH 20 0
BBX 19 19 0 -2
BITMAP
03F000
0E0C00
180300
301980
601880
401840
C3D840
847820
883820
881820
881820
881820
4C3840
447840
63D8C0
300180
180300
0E0E00
03F800
ENDCHAR
STARTCHAR 24D4
ENCODING 9428
SWIDTH 1000 0
DWIDTH 20 0
BBX 18 19 1 -2
BITMAP
03F000
0C0C00
180600
200100
600180
400080
C1E040
821040
861840
87F840
860040
861840
C310C0
41E080
600180
200100
180600
0C0C00
03F000
ENDCHAR
STARTCHAR 24D5
ENCODING 9429
SWIDTH 1000 0
DWIDTH 20 0
BBX 19 19 1 -2
BITMAP
03F000
0E0C00
180300
300180
6078C0
40C040
C0C040
80C020
83F820
80C020
80C020
80C020
C0C040
40C040
60C0C0
30C180
180300
0E0E00
03F800
ENDCHAR
STARTCHAR 24D6
ENCODING 9430
SWIDTH 1000 0
DWIDTH 20 0
BBX 19 19 1 -2
BITMAP
03F000
0E0E00
180300
300180
60E8C0
411840
C20840
820820
820820
831820
81E820
800820
430840
431040
61F0C0
300180
180300
0E0E00
03F800
ENDCHAR
STARTCHAR 24D7
ENCODING 9431
SWIDTH 1000 0
DWIDTH 20 0
BBX 19 19 1 -2
BITMAP
03F000
0E0C00
180300
330180
630080
430040
C30040
837020
839820
831820
831820
831820
431840
431840
6318C0
300180
180300
0E0E00
03F800
ENDCHAR
STARTCHAR 24D8
ENCODING 9432
SWIDTH 1000 0
DWIDTH 20 0
BBX 20 19 0 -2
BITMAP
01F800
060600
180180
3000C0
606040
400020
C00020
806010
806010
806010
806010
806010
406020
406020
206040
3000C0
180180
060600
01F800
ENDCHAR
STARTCHAR 24D9
ENCODING 9433
SWIDTH 1000 0
DWIDTH 20 0
BBX 19 19 1 -2
BITMAP
03F000
0E0C00
186300
306180
600080
400040
C06040
806020
806020
806020
806020
806020
406040
406040
6060C0
33E180
180300
0E0E00
03F800
ENDCHAR
STARTCHAR 24DA
ENCODING 9434
SWIDTH 1000 0
DWIDTH 20 0
BBX 19 19 1 -2
BITMAP
03F000
0E0C00
180300
330180
630080
430040
C30040
831820
833020
836020
83E020
83B020
431840
430840
630CC0
300180
180300
0E0E00
01F800
ENDCHAR
STARTCHAR 24DB
ENCODING 9435
SWIDTH 1000 0
DWIDTH 20 0
BBX 20 19 0 -2
BITMAP
01F800
060600
180180
3000C0
606040
406020
C06020
806010
806010
806010
806010
806010
406020
406020
206040
3000C0
180180
060600
01F800
ENDCHAR
STARTCHAR 24DC
ENCODING 9436
SWIDTH 1000 0
DWIDTH 20 0
BBX 18 19 1 -2
BITMAP
03F000
0C0C00
180600
200100
600180
4D9880
CEEC40
8CCC40
8CCC40
8CCC40
8CCC40
8CCC40
CCCCC0
400080
600180
200100
180600
0C0C00
03F000
ENDCHAR
STARTCHAR 24DD
ENCODING 9437
SWIDTH 1000 0
DWIDTH 20 0
BBX 20 19 0 -2
BITMAP
01F800
060600
180180
3000C0
600040
437820
C38C20
830C10
830C10
830C10
830C10
830C10
430C20
400020
200040
3000C0
180180
060600
01F800
ENDCHAR
STARTCHAR 24DE
ENCODING 9438
SWIDTH 1000 0
DWIDTH 20 0
BBX 18 19 1 -2
BITMAP
03F000
0C0C00
180600
200100
600180
41E080
C33040
861840
840840
840840
840840
840840
C210C0
41E080
600180
200100
180600
0C0C00
03F000
ENDCHAR
STARTCHAR 24DF
ENCODING 9439
SWIDTH 1000 0
DWIDTH 20 0
BBX 19 19 1 -2
BITMAP
03F000
0E0C00
180300
300180
6000C0
437840
C38440
830220
830220
830220
830220
838420
437840
430040
6300C0
300180
180300
0E0E00
03F800
ENDCHAR
STARTCHAR 24E0
ENCODING 9440
SWIDTH 1000 0
DWIDTH 20 0
BBX 19 19 0 -2
BITMAP
03F000
0E0C00
180300
300180
600080
43D840
C43840
881820
881820
881820
881820
843820
43D840
401840
6018C0
300180
180300
0E0E00
03F800
ENDCHAR
STARTCHAR 24E1
ENCODING 9441
SWIDTH 1000 0
DWIDTH 20 0
BBX 20 19 0 -2
BITMAP
01F800
060600
180180
3000C0
600040
400020
C0DC20
80F010
80E010
80C010
80C010
80C010
40C020
40C020
200040
3000C0
180180
060600
01F800
ENDCHAR
STARTCHAR 24E2
ENCODING 9442
SWIDTH 1000 0
DWIDTH 20 0
BBX 18 19 1 -2
BITMAP
03F000
0C0C00
180600
200100
600180
41E080
C23040
821040
838040
80E040
803040
821040
C310C0
41E080
600180
200100
180600
0C0C00
03F000
ENDCHAR
STARTCHAR 24E3
ENCODING 9443
SWIDTH 1000 0
DWIDTH 20 0
BBX 19 19 1 -2
BITMAP
01F000
060E00
180300
300180
2000C0
40C040
40C040
83F020
80C020
80C020
80C020
80C020
C0C040
40C040
60F0C0
300180
180300
0E0E00
03F800
ENDCHAR
STARTCHAR 24E4
ENCODING 9444
SWIDTH 1000 0
DWIDTH 20 0
BBX 20 19 0 -2
BITMAP
01F800
060600
180180
3000C0
600040
430C20
C30C20
830C10
830C10
830C10
830C10
830C10
439C20
41E020
200040
3000C0
180180
060600
01F800
ENDCHAR
STARTCHAR 24E5
ENCODING 9445
SWIDTH 1000 0
DWIDTH 20 0
BBX 18 19 1 -2
BITMAP
03F000
0C0C00
180600
200100
600180
400080
C40840
861840
821040
833040
812040
81E040
C0C0C0
40C080
600180
200100
180600
0C0C00
03F000
ENDCHAR
STARTCHAR 24E6
ENCODING 9446
SWIDTH 1000 0
DWIDTH 20 0
BBX 18 19 1 -2
BITMAP
03F000
0C0C00
180600
200100
600180
400080
D8C640
98C640
89E440
892C40
8D2C40
852840
C738C0
461080
600180
200100
180600
0C0C00
03F000
ENDCHAR
STARTCHAR 24E7
ENCODING 9447
SWIDTH 1000 0
DWIDTH 20 0
BBX 18 18 1 -1
BITMAP
03F000
1C0C00
300200
200100
400080
461880
833040
81E040
80C040
81E040
812040
833040
461880
400080
200100
100200
0C0C00
03F000
ENDCHAR
STARTCHAR 24E8
ENCODING 9448
SWIDTH 1000 0
DWIDTH 20 0
BBX 18 19 1 -2
BITMAP
03F000
0C0C00
180600
200100
600180
460880
C21840
831040
813040
81B040
80A040
80E040
C040C0
40C080
678180
200100
180600
0C0C00
03F000
ENDCHAR
STARTCHAR 24E9
ENCODING 9449
SWIDTH 1000 0
DWIDTH 20 0
BBX 18 18 1 -1
BITMAP
03F000
1C0C00
300200
200100
400080
43F080
803040
806040
80C040
818040
810040
820040
47F880
400080
200100
100200
0C0C00
03F000
ENDCHAR
STARTCHAR 24EB
ENCODING 9451
SWIDTH 1000 0
DWIDTH 20 0
BBX 19 19 1 -2
BITMAP
03F800
0FFE00
1FFF00
3BF380
73E3C0
73E3C0
FBF3E0
FBF3E0
FBF3E0
FBF3E0
FBF3E0
FBF3E0
7BF3C0
7BF3C0
7BF3C0
3BF380
1FFF00
0FFE00
03F800
ENDCHAR
STARTCHAR 24EC
ENCODING 9452
SWIDTH 1000 0
DWIDTH 20 0
BBX 20 19 0 -2
BITMAP
01F800
07FE00
1FFF80
39E1C0
71CCC0
79DEE0
F99EE0
F9FEF0
F9FDF0
F9F9F0
F9F3F0
F9E7F0
79CFE0
79DFE0
3980C0
3980C0
1FFF80
07FE00
01F800
ENDCHAR
STARTCHAR 24ED
ENCODING 9453
SWIDTH 1000 0
DWIDTH 20 0
BBX 20 19 0 -2
BITMAP
01F800
07FE00
1FFF80
39E3C0
31DDC0
719CE0
F9FCE0
F9FCF0
F9E1F0
F9E1F0
F9FEF0
F9FEF0
799EE0
799CE0
39C0C0
39E1C0
1FFF80
07FE00
01F800
ENDCHAR
STARTCHAR 24EE
ENCODING 9454
SWIDTH 1000 0
DWIDTH 20 0
BBX 20 19 0 -2
BITMAP
01F800
07FE00
1FFF80
39F9C0
71F1C0
79E1E0
F9E9E0
F9C9F0
F9D9F0
F999F0
F9B9F0
F90070
790060
79F9E0
39F9C0
39F9C0
1FFF80
07FE00
01F800
ENDCHAR
STARTCHAR 24EF
ENCODING 9455
SWIDTH 1000 0
DWIDTH 20 0
BBX 20 19 0 -2
BITMAP
01F800
07FE00
1FFF80
39C1C0
71C1C0
71DFE0
F9DFE0
F9DFF0
F9C1F0
F9DDF0
F9FEF0
F9FEF0
79FEE0
799EE0
39DDC0
39E3C0
1FFF80
07FE00
01F800
ENDCHAR
STARTCHAR 24F0
ENCODING 9456
SWIDTH 1000 0
DWIDTH 20 0
BBX 20 19 0 -2
BITMAP
01F800
07FE00
1FFF80
39E1C0
31CCC0
71DCE0
F99FE0
F99FF0
F9A1F0
F98DF0
F99EF0
F99EF0
799EE0
798CE0
39C1C0
39E3C0
1FFF80
07FE00
01F800
ENDCHAR
STARTCHAR 24F1
ENCODING 9457
SWIDTH 1000 0
DWIDTH 20 0
BBX 20 19 0 -2
BITMAP
01F800
0FFE00
1FFF80
3980C0
7180C0
71FCE0
F9FDE0
F9F9F0
F9FBF0
F9FBF0
F9F3F0
F9F7F0
79F7E0
79E7E0
39E7C0
39EFC0
1FFF80
07FE00
01F800
ENDCHAR
STARTCHAR 24F2
ENCODING 9458
SWIDTH 1000 0
DWIDTH 20 0
BBX 20 19 0 -2
BITMAP
01F800
07FE00
1FFF80
39E3C0
31CDC0
719EE0
F99EE0
F98CF0
F9C1F0
F9C1F0
F99CF0
F9BEF0
79BEE0
799CE0
39C1C0
39E3C0
1FFF80
07FE00
01F800
ENDCHAR
STARTCHAR 24F3
ENCODING 9459
SWIDTH 1000 0
DWIDTH 20 0
BBX 20 19 0 -2
BITMAP
01F800
07FE00
1FFF80
39E3C0
31CDC0
719EE0
F99EE0
F99EF0
F99EF0
F9CCF0
F9E2F0
F9FEF0
79FCE0
79DDE0
39C1C0
39E3C0
1FFF80
07FE00
01F800
ENDCHAR
STARTCHAR 24F4
ENCODING 9460
SWIDTH 1000 0
DWIDTH 20 0
BBX 18 18 1 -1
BITMAP
03F000
0FFC00
1FFE00
30F100
666980
6E5C80
EE5CC0
FE5CC0
FCDCC0
F9DCC0
F3DCC0
F3DCC0
67DC80
67E980
206100
1FFE00
0FFC00
03F000
ENDCHAR
STARTCHAR 24F5
ENCODING 9461
SWIDTH 1000 0
DWIDTH 20 0
BBX 20 19 0 -2
BITMAP
01F800
060600
19F900
360680
6C6340
59E1A0
D160A0
A06050
A06050
A06050
A06050
A06050
9060A0
5861A0
4C6340
260680
19F900
060600
01F800
ENDCHAR
STARTCHAR 24F6
ENCODING 9462
SWIDTH 1000 0
DWIDTH 20 0
BBX 18 19 1 -2
BITMAP
03F000
0C0C00
13F600
2C0D00
59E780
731B80
A20940
C008C0
C018C0
C070C0
C1C0C0
C300C0
A20140
77FB80
580680
2C0D00
13F200
0C0C00
03F000
ENDCHAR
STARTCHAR 24F7
ENCODING 9463
SWIDTH 1000 0
DWIDTH 20 0
BBX 18 19 1 -2
BITMAP
03F000
0C0C00
1BF600
2C0D00
79E780
731B80
E609C0
C008C0
C030C0
C1E0C0
C018C0
C008C0
A60940
721B80
59E680
2C0D00
13F200
0C0C00
03F000
ENDCHAR
STARTCHAR 24F8
ENCODING 9464
SWIDTH 1000 0
DWIDTH 20 0
BBX 18 19 1 -2
BITMAP
03F000
0DFC00
1E0F00
2C0700
786380
506180
A0A0C0
A1A0C0
A320C0
A220C0
A420C0
AFF8C0
902140
582380
4C2680
260D00
11F200
0C0C00
03F000
ENDCHAR
STARTCHAR 24F9
ENCODING 9465
SWIDTH 1000 0
DWIDTH 20 0
BBX 18 19 1 -2
BITMAP
03F000
0FFC00
1C0F00
380700
73F380
620180
C200C0
C2E0C0
C310C0
C208C0
C008C0
C008C0
A20940
731380
59E680
2C0D00
13F200
0C0C00
03F000
ENDCHAR
STARTCHAR 24FA
ENCODING 9466
SWIDTH 1000 0
DWIDTH 20 0
BBX 18 19 1 -2
BITMAP
03F000
0C0C00
1BF600
2C0D00
79E780
731380
E219C0
C600C0
C6E0C0
C710C0
C408C0
C408C0
A60940
731380
59E680
2C0D00
13F200
0C0C00
03F000
ENDCHAR
STARTCHAR 24FB
ENCODING 9467
SWIDTH 1000 0
DWIDTH 20 0
BBX 18 19 1 -2
BITMAP
03F000
0C0C00
1BF600
2C0D00
780780
73FB80
E011C0
C030C0
C020C0
C060C0
C060C0
C040C0
A0C140
70C380
588680
2C0D00
13F200
0C0C00
03F000
ENDCHAR
STARTCHAR 24FC
ENCODING 9468
SWIDTH 1000 0
DWIDTH 20 0
BBX 18 19 1 -2
BITMAP
03F000
0C0C00
1BF600
2C0D00
79E780
763B80
E409C0
C408C0
C230C0
C1E0C0
C618C0
C408C0
A40940
761B80
59E680
2C0D00
13F200
0C0C00
03F000
ENDCHAR
STARTCHAR 24FD
ENCODING 9469
SWIDTH 1000 0
DWIDTH 20 0
BBX 18 19 1 -2
BITMAP
03F000
0C0C00
1BF600
2C0D00
78E780
711380
E209C0
C208C0
C208C0
C318C0
C1E8C0
C018C0
A21140
733380
59E680
2C0D00
13F200
0C0C00
03F000
ENDCHAR
STARTCHAR 24FE
ENCODING 9470
SWIDTH 1000 0
DWIDTH 20 0
BBX 19 19 0 -2
BITMAP
03F000
0E0C00
19F200
360D00
687280
564940
D68540
A284A0
A284A0
A284A0
A284A0
A284A0
928540
524940
4A7A80
260D80
11F300
0C0C00
03F000
ENDCHAR
STARTCHAR 2500
ENCODING 9472
SWIDTH 1000 0
DWIDTH 20 0
BBX 20 1 0 7
BITMAP
FFFFF0
ENDCHAR
STARTCHAR 2501
ENCODING 9473
SWIDTH 1000 0
DWIDTH 20 0
BBX 20 2 0 7
BITMAP
FFFFF0
FFFFF0
ENDCHAR
STARTCHAR 2502
ENCODING 9474
SWIDTH 1000 0
DWIDTH 20 0
BBX 1 20 10 -3
BITMAP
80
80
80
80
80
80
80
80
80
80
80
80
80
80
80
80
80
80
80
80
ENDCHAR
STARTCHAR 2503
ENCODING 9475
SWIDTH 1000 0
DWIDTH 20 0
BBX 2 20 9 -2
BITMAP
C0
C0
C0
C0
C0
C0
C0
C0
C0
C0
C0
C0
C0
C0
C0
C0
C0
C0
C0
C0
ENDCHAR
STARTCHAR 250C
ENCODING 9484
SWIDTH 1000 0
DWIDTH 20 0
BBX 11 11 10 -3
BITMAP
FFE0
8000
8000
8000
8000
8000
8000
8000
8000
8000
8000
ENDCHAR
STARTCHAR 250F
ENCODING 9487
SWIDTH 1000 0
DWIDTH 20 0
BBX 11 11 9 -2
BITMAP
FFE0
FFE0
C000
C000
C000
C000
C000
C000
C000
C000
C000
ENDCHAR
STARTCHAR 2510
ENCODING 9488
SWIDTH 1000 0
DWIDTH 20 0
BBX 11 11 -1 -3
BITMAP
FFE0
0020
0020
0020
0020
0020
0020
0020
0020
0020
0020
ENDCHAR
STARTCHAR 2513
ENCODING 9491
SWIDTH 1000 0
DWIDTH 20 0
BBX 11 11 0 -2
BITMAP
FFE0
FFE0
0060
0060
0060
0060
0060
0060
0060
0060
0060
ENDCHAR
STARTCHAR 2514
ENCODING 9492
SWIDTH 1000 0
DWIDTH 20 0
BBX 11 11 10 7
BITMAP
8000
8000
8000
8000
8000
8000
8000
8000
8000
8000
FFE0
ENDCHAR
STARTCHAR 2517
ENCODING 9495
SWIDTH 1000 0
DWIDTH 20 0
BBX 11 11 9 7
BITMAP
C000
C000
C000
C000
C000
C000
C000
C000
C000
FFE0
FFE0
ENDCHAR
STARTCHAR 2518
ENCODING 9496
SWIDTH 1000 0
DWIDTH 20 0
BBX 11 11 -1 7
BITMAP
0020
0020
0020
0020
0020
0020
0020
0020
0020
0020
FFE0
ENDCHAR
STARTCHAR 251B
ENCODING 9499
SWIDTH 1000 0
DWIDTH 20 0
BBX 11 11 0 7
BITMAP
0060
0060
0060
0060
0060
0060
0060
0060
0060
FFE0
FFE0
ENDCHAR
STARTCHAR 251C
ENCODING 9500
SWIDTH 1000 0
DWIDTH 20 0
BBX 11 21 10 -3
BITMAP
8000
8000
8000
8000
8000
8000
8000
8000
8000
8000
FFE0
8000
8000
8000
8000
8000
8000
8000
8000
8000
8000
ENDCHAR
STARTCHAR 251D
ENCODING 9501
SWIDTH 1000 0
DWIDTH 20 0
BBX 10 20 10 -2
BITMAP
8000
8000
8000
8000
8000
8000
8000
8000
8000
FFC0
FFC0
8000
8000
8000
8000
8000
8000
8000
8000
8000
ENDCHAR
STARTCHAR 2520
ENCODING 9504
SWIDTH 1000 0
DWIDTH 20 0
BBX 11 20 9 -2
BITMAP
C000
C000
C000
C000
C000
C000
C000
C000
C000
C000
FFE0
C000
C000
C000
C000
C000
C000
C000
C000
C000
ENDCHAR
STARTCHAR 2523
ENCODING 9507
SWIDTH 1000 0
DWIDTH 20 0
BBX 11 20 9 -2
BITMAP
C000
C000
C000
C000
C000
C000
C000
C000
C000
FFE0
FFE0
C000
C000
C000
C000
C000
C000
C000
C000
C000
ENDCHAR
STARTCHAR 2524
ENCODING 9508
SWIDTH 1000 0
DWIDTH 20 0
BBX 11 21 -1 -3
BITMAP
0020
0020
0020
0020
0020
0020
0020
0020
0020
0020
FFE0
0020
0020
0020
0020
0020
0020
0020
0020
0020
0020
ENDCHAR
STARTCHAR 2525
ENCODING 9509
SWIDTH 1000 0
DWIDTH 20 0
BBX 10 20 0 -2
BITMAP
0040
0040
0040
0040
0040
0040
0040
0040
0040
FFC0
FFC0
0040
0040
0040
0040
0040
0040
0040
0040
0040
ENDCHAR
STARTCHAR 2528
ENCODING 9512
SWIDTH 1000 0
DWIDTH 20 0
BBX 11 20 0 -2
BITMAP
0060
0060
0060
0060
0060
0060
0060
0060
0060
0060
FFE0
0060
0060
0060
0060
0060
0060
0060
0060
0060
ENDCHAR
STARTCHAR 252B
ENCODING 9515
SWIDTH 1000 0
DWIDTH 20 0
BBX 11 20 0 -2
BITMAP
0060
0060
0060
0060
0060
0060
0060
0060
0060
FFE0
FFE0
0060
0060
0060
0060
0060
0060
0060
0060
0060
ENDCHAR
STARTCHAR 252C
ENCODING 9516
SWIDTH 1000 0
DWIDTH 20 0
BBX 21 11 0 -3
BITMAP
FFFFF8
002000
002000
002000
002000
002000
002000
002000
002000
002000
002000
ENDCHAR
STARTCHAR 252F
ENCODING 9519
SWIDTH 1000 0
DWIDTH 20 0
BBX 20 11 0 -2
BITMAP
FFFFF0
FFFFF0
002000
002000
002000
002000
002000
002000
002000
002000
002000
ENDCHAR
STARTCHAR 2530
ENCODING 9520
SWIDTH 1000 0
DWIDTH 20 0
BBX 20 10 0 -2
BITMAP
FFFFF0
006000
006000
006000
006000
006000
006000
006000
006000
006000
ENDCHAR
STARTCHAR 2533
ENCODING 9523
SWIDTH 1000 0
DWIDTH 20 0
BBX 20 11 0 -2
BITMAP
FFFFF0
FFFFF0
006000
006000
006000
006000
006000
006000
006000
006000
006000
ENDCHAR
STARTCHAR 2534
ENCODING 9524
SWIDTH 1000 0
DWIDTH 20 0
BBX 21 11 0 7
BITMAP
002000
002000
002000
002000
002000
002000
002000
002000
002000
002000
FFFFF8
ENDCHAR
STARTCHAR 2537
ENCODING 9527
SWIDTH 1000 0
DWIDTH 20 0
BBX 20 11 0 7
BITMAP
002000
002000
002000
002000
002000
002000
002000
002000
002000
FFFFF0
FFFFF0
ENDCHAR
STARTCHAR 2538
ENCODING 9528
SWIDTH 1000 0
DWIDTH 20 0
BBX 20 11 0 7
BITMAP
006000
006000
006000
006000
006000
006000
006000
006000
006000
006000
FFFFF0
ENDCHAR
STARTCHAR 253B
ENCODING 9531
SWIDTH 1000 0
DWIDTH 20 0
BBX 20 11 0 7
BITMAP
006000
006000
006000
006000
006000
006000
006000
006000
006000
FFFFF0
FFFFF0
ENDCHAR
STARTCHAR 253C
ENCODING 9532
SWIDTH 1000 0
DWIDTH 20 0
BBX 21 21 0 -3
BITMAP
002000
002000
002000
002000
002000
002000
002000
002000
002000
002000
FFFFF8
002000
002000
002000
002000
002000
002000
002000
002000
002000
002000
ENDCHAR
STARTCHAR 253F
ENCODING 9535
SWIDTH 1000 0
DWIDTH 20 0
BBX 20 20 0 -2
BITMAP
002000
002000
002000
002000
002000
002000
002000
002000
002000
FFFFF0
FFFFF0
002000
002000
002000
002000
002000
002000
002000
002000
002000
ENDCHAR
STARTCHAR 2542
ENCODING 9538
SWIDTH 1000 0
DWIDTH 20 0
BBX 20 20 0 -2
BITMAP
006000
006000
006000
006000
006000
006000
006000
006000
006000
006000
FFFFF0
006000
006000
006000
006000
006000
006000
006000
006000
006000
ENDCHAR
STARTCHAR 254B
ENCODING 9547
SWIDTH 1000 0
DWIDTH 20 0
BBX 20 20 0 -2
BITMAP
006000
006000
006000
006000
006000
006000
006000
006000
006000
FFFFF0
FFFFF0
006000
006000
006000
006000
006000
006000
006000
006000
006000
ENDCHAR
STARTCHAR 25A0
ENCODING 9632
SWIDTH 1000 0
DWIDTH 20 0
BBX 14 15 3 0
BITMAP
FFFC
FFFC
FFFC
FFFC
FFFC
FFFC
FFFC
FFFC
FFFC
FFFC
FFFC
FFFC
FFFC
FFFC
FFFC
ENDCHAR
STARTCHAR 25A1
ENCODING 9633
SWIDTH 1000 0
DWIDTH 20 0
BBX 14 15 3 0
BITMAP
FFFC
8004
8004
8004
8004
8004
8004
8004
8004
8004
8004
8004
8004
8004
FFFC
ENDCHAR
STARTCHAR 25B1
ENCODING 9649
SWIDTH 1000 0
DWIDTH 20 0
BBX 18 8 1 4
BITMAP
1FFFC0
1000C0
300080
200180
600100
400300
C00200
FFFE00
ENDCHAR
STARTCHAR 25B2
ENCODING 9650
SWIDTH 1000 0
DWIDTH 20 0
BBX 16 15 2 1
BITMAP
0100
0180
03C0
03C0
07E0
07E0
0FF0
0FF0
1FF8
1FF8
3FFC
3FFC
7FFE
7FFE
FFFF
ENDCHAR
STARTCHAR 25B3
ENCODING 9651
SWIDTH 1000 0
DWIDTH 20 0
BBX 16 15 2 1
BITMAP
0100
0180
0180
03C0
0240
0660
0C30
0C30
1818
1818
300C
300C
6006
6006
FFFF
ENDCHAR
STARTCHAR 25B6
ENCODING 9654
SWIDTH 1000 0
DWIDTH 20 0
BBX 15 15 3 0
BITMAP
C000
F000
FC00
FF00
FFC0
FFF0
FFFC
FFFE
FFF8
FFE0
FF80
FF00
FC00
F000
C000
ENDCHAR
STARTCHAR 25B7
ENCODING 9655
SWIDTH 1000 0
DWIDTH 20 0
BBX 15 15 3 0
BITMAP
C000
F000
9C00
8700
81C0
80F0
8038
800E
8038
80E0
8380
8E00
BC00
F000
C000
ENDCHAR
STARTCHAR 25BC
ENCODING 9660
SWIDTH 1000 0
DWIDTH 20 0
BBX 16 15 2 -1
BITMAP
FFFF
7FFE
7FFE
3FFC
3FFC
1FF8
1FF8
0FF0
0FF0
07E0
07E0
03C0
03C0
0180
0100
ENDCHAR
STARTCHAR 25BD
ENCODING 9661
SWIDTH 1000 0
DWIDTH 20 0
BBX 16 15 2 -1
BITMAP
FFFF
6006
6006
300C
300C
1818
1818
0C30
0C30
0660
0240
03C0
0180
0180
0100
ENDCHAR
STARTCHAR 25C0
ENCODING 9664
SWIDTH 1000 0
DWIDTH 20 0
BBX 15 15 2 0
BITMAP
0006
001E
007E
01FE
07FE
1FFE
7FFE
FFFE
3FFE
0FFE
03FE
01FE
007E
001E
0006
ENDCHAR
STARTCHAR 25C1
ENCODING 9665
SWIDTH 1000 0
DWIDTH 20 0
BBX 15 15 2 0
BITMAP
0006
001E
0072
01C2
0702
1E02
3802
E002
3802
0E02
0382
00E2
007A
001E
0006
ENDCHAR
STARTCHAR 25C6
ENCODING 9670
SWIDTH 1000 0
DWIDTH 20 0
BBX 18 17 1 -1
BITMAP
00C000
01E000
03F000
07F800
0FFC00
1FFE00
3FFF00
7FFF80
FFFFC0
7FFF80
3FFF00
1FFE00
0FFC00
07F800
03F000
01E000
00C000
ENDCHAR
STARTCHAR 25C7
ENCODING 9671
SWIDTH 1000 0
DWIDTH 20 0
BBX 18 17 1 -1
BITMAP
00C000
01E000
033000
061800
0C0C00
180600
300300
600180
C000C0
600180
300300
180600
0C0C00
061800
033000
01E000
00C000
ENDCHAR
STARTCHAR 25C9
ENCODING 9673
SWIDTH 1000 0
DWIDTH 20 0
BBX 16 17 2 -1
BITMAP
07E0
0C10
300C
23C4
4FF2
CFF2
9FF9
9FF9
9FF9
9FF9
8FF1
4FF2
43C2
2004
300C
0830
07E0
ENDCHAR
STARTCHAR 25CB
ENCODING 9675
SWIDTH 1000 0
DWIDTH 20 0
BBX 16 17 2 -1
BITMAP
07E0
1C30
300C
2004
4002
C003
8001
8001
8001
8001
8001
C002
4002
2004
300C
1C38
07E0
ENDCHAR
STARTCHAR 25CE
ENCODING 9678
SWIDTH 1000 0
DWIDTH 20 0
BBX 16 17 2 -1
BITMAP
07E0
0C10
300C
23C4
4E32
C812
9009
9009
9009
9009
8811
4C32
43C2
2004
300C
0830
07E0
ENDCHAR
STARTCHAR 25CF
ENCODING 9679
SWIDTH 1000 0
DWIDTH 20 0
BBX 17 17 2 -1
BITMAP
03E000
0FF800
1FFE00
3FFE00
7FFF00
7FFF00
FFFF80
FFFF80
FFFF80
FFFF80
FFFF80
7FFF00
7FFF00
3FFE00
3FFE00
0FF800
03E000
ENDCHAR
STARTCHAR 25D0
ENCODING 9680
SWIDTH 1000 0
DWIDTH 20 0
BBX 16 17 2 -1
BITMAP
07E0
0F70
3F0C
3F04
7F02
FF02
FF01
FF01
FF01
FF01
FF01
7F02
7F02
3F04
3F1C
0FF0
07E0
ENDCHAR
STARTCHAR 25D1
ENCODING 9681
SWIDTH 1000 0
DWIDTH 20 0
BBX 16 17 2 -1
BITMAP
07E0
0EF0
30FC
20FC
40FE
C0FE
80FF
80FF
80FF
80FF
80FF
40FE
40FE
20FC
38FC
0FF0
07E0
ENDCHAR
STARTCHAR 25D2
ENCODING 9682
SWIDTH 1000 0
DWIDTH 20 0
BBX 16 16 2 0
BITMAP
07E0
1818
300C
6006
4002
8001
8001
8001
FFFF
FFFF
FFFF
7FFE
7FFE
3FFC
1FF8
07E0
ENDCHAR
STARTCHAR 25D3
ENCODING 9683
SWIDTH 1000 0
DWIDTH 20 0
BBX 16 16 2 0
BITMAP
07E0
1FF8
3FFC
7FFE
7FFE
FFFF
FFFF
FFFF
8001
8001
8001
4002
6006
300C
1818
07E0
ENDCHAR
STARTCHAR 25E6
ENCODING 9702
SWIDTH 1000 0
DWIDTH 20 0
BBX 6 7 7 4
BITMAP
78
48
84
84
84
48
78
ENDCHAR
STARTCHAR 25EF
ENCODING 9711
SWIDTH 1000 0
DWIDTH 20 0
BBX 18 19 1 -2
BITMAP
03F000
0C0C00
180600
200100
600180
400080
C00040
800040
800040
800040
800040
800040
C000C0
400080
600180
200100
180600
0C0C00
03F000
ENDCHAR
STARTCHAR 2600
ENCODING 9728
SWIDTH 1000 0
DWIDTH 20 0
BBX 19 19 1 -2
BITMAP
004000
004000
004000
104100
080200
01E000
07F800
07F800
0FFC00
FFFDE0
0FFC00
0FFC00
07FC00
03F800
09F200
104100
004000
004000
004000
ENDCHAR
STARTCHAR 2601
ENCODING 9729
SWIDTH 1000 0
DWIDTH 20 0
BBX 18 14 1 -1
BITMAP
03C000
07E000
0FF000
0FF000
0FFB80
0FFFC0
3FFFC0
7FFFC0
FFFF00
FFFFC0
FF7FC0
7E7FC0
3C3F80
001F00
ENDCHAR
STARTCHAR 2602
ENCODING 9730
SWIDTH 1000 0
DWIDTH 20 0
BBX 19 19 1 -2
BITMAP
004000
004000
03F800
0FFE00
3FFF80
7FFF80
7FFFC0
CCE620
884220
804000
004000
004000
004000
004000
004000
004000
024000
024000
018000
ENDCHAR
STARTCHAR 2603
ENCODING 9731
SWIDTH 1000 0
DWIDTH 20 0
BBX 18 18 1 -1
BITMAP
808040
8098C0
182400
004200
C08200
474380
083C80
112200
512200
500200
09ECC0
100600
A00200
408100
408100
408100
208100
100600
ENDCHAR
STARTCHAR 2605
ENCODING 9733
SWIDTH 1000 0
DWIDTH 20 0
BBX 16 17 2 -1
BITMAP
0100
0180
0180
0180
03C0
03C0
FFFF
7FFE
3FFC
0FF0
0FF0
0FF0
0FF0
1E78
1C18
1008
2004
ENDCHAR
STARTCHAR 2606
ENCODING 9734
SWIDTH 1000 0
DWIDTH 20 0
BBX 16 17 2 -1
BITMAP
0100
0180
0180
0180
0240
0240
FE7F
6006
100C
0C30
0810
0810
0BD0
1668
1818
1008
2004
ENDCHAR
STARTCHAR 260E
ENCODING 9742
SWIDTH 1000 0
DWIDTH 20 0
BBX 19 15 1 0
BITMAP
1FFF00
3FFF80
7B1BC0
7319C0
F3F9E0
07FC00
0F1E00
0E0E00
0C0600
1C0700
3C0780
3E0F80
7F1FC0
7FFFC0
7FFFC0
ENDCHAR
STARTCHAR 2616
ENCODING 9750
SWIDTH 1000 0
DWIDTH 20 0
BBX 16 15 2 1
BITMAP
03C0
0E70
1818
600E
6006
6006
4002
4002
4002
4002
4002
C003
C003
C003
FFFF
ENDCHAR
STARTCHAR 2617
ENCODING 9751
SWIDTH 1000 0
DWIDTH 20 0
BBX 16 16 2 1
BITMAP
0180
07E0
0FF0
3FFC
7FFE
7FFE
7FFE
7FFE
7FFE
7FFE
7FFE
7FFE
FFFF
FFFF
FFFF
FFFF
ENDCHAR
STARTCHAR 261E
ENCODING 9758
SWIDTH 1000 0
DWIDTH 20 0
BBX 18 8 1 4
BITMAP
77FFC0
881040
90EF80
9F1600
906E00
98B400
9CD800
F3B800
ENDCHAR
STARTCHAR 2640
ENCODING 9792
SWIDTH 1000 0
DWIDTH 20 0
BBX 11 17 4 -2
BITMAP
1F00
3180
20C0
4040
4040
4040
2080
3180
0E00
0400
0400
FFE0
0400
0400
0400
0400
0400
ENDCHAR
STARTCHAR 2642
ENCODING 9794
SWIDTH 1000 0
DWIDTH 20 0
BBX 16 16 2 0
BITMAP
007F
0003
0007
000D
0019
0031
0061
1EC0
2380
4180
8080
8080
8080
C180
6300
3E00
ENDCHAR
STARTCHAR 2660
ENCODING 9824
SWIDTH 1000 0
DWIDTH 20 0
BBX 14 18 3 -1
BITMAP
0300
0780
0FC0
1FE0
1FF0
3FF0
7FF8
7FF8
FFFC
FFFC
FFFC
FFFC
7D7C
3938
0100
0300
0380
0400
ENDCHAR
STARTCHAR 2661
ENCODING 9825
SWIDTH 1000 0
DWIDTH 20 0
BBX 16 17 2 -2
BITMAP
3C3C
4242
C181
8181
8001
8001
8001
4002
4002
2004
300C
1008
0810
0420
0640
03C0
0180
ENDCHAR
STARTCHAR 2662
ENCODING 9826
SWIDTH 1000 0
DWIDTH 20 0
BBX 14 19 3 -2
BITMAP
0300
0700
0480
0840
1020
3030
2010
4008
8004
8004
4008
6018
2010
1020
1860
0840
0480
0300
0300
ENDCHAR
STARTCHAR 2663
ENCODING 9827
SWIDTH 1000 0
DWIDTH 20 0
BBX 18 18 1 -2
BITMAP
01E000
03F000
07F800
07F800
07F800
07F800
03F000
3DEF00
7EDF80
FFFFC0
FFFFC0
FFFFC0
FF7FC0
7E5F80
3C4F00
00C000
00E000
01E000
ENDCHAR
STARTCHAR 2664
ENCODING 9828
SWIDTH 1000 0
DWIDTH 20 0
BBX 16 19 2 -2
BITMAP
0080
0180
0240
0420
0810
1008
2004
2002
4002
8001
8001
8001
8201
4642
3EBC
0240
0240
0240
07E0
ENDCHAR
STARTCHAR 2665
ENCODING 9829
SWIDTH 1000 0
DWIDTH 20 0
BBX 16 16 2 -1
BITMAP
3C3C
7E7E
FFFF
FFFF
FFFF
FFFF
FFFF
7FFE
7FFE
3FFC
1FF8
1FF8
0FF0
07E0
03C0
0180
ENDCHAR
STARTCHAR 2666
ENCODING 9830
SWIDTH 1000 0
DWIDTH 20 0
BBX 14 19 3 -2
BITMAP
0300
0300
0780
0FC0
1FE0
3FE0
3FF0
7FF8
FFFC
FFFC
7FF8
7FF8
3FF0
1FE0
0FC0
0FC0
0780
0300
0200
ENDCHAR
STARTCHAR 2667
ENCODING 9831
SWIDTH 1000 0
DWIDTH 20 0
BBX 18 19 1 -2
BITMAP
01E000
021000
040800
040800
040800
040800
040800
3E1F00
433080
800040
800040
800040
812040
435080
3D2F00
012000
012000
012000
03F000
ENDCHAR
STARTCHAR 2668
ENCODING 9832
SWIDTH 1000 0
DWIDTH 20 0
BBX 18 15 1 1
BITMAP
008000
091000
111000
111000
119000
088800
08CC00
044400
044400
444480
844840
808040
400080
300300
0FFC00
ENDCHAR
STARTCHAR 2669
ENCODING 9833
SWIDTH 1000 0
DWIDTH 20 0
BBX 6 17 6 0
BITMAP
04
04
04
04
04
04
04
04
04
04
04
04
04
7C
FC
F8
70
ENDCHAR
STARTCHAR 266A
ENCODING 9834
SWIDTH 1000 0
DWIDTH 20 0
BBX 13 17 4 0
BITMAP
0400
0600
0700
05C0
04E0
0430
0418
0408
0408
0408
0410
0420
0440
7C00
FC00
F800
7000
ENDCHAR
STARTCHAR 266B
ENCODING 9835
SWIDTH 1000 0
DWIDTH 20 0
BBX 15 19 1 -2
BITMAP
0006
007E
07FE
07E2
0402
0402
0402
0402
0402
0402
0402
0402
043E
047E
047E
FC38
FC00
F800
7000
ENDCHAR
STARTCHAR 266C
ENCODING 9836
SWIDTH 1000 0
DWIDTH 20 0
BBX 15 19 1 -2
BITMAP
0006
007E
07FE
07C2
040E
04FE
07FA
0782
0402
0402
0402
0402
043E
047E
047E
FC38
FC00
F800
7000
ENDCHAR
STARTCHAR 266D
ENCODING 9837
SWIDTH 1000 0
DWIDTH 20 0
BBX 8 17 7 0
BITMAP
80
80
80
80
80
80
9E
E3
C3
83
83
86
8E
9C
B8
E0
80
ENDCHAR
STARTCHAR 266E
ENCODING 9838
SWIDTH 1000 0
DWIDTH 20 0
BBX 6 17 7 -1
BITMAP
80
80
80
80
8C
FC
E4
84
84
84
BC
F4
84
04
04
04
04
ENDCHAR
STARTCHAR 266F
ENCODING 9839
SWIDTH 1000 0
DWIDTH 20 0
BBX 12 17 4 0
BITMAP
1080
1080
1080
1080
11F0
FF80
F080
1080
1080
1080
10F0
7FC0
F080
1080
1080
1080
1000
ENDCHAR
STARTCHAR 2713
ENCODING 10003
SWIDTH 1000 0
DWIDTH 20 0
BBX 12 13 5 2
BITMAP
0010
0020
0020
0040
0080
0180
0300
8600
C400
CC00
5800
7000
2000
ENDCHAR
STARTCHAR 2756
ENCODING 10070
SWIDTH 1000 0
DWIDTH 20 0
BBX 18 17 1 -1
BITMAP
00C000
01E000
03F000
07F800
03F000
19E600
3CCF00
7E1F80
FF3FC0
7E1F80
3CCF00
19E600
03F000
07F800
03F000
01E000
00C000
ENDCHAR
STARTCHAR 2776
ENCODING 10102
SWIDTH 1000 0
DWIDTH 20 0
BBX 19 19 0 -2
BITMAP
01F800
0FFE00
1FFF00
3F9F80
7E1FC0
7E9FC0
FF9FE0
FF9FE0
FF9FE0
FF9FE0
FF9FE0
FF9FE0
7F9FC0
7F9FC0
7F9FC0
3F9F80
1FFF00
0FFE00
03F800
ENDCHAR
STARTCHAR 2777
ENCODING 10103
SWIDTH 1000 0
DWIDTH 20 0
BBX 18 18 1 -1
BITMAP
03F000
0FFC00
1FFE00
3E1F00
7CEF80
79F780
F9F7C0
FFF7C0
FFCFC0
FF8FC0
FE3FC0
FC7FC0
7CFF80
79FF80
380300
1FFE00
0FFC00
03F000
ENDCHAR
STARTCHAR 2778
ENCODING 10104
SWIDTH 1000 0
DWIDTH 20 0
BBX 18 19 1 -2
BITMAP
03F000
0FFC00
1FFE00
3E1F00
7DCF80
79E780
FFE7C0
FFE7C0
FE0FC0
FE1FC0
FFE7C0
FFF3C0
F3F3C0
79F380
78E780
3E0F00
1FFE00
0FFC00
03F000
ENDCHAR
STARTCHAR 2779
ENCODING 10105
SWIDTH 1000 0
DWIDTH 20 0
BBX 18 19 1 -2
BITMAP
03F000
0FFC00
1FFE00
3F9F00
7F9F80
7F1F80
FE5FC0
FCDFC0
FCDFC0
F9DFC0
F3DFC0
F007C0
700780
7FDF80
7FDF80
3FDF00
1FFE00
0FFC00
03F000
ENDCHAR
STARTCHAR 277A
ENCODING 10106
SWIDTH 1000 0
DWIDTH 20 0
BBX 18 19 1 -2
BITMAP
03F000
0FFC00
3FFE00
3C0700
7C0780
79FF80
F9FFC0
F9FFC0
F80FC0
F8E7C0
FDF3C0
FFF3C0
7FF3C0
79F380
7DE780
3E0F00
1FFE00
0FFC00
03F000
ENDCHAR
STARTCHAR 277B
ENCODING 10107
SWIDTH 1000 0
DWIDTH 20 0
BBX 18 19 1 -2
BITMAP
03F000
0FFC00
1FFE00
3F1F00
7EE780
7DE780
F9FFC0
FBFFC0
FA1FC0
F9EFC0
FBF7C0
FBF7C0
FBF7C0
7FF780
7DEF80
3E1F00
1FFE00
0FFC00
03F000
ENDCHAR
STARTCHAR 277C
ENCODING 10108
SWIDTH 1000 0
DWIDTH 20 0
BBX 18 19 1 -2
BITMAP
03F000
0FFC00
1FFE00
3FFF00
780780
7FE780
FFE7C0
FFCFC0
FFCFC0
FFDFC0
FF9FC0
FFBFC0
FF3FC0
7F3F80
7F7F80
3E7F00
1FFE00
0FFC00
03F000
ENDCHAR
STARTCHAR 277D
ENCODING 10109
SWIDTH 1000 0
DWIDTH 20 0
BBX 18 19 1 -2
BITMAP
03F000
0FFC00
1FFE00
3E1F00
7DEF80
7BF780
FBF7C0
F9E7C0
FC0FC0
FC0FC0
F9E7C0
F3F3C0
F3F3C0
73F380
79E780
3C0F00
1FFE00
0FFC00
03F000
ENDCHAR
STARTCHAR 277E
ENCODING 10110
SWIDTH 1000 0
DWIDTH 20 0
BBX 18 19 1 -2
BITMAP
03F000
0FFC00
1FFE00
3E1F00
7CE780
79F780
F9F3C0
F9F3C0
F9F3C0
FCE3C0
FE13C0
FFF3C0
F9F3C0
79E780
7CC780
3E1F00
1FFE00
0FFC00
03F000
ENDCHAR
STARTCHAR 277F
ENCODING 10111
SWIDTH 1000 0
DWIDTH 20 0
BBX 20 19 0 -2
BITMAP
01F800
07FE00
1FFF80
39E1C0
31CCC0
71DEE0
F99E60
F99E70
F99E70
F99E70
F99E70
F99E70
799E60
79CCE0
39C0C0
39E1C0
1FFF80
07FE00
01F800
ENDCHAR
STARTCHAR 2934
ENCODING 10548
SWIDTH 1000 0
DWIDTH 20 0
BBX 16 15 2 1
BITMAP
0008
001C
003E
006B
0049
0049
0008
0008
0008
0008
0008
0008
0010
0060
FFC0
ENDCHAR
STARTCHAR 2935
ENCODING 10549
SWIDTH 1000 0
DWIDTH 20 0
BBX 16 15 2 -1
BITMAP
FFC0
0060
0010
0008
0008
0008
0008
0008
0008
0049
0049
006B
003E
001C
0008
ENDCHAR
STARTCHAR 29BF
ENCODING 10687
SWIDTH 1000 0
DWIDTH 20 0
BBX 16 17 2 -1
BITMAP
07E0
1C30
300C
6004
4002
C3C2
87E1
87E1
87E1
87E1
83C1
4002
4002
2004
300C
0C30
07E0
ENDCHAR
STARTCHAR 29FA
ENCODING 10746
SWIDTH 700 0
DWIDTH 14 0
BBX 11 11 1 0
BITMAP
1100
1100
1100
1100
1100
FFE0
1100
1100
1100
1100
1100
ENDCHAR
STARTCHAR 29FB
ENCODING 10747
SWIDTH 700 0
DWIDTH 14 0
BBX 11 11 1 0
BITMAP
2480
2480
2480
2480
2480
FFE0
2480
2480
2480
2480
2480
ENDCHAR
STARTCHAR 2E83
ENCODING 11907
SWIDTH 1000 0
DWIDTH 20 0
BBX 12 15 5 1
BITMAP
8000
8000
8000
8000
8000
8000
8000
8000
8000
8000
8010
8010
8010
8030
7FF0
ENDCHAR
STARTCHAR 2E85
ENCODING 11909
SWIDTH 1000 0
DWIDTH 20 0
BBX 9 17 5 -1
BITMAP
0180
0180
0300
0600
0400
0C00
1C00
7400
E400
8400
0400
0400
0400
0400
0400
0400
0400
ENDCHAR
STARTCHAR 2E87
ENCODING 11911
SWIDTH 1000 0
DWIDTH 20 0
BBX 18 16 1 -2
BITMAP
3FFE00
200200
200200
200200
200200
200200
200200
200200
200200
200200
200200
600340
400140
400140
C001C0
800080
ENDCHAR
STARTCHAR 2E89
ENCODING 11913
SWIDTH 1000 0
DWIDTH 20 0
BBX 8 17 6 -1
BITMAP
01
01
81
81
81
81
81
81
81
81
81
81
01
01
01
21
1F
ENDCHAR
STARTCHAR 2E8E
ENCODING 11918
SWIDTH 1000 0
DWIDTH 20 0
BBX 18 15 1 -2
BITMAP
FFFF80
041000
041000
041000
041000
041000
041000
041000
041000
081080
0810C0
1810C0
3010C0
E01080
801F00
ENDCHAR
STARTCHAR 2E8F
ENCODING 11919
SWIDTH 1000 0
DWIDTH 20 0
BBX 17 16 2 -1
BITMAP
043000
0C1800
180C00
180600
300600
662300
462000
062000
062000
062000
042000
042100
0C2180
182180
702100
E03F00
ENDCHAR
STARTCHAR 2E90
ENCODING 11920
SWIDTH 1000 0
DWIDTH 20 0
BBX 18 17 1 0
BITMAP
010000
010000
010000
010000
7FFF80
012000
012000
012000
032000
022000
022000
062080
0C20C0
1820C0
302080
E03F80
400000
ENDCHAR
STARTCHAR 2E92
ENCODING 11922
SWIDTH 1000 0
DWIDTH 20 0
BBX 15 15 3 0
BITMAP
FFF8
8008
8008
8008
8008
8008
FFF8
8008
8008
8000
8002
8002
8006
8006
7FFC
ENDCHAR
STARTCHAR 2E93
ENCODING 11923
SWIDTH 1000 0
DWIDTH 20 0
BBX 16 16 2 -1
BITMAP
0100
0180
0300
0600
0418
6C30
3830
1860
0CC0
0780
0310
0618
0C0C
1806
FFFF
FC03
ENDCHAR
STARTCHAR 2E94
ENCODING 11924
SWIDTH 1000 0
DWIDTH 20 0
BBX 18 15 1 1
BITMAP
040000
040000
040000
0FFE00
0C0400
080400
080400
080400
180C00
1FFC00
100C00
100800
000800
000800
FFFFC0
ENDCHAR
STARTCHAR 2E96
ENCODING 11926
SWIDTH 1000 0
DWIDTH 20 0
BBX 7 18 6 -2
BITMAP
10
10
10
10
14
54
D6
D2
D2
90
90
10
10
10
10
10
10
10
ENDCHAR
STARTCHAR 2E97
ENCODING 11927
SWIDTH 1000 0
DWIDTH 20 0
BBX 16 17 2 -1
BITMAP
0400
0400
0400
0400
0400
658C
6484
64C6
4442
C463
C463
8421
8400
0400
0400
0400
3C00
ENDCHAR
STARTCHAR 2E98
ENCODING 11928
SWIDTH 1000 0
DWIDTH 20 0
BBX 9 17 5 -2
BITMAP
0800
0800
0800
0800
FF80
0800
0800
0800
0980
3F00
F800
0800
0800
0800
0800
0800
7800
ENDCHAR
STARTCHAR 2E99
ENCODING 11929
SWIDTH 1000 0
DWIDTH 20 0
BBX 16 16 2 0
BITMAP
0C00
0C00
0800
1FFF
1018
3810
6810
CC30
C420
0660
03C0
0180
03E0
0638
1C1E
F007
ENDCHAR
STARTCHAR 2E9B
ENCODING 11931
SWIDTH 1000 0
DWIDTH 20 0
BBX 17 16 2 -2
BITMAP
7FFE00
004000
104000
10C000
30C000
308000
3FFF80
208000
21C000
014000
034000
064100
0C4100
184100
704300
C03E00
ENDCHAR
STARTCHAR 2E9E
ENCODING 11934
SWIDTH 1000 0
DWIDTH 20 0
BBX 16 17 2 0
BITMAP
0080
0080
00FF
0080
0680
07FC
080C
1818
3C10
E730
01E0
00C0
0180
0300
0E00
3800
6000
ENDCHAR
STARTCHAR 2E9F
ENCODING 11935
SWIDTH 1000 0
DWIDTH 20 0
BBX 18 17 1 -2
BITMAP
1FFE00
100200
118200
11C200
10E200
106200
100200
FFFFC0
300200
338200
30C200
306200
200200
3FFFC0
200600
600600
003C00
ENDCHAR
STARTCHAR 2EA0
ENCODING 11936
SWIDTH 1000 0
DWIDTH 20 0
BBX 18 16 1 -2
BITMAP
3FFF00
200100
200100
200100
3FFF00
204100
206000
206000
3FFFC0
202000
203000
201000
2058C0
27CCC0
FE0780
E00380
ENDCHAR
STARTCHAR 2EA1
ENCODING 11937
SWIDTH 1000 0
DWIDTH 20 0
BBX 6 16 7 -1
BITMAP
60
30
18
00
80
E0
30
10
04
04
0C
18
30
60
E0
40
ENDCHAR
STARTCHAR 2EA3
ENCODING 11939
SWIDTH 1000 0
DWIDTH 20 0
BBX 16 6 2 4
BITMAP
204C
3644
2266
6263
C223
C221
ENDCHAR
STARTCHAR 2EA4
ENCODING 11940
SWIDTH 1000 0
DWIDTH 20 0
BBX 15 9 2 5
BITMAP
003C
3FF8
F804
0206
630C
3108
1198
1990
1010
ENDCHAR
STARTCHAR 2EA6
ENCODING 11942
SWIDTH 1000 0
DWIDTH 20 0
BBX 7 17 5 -1
BITMAP
02
02
02
62
32
32
1A
02
02
06
1E
F2
C2
02
02
02
02
ENDCHAR
STARTCHAR 2EA8
ENCODING 11944
SWIDTH 1000 0
DWIDTH 20 0
BBX 8 17 5 -1
BITMAP
23
32
16
1C
1C
34
E4
06
0E
1A
32
62
C2
82
02
04
3C
ENDCHAR
STARTCHAR 2EAA
ENCODING 11946
SWIDTH 1000 0
DWIDTH 20 0
BBX 10 15 4 -1
BITMAP
7FC0
0180
0300
0400
2400
2400
27C0
2400
2400
2400
2400
24C0
2780
3E00
F000
ENDCHAR
STARTCHAR 2EAB
ENCODING 11947
SWIDTH 1000 0
DWIDTH 20 0
BBX 15 8 2 3
BITMAP
FFFE
8422
8422
8422
8422
8422
FFFE
8002
ENDCHAR
STARTCHAR 2EAD
ENCODING 11949
SWIDTH 1000 0
DWIDTH 20 0
BBX 10 18 5 -1
BITMAP
0800
0800
0800
0800
FFC0
0180
0100
0200
0C00
1F00
7580
E4C0
8440
0400
0400
0400
0400
0400
ENDCHAR
STARTCHAR 2EB2
ENCODING 11954
SWIDTH 1000 0
DWIDTH 20 0
BBX 15 8 2 3
BITMAP
FFFE
8422
8422
8422
8422
8422
FFFE
8002
ENDCHAR
STARTCHAR 2EB9
ENCODING 11961
SWIDTH 1000 0
DWIDTH 20 0
BBX 18 14 1 1
BITMAP
008000
008100
008300
3FFE00
010E00
010C00
011800
FFFFC0
01C000
038000
0E0000
1C0000
700000
C00000
ENDCHAR
STARTCHAR 2EBD
ENCODING 11965
SWIDTH 1000 0
DWIDTH 20 0
BBX 14 16 3 -1
BITMAP
1C00
F1FC
8004
8004
8004
8004
8004
FCFC
8004
8004
8004
8004
8004
8004
FCFC
8004
ENDCHAR
STARTCHAR 2EBE
ENCODING 11966
SWIDTH 1000 0
DWIDTH 20 0
BBX 18 6 1 6
BITMAP
040800
040800
040800
FFFFC0
040800
040800
ENDCHAR
STARTCHAR 2EBF
ENCODING 11967
SWIDTH 1000 0
DWIDTH 20 0
BBX 18 6 1 6
BITMAP
080400
080400
080400
FFFFC0
080400
080400
ENDCHAR
STARTCHAR 2EC0
ENCODING 11968
SWIDTH 1000 0
DWIDTH 20 0
BBX 18 7 1 6
BITMAP
040800
040800
040800
FC0FC0
040800
040800
040800
ENDCHAR
STARTCHAR 2EC1
ENCODING 11969
SWIDTH 1000 0
DWIDTH 20 0
BBX 17 18 2 -2
BITMAP
010000
010000
01FC00
010000
7FFF00
410100
410300
5FF800
410600
410400
41FC00
400000
432000
422000
422100
862180
9C2100
B03E00
ENDCHAR
STARTCHAR 2EC2
ENCODING 11970
SWIDTH 1000 0
DWIDTH 20 0
BBX 11 17 4 -1
BITMAP
0400
0400
0400
7FC0
0080
0180
0300
0660
0CC0
1F80
7580
C4E0
0400
0400
0400
0400
0400
ENDCHAR
STARTCHAR 2EC3
ENCODING 11971
SWIDTH 1000 0
DWIDTH 20 0
BBX 16 9 2 3
BITMAP
FFFF
0420
0420
7FFE
4422
4422
4422
7FFE
4002
ENDCHAR
STARTCHAR 2EC4
ENCODING 11972
SWIDTH 1000 0
DWIDTH 20 0
BBX 16 16 2 -2
BITMAP
FFFF
0440
0440
0440
7FFE
4442
4442
4442
484E
484E
587A
5002
4002
4002
7FFE
4002
ENDCHAR
STARTCHAR 2ECA
ENCODING 11978
SWIDTH 1000 0
DWIDTH 20 0
BBX 10 17 5 -1
BITMAP
7F80
4080
4080
4080
4080
7F80
0800
0800
4800
4F80
4800
4800
4800
49C0
5F80
F800
8000
ENDCHAR
STARTCHAR 2ECC
ENCODING 11980
SWIDTH 1000 0
DWIDTH 20 0
BBX 17 16 2 0
BITMAP
400000
600000
300000
100000
000000
000000
000000
F00000
100000
100000
100000
100000
100000
280000
C60080
83FF80
ENDCHAR
STARTCHAR 2ECD
ENCODING 11981
SWIDTH 1000 0
DWIDTH 20 0
BBX 17 16 2 0
BITMAP
600000
300000
000000
400000
600000
300000
000000
000000
F00000
100000
100000
100000
100000
6C0000
C70180
83FF00
ENDCHAR
STARTCHAR 2ECF
ENCODING 11983
SWIDTH 1000 0
DWIDTH 20 0
BBX 8 16 7 -1
BITMAP
FF
82
86
84
8C
88
8C
86
83
81
81
81
BE
80
80
80
ENDCHAR
STARTCHAR 2ED1
ENCODING 11985
SWIDTH 1000 0
DWIDTH 20 0
BBX 17 17 2 -1
BITMAP
1FFE00
100000
100000
1FFC00
100000
100000
1FFC00
100000
FFFF80
118200
108600
105C00
107000
10B800
1F8E00
FC0780
400000
ENDCHAR
STARTCHAR 2ED2
ENCODING 11986
SWIDTH 1000 0
DWIDTH 20 0
BBX 18 15 1 -1
BITMAP
0FFF00
080000
080000
0FFE00
080000
0FFE00
080000
080000
FFFFC0
020000
060C00
040600
0C0300
7FFF80
3F0180
ENDCHAR
STARTCHAR 2ED6
ENCODING 11990
SWIDTH 1000 0
DWIDTH 20 0
BBX 8 16 7 -1
BITMAP
FF
82
86
84
8C
88
8C
86
83
81
81
81
BE
80
80
80
ENDCHAR
STARTCHAR 2ED8
ENCODING 11992
SWIDTH 1000 0
DWIDTH 20 0
BBX 18 18 1 -2
BITMAP
008000
008000
7FFF80
008000
008000
3FFF00
008000
FFFFC0
000000
1FFE00
100600
100600
1FFE00
100600
1FFE00
100600
100600
103E00
ENDCHAR
STARTCHAR 2EDE
ENCODING 11998
SWIDTH 1000 0
DWIDTH 20 0
BBX 9 17 6 -1
BITMAP
1800
1800
3600
2300
7D80
C000
FE00
4200
7E00
4200
7E00
4000
4000
7E00
4000
7F00
4000
ENDCHAR
STARTCHAR 2EDF
ENCODING 11999
SWIDTH 1000 0
DWIDTH 20 0
BBX 9 18 5 -1
BITMAP
0400
0C00
0A00
1900
3580
6400
FF00
A100
2100
3F00
2100
3F00
2200
2200
2300
2F00
F980
4000
ENDCHAR
STARTCHAR 2EE4
ENCODING 12004
SWIDTH 1000 0
DWIDTH 20 0
BBX 16 18 2 -1
BITMAP
0380
0300
3FFC
2104
2104
3FFC
2104
2104
2104
3FFC
0440
045C
0C54
0C5E
1871
3041
E07F
8000
ENDCHAR
STARTCHAR 2EE8
ENCODING 12008
SWIDTH 1000 0
DWIDTH 20 0
BBX 17 18 1 -1
BITMAP
008000
008000
7FFF00
008000
3FFE00
008000
008000
FFFF80
030000
020000
0FFC00
1E1800
733000
61E000
01F000
073E00
7C0780
400000
ENDCHAR
STARTCHAR 2EE9
ENCODING 12009
SWIDTH 1000 0
DWIDTH 20 0
BBX 18 17 1 -1
BITMAP
041000
041000
3FFF00
041000
041000
FFFFC0
008000
1FFE00
108200
108200
1FFE00
108200
108200
1FFE00
041800
1C0F00
700380
ENDCHAR
STARTCHAR 2EEB
ENCODING 12011
SWIDTH 1000 0
DWIDTH 20 0
BBX 18 18 1 -2
BITMAP
008000
008000
FFFFC0
0C0C00
061800
036000
01E000
073E00
FC03C0
480200
0FFE00
080200
080200
0FFE00
080200
180200
300200
200200
ENDCHAR
STARTCHAR 2EED
ENCODING 12013
SWIDTH 1000 0
DWIDTH 20 0
BBX 18 19 1 -2
BITMAP
008000
008000
08FE00
088000
088000
FFFFC0
208100
248900
269900
22B100
2FFD00
218100
23E100
22B900
248D00
2C8500
200100
3FFF00
200100
ENDCHAR
STARTCHAR 2EEF
ENCODING 12015
SWIDTH 1000 0
DWIDTH 20 0
BBX 18 17 1 0
BITMAP
008000
008000
3FFF00
041800
061000
FFFFC0
000000
000000
1FFE00
108200
1FFE00
108200
108200
1FFE00
1080C0
008080
00FF80
ENDCHAR
STARTCHAR 2EF2
ENCODING 12018
SWIDTH 1000 0
DWIDTH 20 0
BBX 18 18 1 0
BITMAP
060000
07F800
083000
183000
3FFF00
70C100
DFFF00
10C100
1FFF00
00C000
3FFF00
20C100
3FFF00
20C100
3FFF00
20C0C0
00C0C0
007F80
ENDCHAR
STARTCHAR 2F00
ENCODING 12032
SWIDTH 1000 0
DWIDTH 20 0
BBX 16 2 2 7
BITMAP
FFFF
FFFF
ENDCHAR
STARTCHAR 2F01
ENCODING 12033
SWIDTH 1000 0
DWIDTH 20 0
BBX 2 17 9 0
BITMAP
C0
C0
C0
C0
C0
C0
C0
C0
C0
C0
C0
C0
C0
C0
C0
C0
C0
ENDCHAR
STARTCHAR 2F02
ENCODING 12034
SWIDTH 1000 0
DWIDTH 20 0
BBX 8 9 6 3
BITMAP
80
C0
60
30
18
0C
06
03
01
ENDCHAR
STARTCHAR 2F03
ENCODING 12035
SWIDTH 1000 0
DWIDTH 20 0
BBX 7 17 5 -2
BITMAP
06
06
06
06
06
06
06
06
06
06
06
0C
0C
18
38
70
E0
ENDCHAR
STARTCHAR 2F04
ENCODING 12036
SWIDTH 1000 0
DWIDTH 20 0
BBX 15 15 3 0
BITMAP
FFF0
0060
00C0
0180
0300
0600
0E00
1C00
3800
3000
6002
E006
C006
C006
7FFC
ENDCHAR
STARTCHAR 2F05
ENCODING 12037
SWIDTH 1000 0
DWIDTH 20 0
BBX 5 17 6 -1
BITMAP
08
08
08
08
08
08
08
08
08
08
08
08
08
08
08
88
F8
ENDCHAR
STARTCHAR 2F06
ENCODING 12038
SWIDTH 1000 0
DWIDTH 20 0
BBX 16 13 2 1
BITMAP
7FFE
7FFE
0000
0000
0000
0000
0000
0000
0000
0000
0000
FFFF
FFFF
ENDCHAR
STARTCHAR 2F07
ENCODING 12039
SWIDTH 1000 0
DWIDTH 20 0
BBX 18 5 1 9
BITMAP
00C000
00C000
00C000
00C000
FFFFC0
ENDCHAR
STARTCHAR 2F08
ENCODING 12040
SWIDTH 1000 0
DWIDTH 20 0
BBX 17 17 2 -2
BITMAP
018000
018000
018000
018000
018000
018000
018000
03C000
034000
026000
062000
043000
0C1800
180C00
300700
E00380
800100
ENDCHAR
STARTCHAR 2F09
ENCODING 12041
SWIDTH 1000 0
DWIDTH 20 0
BBX 17 16 2 -2
BITMAP
082000
082000
082000
082000
082000
082000
082000
082000
082000
082000
182000
102180
302100
702100
E03F00
800000
ENDCHAR
STARTCHAR 2F0A
ENCODING 12042
SWIDTH 1000 0
DWIDTH 20 0
BBX 17 16 2 -1
BITMAP
1F8000
018000
018000
018000
018000
01C000
01C000
034000
026000
062000
063000
0C1800
180C00
300600
E00380
C00100
ENDCHAR
STARTCHAR 2F0B
ENCODING 12043
SWIDTH 1000 0
DWIDTH 20 0
BBX 18 16 1 -1
BITMAP
03F000
001000
001000
061800
061800
040800
040800
0C0C00
0C0400
080600
180600
180300
300300
300180
6001C0
C000C0
ENDCHAR
STARTCHAR 2F0C
ENCODING 12044
SWIDTH 1000 0
DWIDTH 20 0
BBX 16 16 2 -1
BITMAP
FFFF
8001
8001
8001
8001
8001
8001
8001
8001
8001
8001
8001
8001
8001
8011
801F
ENDCHAR
STARTCHAR 2F0D
ENCODING 12045
SWIDTH 1000 0
DWIDTH 20 0
BBX 16 5 2 6
BITMAP
FFFF
8001
8001
8001
8001
ENDCHAR
STARTCHAR 2F0E
ENCODING 12046
SWIDTH 1000 0
DWIDTH 20 0
BBX 8 14 6 0
BITMAP
C0
60
30
10
01
01
03
06
0C
0C
18
30
60
C0
ENDCHAR
STARTCHAR 2F0F
ENCODING 12047
SWIDTH 1000 0
DWIDTH 20 0
BBX 18 15 1 -1
BITMAP
0FF800
080800
080800
080800
080800
080800
080800
080800
080800
080800
1008C0
1008C0
3008C0
6008C0
C00F80
ENDCHAR
STARTCHAR 2F10
ENCODING 12048
SWIDTH 1000 0
DWIDTH 20 0
BBX 14 16 3 -1
BITMAP
8004
8004
8004
8004
8004
8004
8004
8004
8004
8004
8004
8004
8004
FFFC
8004
8004
ENDCHAR
STARTCHAR 2F11
ENCODING 12049
SWIDTH 1000 0
DWIDTH 20 0
BBX 15 15 2 -1
BITMAP
FFFE
0302
0302
0302
0302
0202
0202
0602
0602
0402
0C06
1806
3006
6086
C0FC
ENDCHAR
STARTCHAR 2F12
ENCODING 12050
SWIDTH 1000 0
DWIDTH 20 0
BBX 16 17 2 -2
BITMAP
0180
0180
0180
0180
FFFF
0181
0181
0181
0301
0301
0301
0601
0C03
1C03
3803
7063
C03E
ENDCHAR
STARTCHAR 2F13
ENCODING 12051
SWIDTH 1000 0
DWIDTH 20 0
BBX 15 17 2 0
BITMAP
0C00
0800
1800
1FFE
3002
6002
6002
C002
8002
0002
0002
0002
0006
0006
0006
0086
00FC
ENDCHAR
STARTCHAR 2F14
ENCODING 12052
SWIDTH 1000 0
DWIDTH 20 0
BBX 13 15 4 0
BITMAP
8000
8000
8000
8060
81E0
8F00
F800
C000
8000
8000
8008
8018
8018
8018
7FF0
ENDCHAR
STARTCHAR 2F15
ENCODING 12053
SWIDTH 1000 0
DWIDTH 20 0
BBX 15 16 3 -2
BITMAP
FFFC
8000
8000
8000
8000
8000
8000
8000
8000
8000
8000
8000
8000
8000
FFFE
8000
ENDCHAR
STARTCHAR 2F16
ENCODING 12054
SWIDTH 1000 0
DWIDTH 20 0
BBX 16 14 2 -1
BITMAP
FFFF
2000
2000
2000
2000
2000
2000
2000
2000
2000
2000
2000
2000
1FFE
ENDCHAR
STARTCHAR 2F17
ENCODING 12055
SWIDTH 1000 0
DWIDTH 20 0
BBX 18 18 1 -3
BITMAP
00C000
00C000
00C000
00C000
00C000
00C000
00C000
FFFFC0
FFFFC0
00C000
00C000
00C000
00C000
00C000
00C000
00C000
00C000
00C000
ENDCHAR
STARTCHAR 2F18
ENCODING 12056
SWIDTH 1000 0
DWIDTH 20 0
BBX 9 17 7 0
BITMAP
8000
8000
8000
8000
8000
8000
E000
B800
9E00
8700
8180
8000
8000
8000
8000
8000
8000
ENDCHAR
STARTCHAR 2F19
ENCODING 12057
SWIDTH 1000 0
DWIDTH 20 0
BBX 9 16 6 -1
BITMAP
FF80
8080
8080
8080
8080
8080
8080
8080
8080
8080
8080
8F80
8000
8000
8000
8000
ENDCHAR
STARTCHAR 2F1A
ENCODING 12058
SWIDTH 1000 0
DWIDTH 20 0
BBX 15 15 2 -1
BITMAP
7FFE
4000
4000
4000
4000
4000
4000
4000
4000
4000
4000
C000
8000
8000
8000
ENDCHAR
STARTCHAR 2F1B
ENCODING 12059
SWIDTH 1000 0
DWIDTH 20 0
BBX 16 15 2 0
BITMAP
0100
0300
0300
0200
0600
0600
0400
0C30
0C18
080C
180C
1006
33FE
FFC3
E003
ENDCHAR
STARTCHAR 2F1C
ENCODING 12060
SWIDTH 1000 0
DWIDTH 20 0
BBX 17 16 1 -1
BITMAP
7FFF00
080600
0C0600
0C0400
040C00
060800
031800
031000
01B000
00E000
00E000
01B800
071C00
1C0780
F80180
400000
ENDCHAR
STARTCHAR 2F1D
ENCODING 12061
SWIDTH 1000 0
DWIDTH 20 0
BBX 14 15 3 -1
BITMAP
FFFC
8004
8004
8004
8004
8004
8004
8004
8004
8004
8004
8004
FFFC
8004
8000
ENDCHAR
STARTCHAR 2F1E
ENCODING 12062
SWIDTH 1000 0
DWIDTH 20 0
BBX 16 16 2 -2
BITMAP
FFFF
8001
8001
8001
8001
8001
8001
8001
8001
8001
8001
8001
8001
8001
FFFF
8001
ENDCHAR
STARTCHAR 2F1F
ENCODING 12063
SWIDTH 1000 0
DWIDTH 20 0
BBX 17 16 1 1
BITMAP
008000
008000
008000
008000
008000
3FFE00
008000
008000
008000
008000
008000
008000
008000
008000
008000
FFFF80
ENDCHAR
STARTCHAR 2F20
ENCODING 12064
SWIDTH 1000 0
DWIDTH 20 0
BBX 17 16 1 1
BITMAP
008000
008000
008000
008000
008000
FFFF80
008000
008000
008000
008000
008000
008000
008000
008000
008000
7FFF00
ENDCHAR
STARTCHAR 2F21
ENCODING 12065
SWIDTH 1000 0
DWIDTH 20 0
BBX 17 16 2 0
BITMAP
020000
060000
07FC00
0C0C00
1C1800
1C1800
361000
623000
C36000
01C000
00C000
01E000
073000
0C1C00
780780
E00100
ENDCHAR
STARTCHAR 2F22
ENCODING 12066
SWIDTH 1000 0
DWIDTH 20 0
BBX 17 16 2 0
BITMAP
030000
020000
17FC00
140C00
1C0800
081800
1C1000
343000
622000
C36000
81C000
01C000
037000
0E1C00
380F00
F00380
ENDCHAR
STARTCHAR 2F23
ENCODING 12067
SWIDTH 1000 0
DWIDTH 20 0
BBX 15 16 2 0
BITMAP
0300
0300
03FE
0606
0C04
080C
1E0C
3318
E190
40F0
0060
00C0
0180
0300
0E00
3800
ENDCHAR
STARTCHAR 2F24
ENCODING 12068
SWIDTH 1000 0
DWIDTH 20 0
BBX 17 17 1 -2
BITMAP
008000
008000
008000
008000
008000
FFFF80
008000
00C000
014000
016000
013000
021000
061800
0C0C00
180700
700380
600000
ENDCHAR
STARTCHAR 2F25
ENCODING 12069
SWIDTH 1000 0
DWIDTH 20 0
BBX 17 16 1 0
BITMAP
018000
018000
010000
030000
FFFF80
060C00
060C00
0C0800
0C1800
1E1800
1BB000
00E000
00F800
038E00
1F0380
780100
ENDCHAR
STARTCHAR 2F26
ENCODING 12070
SWIDTH 1000 0
DWIDTH 20 0
BBX 17 16 1 -1
BITMAP
3FFE00
000C00
003000
006000
008000
008000
008000
FFFF80
008000
008000
008000
008000
008000
008000
048000
078000
ENDCHAR
STARTCHAR 2F27
ENCODING 12071
SWIDTH 1000 0
DWIDTH 20 0
BBX 16 8 2 7
BITMAP
0100
0100
0100
FFFF
8001
8001
8001
8001
ENDCHAR
STARTCHAR 2F28
ENCODING 12072
SWIDTH 1000 0
DWIDTH 20 0
BBX 16 17 2 -1
BITMAP
0010
0010
0010
0010
FFFF
0010
0010
1810
1810
0C10
0610
0610
0010
0010
0010
0110
01F0
ENDCHAR
STARTCHAR 2F29
ENCODING 12073
SWIDTH 1000 0
DWIDTH 20 0
BBX 16 17 2 -1
BITMAP
0100
0100
0100
0100
1130
3118
3118
210C
6104
6106
C106
C103
8102
0100
0100
0100
0F00
ENDCHAR
STARTCHAR 2F2A
ENCODING 12074
SWIDTH 1000 0
DWIDTH 20 0
BBX 18 17 1 0
BITMAP
010000
010000
010000
010000
7FFF80
012000
012000
012000
032000
022000
022000
062080
0C20C0
1820C0
302080
E03F80
400000
ENDCHAR
STARTCHAR 2F2B
ENCODING 12075
SWIDTH 1000 0
DWIDTH 20 0
BBX 15 16 2 -2
BITMAP
3FFE
2002
2002
2002
2002
3FFE
2002
2000
2000
2000
2000
2000
6000
4000
4000
C000
ENDCHAR
STARTCHAR 2F2C
ENCODING 12076
SWIDTH 1000 0
DWIDTH 20 0
BBX 14 17 3 -1
BITMAP
0200
0200
0200
8204
8204
8204
8204
8204
8204
FFFC
8204
0200
0200
0400
0C00
3800
6000
ENDCHAR
STARTCHAR 2F2D
ENCODING 12077
SWIDTH 1000 0
DWIDTH 20 0
BBX 16 16 2 0
BITMAP
0100
0100
0100
8101
8101
8101
8101
8101
8101
8101
8101
8101
8101
8101
FFFF
8001
ENDCHAR
STARTCHAR 2F2E
ENCODING 12078
SWIDTH 1000 0
DWIDTH 20 0
BBX 16 16 2 0
BITMAP
10C2
30C6
3186
2184
610C
6308
C218
C610
C218
4308
610C
2186
3086
30C3
18C3
1000
ENDCHAR
STARTCHAR 2F2F
ENCODING 12079
SWIDTH 1000 0
DWIDTH 20 0
BBX 17 13 1 1
BITMAP
7FFF00
008000
008000
008000
008000
008000
008000
008000
008000
008000
008000
008000
FFFF80
ENDCHAR
STARTCHAR 2F30
ENCODING 12080
SWIDTH 1000 0
DWIDTH 20 0
BBX 17 15 2 0
BITMAP
FFFC00
000400
000400
000400
000400
000400
7FFC00
400400
400400
400000
400100
400180
400100
400100
3FFE00
ENDCHAR
STARTCHAR 2F31
ENCODING 12081
SWIDTH 1000 0
DWIDTH 20 0
BBX 15 18 3 -1
BITMAP
0200
0200
0200
0200
FFFE
8202
8202
8202
8202
8202
8202
8202
8202
823E
8200
0200
0200
0200
ENDCHAR
STARTCHAR 2F32
ENCODING 12082
SWIDTH 1000 0
DWIDTH 20 0
BBX 17 16 1 -2
BITMAP
7FFF00
008000
008000
008000
008000
008000
008000
FFFF80
008000
008000
008000
008000
008000
008000
008000
008000
ENDCHAR
STARTCHAR 2F33
ENCODING 12083
SWIDTH 1000 0
DWIDTH 20 0
BBX 16 16 2 -1
BITMAP
0100
0180
0300
0600
0418
6C30
3830
1860
0CC0
0780
0310
0618
0C0C
1806
FFFF
FC03
ENDCHAR
STARTCHAR 2F34
ENCODING 12084
SWIDTH 1000 0
DWIDTH 20 0
BBX 16 17 2 -2
BITMAP
0080
0080
0080
7FFF
4000
4000
4000
4000
4000
4000
4000
4000
4000
C000
8000
8000
8000
ENDCHAR
STARTCHAR 2F35
ENCODING 12085
SWIDTH 1000 0
DWIDTH 20 0
BBX 17 16 2 -1
BITMAP
7C0000
0C0000
080000
180000
300000
3E0000
620000
060000
260000
340000
140000
0C0000
1E0000
330000
60FF80
C00000
ENDCHAR
STARTCHAR 2F36
ENCODING 12086
SWIDTH 1000 0
DWIDTH 20 0
BBX 17 17 1 -2
BITMAP
040800
040800
040800
040800
040800
040800
040800
FFFF80
040800
040800
040800
040800
080800
080800
100800
700800
600800
ENDCHAR
STARTCHAR 2F37
ENCODING 12087
SWIDTH 1000 0
DWIDTH 20 0
BBX 17 17 2 0
BITMAP
020000
023000
021C00
020800
030000
07FF00
FFE000
030000
010000
018000
018000
00C000
006100
007180
003980
001F00
000700
ENDCHAR
STARTCHAR 2F38
ENCODING 12088
SWIDTH 1000 0
DWIDTH 20 0
BBX 14 15 3 -1
BITMAP
FFF8
0008
0008
0008
7FF8
6008
4000
4000
FFFC
C00C
C00C
000C
0008
0208
03F0
ENDCHAR
STARTCHAR 2F39
ENCODING 12089
SWIDTH 1000 0
DWIDTH 20 0
BBX 17 14 1 1
BITMAP
3FF800
000800
000800
000800
000800
000800
3FF800
000800
000800
000800
000800
000800
000800
FFFF80
ENDCHAR
STARTCHAR 2F3A
ENCODING 12090
SWIDTH 1000 0
DWIDTH 20 0
BBX 14 17 3 -1
BITMAP
0060
00C0
0180
0700
1C00
F030
C060
00C0
0380
0E0C
7818
2030
0060
01C0
0700
7C00
7000
ENDCHAR
STARTCHAR 2F3B
ENCODING 12091
SWIDTH 1000 0
DWIDTH 20 0
BBX 9 17 5 -1
BITMAP
0300
0600
0C00
1800
7180
C100
0200
0400
0C00
3C00
7400
C400
0400
0400
0400
0400
0400
ENDCHAR
STARTCHAR 2F3C
ENCODING 12092
SWIDTH 1000 0
DWIDTH 20 0
BBX 17 17 1 -1
BITMAP
020000
038000
00E000
006000
040000
040000
240C00
240400
640600
640300
640300
440900
C40980
840900
040800
041800
03F000
ENDCHAR
STARTCHAR 2F3D
ENCODING 12093
SWIDTH 1000 0
DWIDTH 20 0
BBX 17 17 2 -1
BITMAP
023000
021800
020C00
020000
030100
FFFF00
030000
030C00
010C00
019800
01B000
00E000
01C100
036180
0E3180
781900
E00700
ENDCHAR
STARTCHAR 2F3E
ENCODING 12094
SWIDTH 1000 0
DWIDTH 20 0
BBX 17 16 2 -2
BITMAP
FFFF80
000000
000000
3FFE00
200200
200200
200200
200200
3FFE00
200200
200000
200000
600000
400000
C00000
800000
ENDCHAR
STARTCHAR 2F3F
ENCODING 12095
SWIDTH 1000 0
DWIDTH 20 0
BBX 18 16 1 0
BITMAP
003E00
3FF000
104000
004000
004000
3FFF00
004000
004000
004000
FFFFC0
004000
004000
004000
004000
044000
07C000
ENDCHAR
STARTCHAR 2F40
ENCODING 12096
SWIDTH 1000 0
DWIDTH 20 0
BBX 17 18 1 -1
BITMAP
008000
008000
008000
FFFF80
008000
008000
008000
008000
3FFE00
0C0C00
041800
061800
033000
01E000
00C000
037000
1E1F80
700300
ENDCHAR
STARTCHAR 2F41
ENCODING 12097
SWIDTH 1000 0
DWIDTH 20 0
BBX 16 18 2 -1
BITMAP
0100
0100
0100
01FE
0100
0100
0100
0100
7FFC
1818
0818
0430
0660
03C0
01C0
0670
3C1F
E003
ENDCHAR
STARTCHAR 2F42
ENCODING 12098
SWIDTH 1000 0
DWIDTH 20 0
BBX 17 17 1 -1
BITMAP
008000
008000
008000
008000
FFFF80
081800
0C1800
041000
063000
022000
036000
01C000
00C000
036000
063800
3C0F00
700300
ENDCHAR
STARTCHAR 2F43
ENCODING 12099
SWIDTH 1000 0
DWIDTH 20 0
BBX 17 17 2 -1
BITMAP
001000
0C1000
061000
039000
019000
101000
1C1000
0E1000
071000
001000
003F80
FFF800
F81000
001000
001000
001000
001000
ENDCHAR
STARTCHAR 2F44
ENCODING 12100
SWIDTH 1000 0
DWIDTH 20 0
BBX 17 17 2 -1
BITMAP
007C00
3FF200
200000
200000
200000
200000
3FFF80
201000
201000
201000
201000
201000
601000
401000
C01000
801000
800000
ENDCHAR
STARTCHAR 2F45
ENCODING 12101
SWIDTH 1000 0
DWIDTH 20 0
BBX 17 17 1 0
BITMAP
008000
008000
008000
FFFF80
030000
030000
030000
03FE00
030600
020600
020400
060400
040400
0C0400
180C00
707800
400000
ENDCHAR
STARTCHAR 2F46
ENCODING 12102
SWIDTH 1000 0
DWIDTH 20 0
BBX 17 16 2 -2
BITMAP
3FFE00
008000
008000
008000
018000
FFFF80
018000
018000
014000
014000
034000
064180
0C4180
184180
F04180
C07F00
ENDCHAR
STARTCHAR 2F47
ENCODING 12103
SWIDTH 1000 0
DWIDTH 20 0
BBX 12 16 4 -2
BITMAP
FFF0
8010
8010
8010
8010
8010
FFF0
8010
8010
8010
8010
8010
8010
8010
FFF0
8010
ENDCHAR
STARTCHAR 2F48
ENCODING 12104
SWIDTH 1000 0
DWIDTH 20 0
BBX 14 16 3 -1
BITMAP
FFFC
8004
8004
8004
8004
8004
FFE4
8004
8004
8004
8004
8004
8004
FFFC
8004
8004
ENDCHAR
STARTCHAR 2F49
ENCODING 12105
SWIDTH 1000 0
DWIDTH 20 0
BBX 13 17 3 -2
BITMAP
3FF8
2008
2008
2008
2008
3FF8
2008
2008
2008
2008
3FF8
2008
2008
6008
4008
C008
C1F8
ENDCHAR
STARTCHAR 2F4A
ENCODING 12106
SWIDTH 1000 0
DWIDTH 20 0
BBX 17 17 1 0
BITMAP
008000
008000
008000
008000
FFFF80
01C000
01C000
03E000
02B000
069800
0C8C00
188600
308380
E08180
408000
008000
008000
ENDCHAR
STARTCHAR 2F4B
ENCODING 12107
SWIDTH 1000 0
DWIDTH 20 0
BBX 17 17 1 0
BITMAP
040000
040000
0C0000
0FFF80
18C180
18C300
30C200
60C600
20C400
01A000
013000
031000
021800
060E00
1C0700
F00180
400080
ENDCHAR
STARTCHAR 2F4C
ENCODING 12108
SWIDTH 1000 0
DWIDTH 20 0
BBX 16 16 2 0
BITMAP
0080
0080
0080
0080
0080
1080
10FE
1080
1080
1080
1080
1080
1080
1080
1080
FFFF
ENDCHAR
STARTCHAR 2F4D
ENCODING 12109
SWIDTH 1000 0
DWIDTH 20 0
BBX 16 16 2 -1
BITMAP
FFFF
0300
0200
0600
0FFC
080C
1818
3C18
E730
01A0
00E0
00C0
0380
0E00
3C00
3000
ENDCHAR
STARTCHAR 2F4E
ENCODING 12110
SWIDTH 1000 0
DWIDTH 20 0
BBX 16 16 3 -2
BITMAP
0FE0
0820
0820
0823
1823
3023
E03E
0000
7FF8
0818
0430
0360
01C0
07E0
1C3E
F007
ENDCHAR
STARTCHAR 2F4F
ENCODING 12111
SWIDTH 1000 0
DWIDTH 20 0
BBX 18 16 1 -2
BITMAP
1FFE00
10C200
10C200
10C200
10C200
10C200
FFFFC0
308200
308200
308200
208200
208200
3FFFC0
200600
600600
003C00
ENDCHAR
STARTCHAR 2F50
ENCODING 12112
SWIDTH 1000 0
DWIDTH 20 0
BBX 18 17 1 -1
BITMAP
202000
202000
202000
202000
202180
202700
3FBC00
203000
202000
202000
202000
2020C0
2020C0
23A0C0
3F20C0
F83F80
800000
ENDCHAR
STARTCHAR 2F51
ENCODING 12113
SWIDTH 1000 0
DWIDTH 20 0
BBX 17 17 1 -1
BITMAP
000C00
00F800
7F8000
710000
010000
017E00
7FF800
410000
010000
010F80
7FFE00
F10000
010100
010180
010180
018100
00FF00
ENDCHAR
STARTCHAR 2F52
ENCODING 12114
SWIDTH 1000 0
DWIDTH 20 0
BBX 17 17 1 -1
BITMAP
000400
007C00
3FE000
388000
20C000
20C000
20C000
3FFF00
204000
204000
206000
206100
203180
23B180
3F1980
F80F00
800700
ENDCHAR
STARTCHAR 2F53
ENCODING 12115
SWIDTH 1000 0
DWIDTH 20 0
BBX 16 17 2 0
BITMAP
1800
1000
3FFE
6000
DFF8
C000
0000
FFF8
0008
0008
0008
0008
000D
000D
0005
0007
0003
ENDCHAR
STARTCHAR 2F54
ENCODING 12116
SWIDTH 1000 0
DWIDTH 20 0
BBX 17 17 1 -1
BITMAP
008000
008000
008200
008600
FECC00
06D800
04F000
04E000
0CB000
0CB000
189800
108C00
308600
608380
C08180
808000
078000
ENDCHAR
STARTCHAR 2F55
ENCODING 12117
SWIDTH 1000 0
DWIDTH 20 0
BBX 16 17 2 -1
BITMAP
0100
0100
0100
0106
3106
310C
210C
6198
63B0
4280
0240
0660
0430
0838
381C
F007
C002
ENDCHAR
STARTCHAR 2F56
ENCODING 12118
SWIDTH 1000 0
DWIDTH 20 0
BBX 16 17 2 -2
BITMAP
0004
01FE
3FD0
2110
2110
2118
2118
2118
2108
2108
2108
210C
6104
4106
4103
C103
8100
ENDCHAR
STARTCHAR 2F57
ENCODING 12119
SWIDTH 1000 0
DWIDTH 20 0
BBX 17 16 2 -1
BITMAP
0C3000
081800
180C00
300E00
200600
683300
CC3100
046000
066000
03C000
018000
03C000
067000
1C1C00
780F80
E00100
ENDCHAR
STARTCHAR 2F58
ENCODING 12120
SWIDTH 1000 0
DWIDTH 20 0
BBX 16 17 2 -2
BITMAP
0008
3818
0E30
03E0
01F0
071C
7C0E
6813
0818
0C30
0660
03C0
0180
03E0
0E38
380F
E003
ENDCHAR
STARTCHAR 2F59
ENCODING 12121
SWIDTH 1000 0
DWIDTH 20 0
BBX 10 17 4 -1
BITMAP
0040
2040
2040
2040
2040
3FC0
2040
0040
0040
FFC0
1040
1040
1040
3040
2040
6040
C040
ENDCHAR
STARTCHAR 2F5A
ENCODING 12122
SWIDTH 1000 0
DWIDTH 20 0
BBX 14 17 3 -1
BITMAP
2080
2080
2080
2080
2080
3FFC
2000
2000
2000
3FE0
2020
2020
2020
6020
4020
C020
C020
ENDCHAR
STARTCHAR 2F5B
ENCODING 12123
SWIDTH 1000 0
DWIDTH 20 0
BBX 16 16 3 -2
BITMAP
7FFC
0020
1820
1820
1020
1020
3FFF
20E0
21A0
0320
0620
0C20
3820
E020
C020
01E0
ENDCHAR
STARTCHAR 2F5C
ENCODING 12124
SWIDTH 1000 0
DWIDTH 20 0
BBX 17 18 1 -2
BITMAP
008000
008000
188000
188000
108000
3FFE00
308000
608000
608000
408000
008000
FFFF80
008000
008000
008000
008000
008000
008000
ENDCHAR
STARTCHAR 2F5D
ENCODING 12125
SWIDTH 1000 0
DWIDTH 20 0
BBX 16 16 2 0
BITMAP
0110
0118
0118
0108
0100
FFFF
0100
0180
0280
0240
0260
0430
0C18
180C
7007
E003
ENDCHAR
STARTCHAR 2F5E
ENCODING 12126
SWIDTH 1000 0
DWIDTH 20 0
BBX 17 17 1 -1
BITMAP
008000
008000
008000
FFFF80
010000
010000
030800
321800
1C3000
0C2000
066000
03C800
018C00
030600
061F00
7FFF00
780100
ENDCHAR
STARTCHAR 2F5F
ENCODING 12127
SWIDTH 1000 0
DWIDTH 20 0
BBX 17 15 1 0
BITMAP
7FFF00
008000
008000
008000
008000
008000
3FFE00
008000
009000
009800
009800
008C00
008400
008000
FFFF80
ENDCHAR
STARTCHAR 2F60
ENCODING 12128
SWIDTH 1000 0
DWIDTH 20 0
BBX 16 16 2 -1
BITMAP
007E
3FF8
2118
2118
2108
2108
2108
2108
210C
210C
2104
2126
6136
41F3
DFDB
C001
ENDCHAR
STARTCHAR 2F61
ENCODING 12129
SWIDTH 1000 0
DWIDTH 20 0
BBX 18 16 1 -1
BITMAP
7FFF80
040000
040000
040000
07FC00
0C0C00
0D0800
0D8800
088800
08C800
084800
180840
1828C0
1FE8C0
FE08C0
000F80
ENDCHAR
STARTCHAR 2F62
ENCODING 12130
SWIDTH 1000 0
DWIDTH 20 0
BBX 18 18 1 -2
BITMAP
080400
080400
080400
080400
FFFFC0
080400
080400
080400
080400
0FFC00
080400
080400
080400
080400
080400
0FFC00
080400
080400
ENDCHAR
STARTCHAR 2F63
ENCODING 12131
SWIDTH 1000 0
DWIDTH 20 0
BBX 17 17 1 0
BITMAP
008000
188000
188000
108000
3FFF00
608000
608000
C08000
008000
3FFE00
008000
008000
008000
008000
008000
008000
FFFF80
ENDCHAR
STARTCHAR 2F64
ENCODING 12132
SWIDTH 1000 0
DWIDTH 20 0
BBX 16 16 1 -2
BITMAP
3FFF
2081
2081
2081
3FFF
2081
2081
2081
2081
3FFF
2081
2081
2081
6081
4091
C00F
ENDCHAR
STARTCHAR 2F65
ENCODING 12133
SWIDTH 1000 0
DWIDTH 20 0
BBX 14 16 3 -2
BITMAP
FFFC
8204
8204
8204
8204
8204
8204
FFFC
8204
8204
8204
8204
8204
8204
FFFC
8004
ENDCHAR
STARTCHAR 2F66
ENCODING 12134
SWIDTH 1000 0
DWIDTH 20 0
BBX 16 16 2 -2
BITMAP
FFFE
0106
0104
010C
0108
3100
3100
31FC
2100
2100
7100
7900
4D00
C700
83FF
8001
ENDCHAR
STARTCHAR 2F67
ENCODING 12135
SWIDTH 1000 0
DWIDTH 20 0
BBX 18 18 1 -2
BITMAP
002000
002000
002000
1FFFC0
100000
D00000
500000
500000
100000
100000
700000
D00000
100000
100000
200000
200000
600000
400000
ENDCHAR
STARTCHAR 2F68
ENCODING 12136
SWIDTH 1000 0
DWIDTH 20 0
BBX 18 10 1 3
BITMAP
1FC000
00E600
21AC00
3130C0
1B1980
060E00
0C0600
180380
7001C0
C00000
ENDCHAR
STARTCHAR 2F69
ENCODING 12137
SWIDTH 1000 0
DWIDTH 20 0
BBX 14 17 3 -1
BITMAP
0700
0600
0600
FFFC
8004
8004
8004
8004
FFFC
8004
8004
8004
8004
8004
8004
FFFC
8004
ENDCHAR
STARTCHAR 2F6A
ENCODING 12138
SWIDTH 1000 0
DWIDTH 20 0
BBX 17 18 2 0
BITMAP
004000
004000
004000
3FFF80
204180
204300
204300
204000
3FFE00
260400
230C00
211800
20B000
606000
40F000
C39C00
9E0780
180100
ENDCHAR
STARTCHAR 2F6B
ENCODING 12139
SWIDTH 1000 0
DWIDTH 20 0
BBX 18 14 1 0
BITMAP
3FFF00
221100
221100
221100
221100
221100
221100
221100
221100
221100
221100
221100
221100
FFFFC0
ENDCHAR
STARTCHAR 2F6C
ENCODING 12140
SWIDTH 1000 0
DWIDTH 20 0
BBX 12 16 4 -2
BITMAP
FFF0
8010
8010
8010
FFF0
8010
8010
8010
8010
FFF0
8010
8010
8010
8010
FFF0
8010
ENDCHAR
STARTCHAR 2F6D
ENCODING 12141
SWIDTH 1000 0
DWIDTH 20 0
BBX 16 17 2 -2
BITMAP
3FFC
0018
0430
0E60
0380
0180
00C0
FFFF
0183
0386
068C
0C98
1880
7080
E080
8080
0F80
ENDCHAR
STARTCHAR 2F6E
ENCODING 12142
SWIDTH 1000 0
DWIDTH 20 0
BBX 17 18 1 -2
BITMAP
0C0000
080000
080000
1FFE00
108000
308000
208000
208000
008000
FFFF80
00C000
014000
012000
033000
061800
0C0E00
380780
600100
ENDCHAR
STARTCHAR 2F6F
ENCODING 12143
SWIDTH 1000 0
DWIDTH 20 0
BBX 16 16 2 -2
BITMAP
FFFF
0200
0600
0400
0C00
0800
1FFE
1802
3802
6802
C802
8802
0802
0802
0FFE
0802
ENDCHAR
STARTCHAR 2F70
ENCODING 12144
SWIDTH 1000 0
DWIDTH 20 0
BBX 17 16 1 -1
BITMAP
3FFE00
000000
000000
000000
000000
FFFF80
008000
008000
089800
188C00
308600
608300
E08180
C08100
088000
078000
ENDCHAR
STARTCHAR 2F71
ENCODING 12145
SWIDTH 1000 0
DWIDTH 20 0
BBX 16 17 2 -1
BITMAP
0180
0100
0100
FFFF
8301
8201
8201
8661
8431
8411
8C79
BFE9
900D
8001
8001
8011
801F
ENDCHAR
STARTCHAR 2F72
ENCODING 12146
SWIDTH 1000 0
DWIDTH 20 0
BBX 17 18 1 -1
BITMAP
001C00
0FF800
3F8000
008000
008000
008000
FFFF80
01C000
03E000
02B000
069000
0C9800
188E00
308700
608380
C08000
008000
008000
ENDCHAR
STARTCHAR 2F73
ENCODING 12147
SWIDTH 1000 0
DWIDTH 20 0
BBX 16 17 2 -1
BITMAP
0100
0100
0100
FFFF
8001
8001
8C61
0C60
0C20
0C30
0830
1818
100C
300E
6007
C003
8000
ENDCHAR
STARTCHAR 2F74
ENCODING 12148
SWIDTH 1000 0
DWIDTH 20 0
BBX 17 16 1 1
BITMAP
008000
008000
008000
7FFF00
000000
180800
180800
081800
0C1800
0C1800
041000
043000
063000
062000
002000
FFFF80
ENDCHAR
STARTCHAR 2F75
ENCODING 12149
SWIDTH 1000 0
DWIDTH 20 0
BBX 18 17 1 -1
BITMAP
001000
101800
301800
303000
3FBFC0
686200
C86200
88C200
888200
080200
080200
080200
080200
080200
080200
080200
083E00
ENDCHAR
STARTCHAR 2F76
ENCODING 12150
SWIDTH 1000 0
DWIDTH 20 0
BBX 17 18 1 -1
BITMAP
008000
008600
308600
188C00
088800
089800
008000
FFFF80
01C000
03E000
02B000
069800
0C8C00
188600
308380
E08180
408000
008000
ENDCHAR
STARTCHAR 2F77
ENCODING 12151
SWIDTH 1000 0
DWIDTH 20 0
BBX 16 18 2 -1
BITMAP
0100
0300
0610
3430
1C60
0CC0
0798
030C
067E
FFFB
0100
1130
1118
310C
6106
C103
8100
0100
ENDCHAR
STARTCHAR 2F78
ENCODING 12152
SWIDTH 1000 0
DWIDTH 20 0
BBX 18 17 1 -1
BITMAP
080000
180000
1FFF00
308000
208000
608000
008000
FFFFC0
008000
208100
208100
208100
208100
208100
208100
3FFF00
200100
ENDCHAR
STARTCHAR 2F79
ENCODING 12153
SWIDTH 1000 0
DWIDTH 20 0
BBX 16 16 2 -2
BITMAP
FFFF
8001
8209
8209
8619
B6D9
9E71
8C31
8E39
8F2D
9965
90C1
B0C1
A181
8001
801F
ENDCHAR
STARTCHAR 2F7A
ENCODING 12154
SWIDTH 1000 0
DWIDTH 20 0
BBX 17 18 1 -1
BITMAP
0C1800
061000
023000
7FFF00
008000
008000
008000
3FFE00
008000
008000
008000
008000
FFFF80
008000
008000
008000
008000
008000
ENDCHAR
STARTCHAR 2F7B
ENCODING 12155
SWIDTH 1000 0
DWIDTH 20 0
BBX 17 16 1 -1
BITMAP
7F7F80
010080
212080
313080
111880
190C80
010080
010280
0D0E80
191880
717080
E14080
010080
010080
110880
1F0F80
ENDCHAR
STARTCHAR 2F7C
ENCODING 12156
SWIDTH 1000 0
DWIDTH 20 0
BBX 18 17 1 0
BITMAP
008000
008100
008300
1FFE00
010E00
010C00
011800
FFFFC0
01C000
038000
060E00
1E7C00
73C000
C20080
020180
020180
03FF00
ENDCHAR
STARTCHAR 2F7D
ENCODING 12157
SWIDTH 1000 0
DWIDTH 20 0
BBX 16 16 2 -1
BITMAP
FFFF
0180
0300
0300
7FFE
4422
4422
4422
4422
4422
4422
4422
4422
4422
4432
400E
ENDCHAR
STARTCHAR 2F7E
ENCODING 12158
SWIDTH 1000 0
DWIDTH 20 0
BBX 17 19 1 -2
BITMAP
008000
008000
00BE00
7FF800
008000
008000
3FFE00
008000
008000
008000
FFFF80
01C000
03A000
069800
0C8C00
388700
E08380
408000
008000
ENDCHAR
STARTCHAR 2F7F
ENCODING 12159
SWIDTH 1000 0
DWIDTH 20 0
BBX 17 17 2 -2
BITMAP
FFFF00
100800
100800
100800
1FF800
100800
100800
100800
1FF800
100800
100800
100F80
7FFE00
FC0800
000800
000800
000800
ENDCHAR
STARTCHAR 2F80
ENCODING 12160
SWIDTH 1000 0
DWIDTH 20 0
BBX 18 17 1 -1
BITMAP
008000
008000
3FFE00
008600
FFFFC0
008600
008600
3FFE00
008000
008000
7FFF00
008000
008000
FFFFC0
008000
008000
008000
ENDCHAR
STARTCHAR 2F81
ENCODING 12161
SWIDTH 1000 0
DWIDTH 20 0
BBX 16 18 2 0
BITMAP
0100
0100
0100
FFFF
8101
8381
82E1
8C39
B90F
A101
8301
82E1
8C31
B81D
A001
8001
801F
8000
ENDCHAR
STARTCHAR 2F82
ENCODING 12162
SWIDTH 1000 0
DWIDTH 20 0
BBX 15 16 3 -2
BITMAP
FFFC
8200
8200
8200
FFF8
8008
8008
8008
8008
FFF8
8208
8200
8200
8200
FFFE
8000
ENDCHAR
STARTCHAR 2F83
ENCODING 12163
SWIDTH 1000 0
DWIDTH 20 0
BBX 14 18 3 -2
BITMAP
0700
0600
0600
FFFC
8004
8004
8004
8004
FFFC
8004
8004
8004
FFFC
8004
8004
8004
FFFC
8004
ENDCHAR
STARTCHAR 2F84
ENCODING 12164
SWIDTH 1000 0
DWIDTH 20 0
BBX 17 15 1 0
BITMAP
7FFF00
030000
021000
061800
040C00
3FFE00
3FE300
008200
008000
008000
3FFE00
008000
008000
008000
FFFF80
ENDCHAR
STARTCHAR 2F85
ENCODING 12165
SWIDTH 1000 0
DWIDTH 20 0
BBX 14 16 3 -1
BITMAP
1C00
F1FC
8004
8004
8004
8004
8004
FCFC
8004
8004
8004
8004
8004
8004
FFFC
8004
ENDCHAR
STARTCHAR 2F86
ENCODING 12166
SWIDTH 1000 0
DWIDTH 20 0
BBX 16 17 2 -1
BITMAP
00FC
7FC0
4100
0100
0100
FFFF
0100
0100
0100
0100
3FFC
2004
2004
2004
2004
3FFC
2004
ENDCHAR
STARTCHAR 2F87
ENCODING 12167
SWIDTH 1000 0
DWIDTH 20 0
BBX 18 17 1 -1
BITMAP
080200
080200
080200
1F8200
19FFC0
118200
313200
392200
6F2200
C72200
027FC0
066200
040200
0C0200
180200
300200
200200
ENDCHAR
STARTCHAR 2F88
ENCODING 12168
SWIDTH 1000 0
DWIDTH 20 0
BBX 18 17 1 -1
BITMAP
008000
018000
0FFE00
090200
098200
08C200
08E200
084200
FFFFC0
080200
088200
088200
088200
108200
108200
302200
203E00
ENDCHAR
STARTCHAR 2F89
ENCODING 12169
SWIDTH 1000 0
DWIDTH 20 0
BBX 16 16 2 -2
BITMAP
3FFC
2004
2004
3FFC
2004
2004
2004
3FFC
2182
2087
20CC
2078
2030
2398
3F0E
F003
ENDCHAR
STARTCHAR 2F8A
ENCODING 12170
SWIDTH 1000 0
DWIDTH 20 0
BBX 18 16 1 1
BITMAP
060000
07F800
0C1000
183000
302000
7FFF00
D04100
104100
104100
1FFF00
100100
100000
1000C0
1000C0
1000C0
0FFF80
ENDCHAR
STARTCHAR 2F8B
ENCODING 12171
SWIDTH 1000 0
DWIDTH 20 0
BBX 16 17 2 -1
BITMAP
1008
1008
1008
9249
9249
9249
9249
9249
9249
9249
FE7F
9249
1008
3008
2008
6008
C008
ENDCHAR
STARTCHAR 2F8C
ENCODING 12172
SWIDTH 1000 0
DWIDTH 20 0
BBX 16 17 2 -1
BITMAP
0100
0100
01FC
0100
0100
7FFF
4002
4106
4100
4106
5FFE
4100
4102
C102
8102
81FE
8000
ENDCHAR
STARTCHAR 2F8D
ENCODING 12173
SWIDTH 1000 0
DWIDTH 20 0
BBX 17 18 2 -2
BITMAP
010000
010000
010000
010000
7FFE00
410200
410200
410200
410200
410200
7FFE00
410000
410C00
010400
010200
01FF00
FFF180
800180
ENDCHAR
STARTCHAR 2F8E
ENCODING 12174
SWIDTH 1000 0
DWIDTH 20 0
BBX 18 16 1 1
BITMAP
01C000
018000
010000
3FFF00
221100
221100
221100
221100
221100
221100
221100
221100
221100
221100
221100
FFFFC0
ENDCHAR
STARTCHAR 2F8F
ENCODING 12175
SWIDTH 1000 0
DWIDTH 20 0
BBX 18 17 1 -2
BITMAP
080000
19FF80
300000
600000
CC0000
080000
1BFFC0
300200
700200
700200
D00200
100200
100200
100200
100200
104200
103E00
ENDCHAR
STARTCHAR 2F90
ENCODING 12176
SWIDTH 1000 0
DWIDTH 20 0
BBX 17 17 1 0
BITMAP
008000
008000
008000
7FFF80
014000
034200
024700
046E00
0C3800
1C3000
741000
C41800
040C00
05E600
078380
3C0180
200000
ENDCHAR
STARTCHAR 2F91
ENCODING 12177
SWIDTH 1000 0
DWIDTH 20 0
BBX 18 14 1 -1
BITMAP
FFFFC0
021000
021000
021000
7FFF80
421080
421080
421080
421080
421080
43F080
421080
400080
400080
ENDCHAR
STARTCHAR 2F92
ENCODING 12178
SWIDTH 1000 0
DWIDTH 20 0
BBX 16 18 2 -2
BITMAP
3FFC
2004
2004
3FFC
2004
2004
3FFC
2004
2004
2004
3FFC
0620
0620
0C21
0C21
3821
F03F
8000
ENDCHAR
STARTCHAR 2F93
ENCODING 12179
SWIDTH 1000 0
DWIDTH 20 0
BBX 16 17 1 -1
BITMAP
0600
07F8
0C10
1820
3FFF
F041
1041
1FFF
1041
1041
1041
1FFF
1001
1001
3001
2001
601F
ENDCHAR
STARTCHAR 2F94
ENCODING 12180
SWIDTH 1000 0
DWIDTH 20 0
BBX 16 17 2 -2
BITMAP
3FFC
0000
0000
FFFF
0000
0000
3FFC
0000
3FFC
0000
0000
3FFC
2004
2004
2004
3FFC
2004
ENDCHAR
STARTCHAR 2F95
ENCODING 12181
SWIDTH 1000 0
DWIDTH 20 0
BBX 18 17 1 -2
BITMAP
000800
0C0C00
180600
380300
61E180
416000
033000
061C00
1C0600
300380
FFFEC0
900200
100200
100200
100200
1FFE00
100200
ENDCHAR
STARTCHAR 2F96
ENCODING 12182
SWIDTH 1000 0
DWIDTH 20 0
BBX 18 16 1 -1
BITMAP
7FFF80
000000
000000
1FFE00
100200
100200
100200
100200
1FFE00
000800
0C0C00
0C0800
061800
061800
001000
FFFFC0
ENDCHAR
STARTCHAR 2F97
ENCODING 12183
SWIDTH 1000 0
DWIDTH 20 0
BBX 16 17 2 -2
BITMAP
FFFF
03C0
06C0
0C40
3E46
E36C
8738
0DB0
3190
E398
864C
0C46
3843
E041
C040
0440
0780
ENDCHAR
STARTCHAR 2F98
ENCODING 12184
SWIDTH 1000 0
DWIDTH 20 0
BBX 12 17 3 -1
BITMAP
01C0
0700
7D10
60B0
08E0
0D80
0700
3880
E1C0
0660
1C70
70B0
4330
0630
1C30
7030
03E0
ENDCHAR
STARTCHAR 2F99
ENCODING 12185
SWIDTH 1000 0
DWIDTH 20 0
BBX 16 17 2 -2
BITMAP
3FFC
2004
2004
2004
3FFC
2004
2004
2004
3FFC
2004
2004
2004
3FFC
0020
1C38
380E
E007
ENDCHAR
STARTCHAR 2F9A
ENCODING 12186
SWIDTH 1000 0
DWIDTH 20 0
BBX 18 18 1 -2
BITMAP
008000
008000
008000
3FFF00
008000
008000
008000
FFFFC0
031000
131000
131600
131300
321100
621180
C61080
0C1000
1C1000
18F000
ENDCHAR
STARTCHAR 2F9B
ENCODING 12187
SWIDTH 1000 0
DWIDTH 20 0
BBX 17 18 1 -2
BITMAP
008000
008000
008000
3FFE00
008000
008000
008000
FFFF80
008000
108000
188000
188000
10FE00
308000
388000
6C8000
638000
C0FF80
ENDCHAR
STARTCHAR 2F9C
ENCODING 12188
SWIDTH 1000 0
DWIDTH 20 0
BBX 16 16 2 -1
BITMAP
3FFC
2004
2004
2004
2004
3FFC
2104
0100
1100
31FE
2100
3100
6900
4700
C1FF
8000
ENDCHAR
STARTCHAR 2F9D
ENCODING 12189
SWIDTH 1000 0
DWIDTH 20 0
BBX 16 18 2 0
BITMAP
0100
0300
1FF8
1008
1008
1FF8
1009
100B
1FFE
100C
1018
FFF8
6068
00C8
0388
0E08
7808
6078
ENDCHAR
STARTCHAR 2F9E
ENCODING 12190
SWIDTH 1000 0
DWIDTH 20 0
BBX 18 17 1 -1
BITMAP
008000
008000
7FFF80
008000
3FFF00
208300
208300
3FFF00
208300
208300
3FFF00
008000
008000
FFFFC0
008000
008000
008000
ENDCHAR
STARTCHAR 2F9F
ENCODING 12191
SWIDTH 1000 0
DWIDTH 20 0
BBX 17 19 1 -2
BITMAP
008000
008000
008000
7FFF00
0C1800
041000
041000
063000
FFFF80
008000
008000
008000
008000
7FFF00
008000
008000
008000
008000
008000
ENDCHAR
STARTCHAR 2FA0
ENCODING 12192
SWIDTH 1000 0
DWIDTH 20 0
BBX 16 16 2 -2
BITMAP
7FFE
4000
4000
5FFC
4000
4000
4000
7FFF
44C0
4446
446C
4438
C430
845C
87CF
BC03
ENDCHAR
STARTCHAR 2FA1
ENCODING 12193
SWIDTH 1000 0
DWIDTH 20 0
BBX 17 16 1 -1
BITMAP
003E00
07E000
3C0600
007800
3FC100
100F00
01F800
7F8000
008000
108000
10FF00
108000
388000
2C8000
678000
C1FF80
ENDCHAR
STARTCHAR 2FA2
ENCODING 12194
SWIDTH 1000 0
DWIDTH 20 0
BBX 16 15 2 0
BITMAP
3FFC
2004
2004
3FFC
0000
0000
FFFE
8102
8102
FFFE
8000
8001
8001
8001
FFFF
ENDCHAR
STARTCHAR 2FA3
ENCODING 12195
SWIDTH 1000 0
DWIDTH 20 0
BBX 16 16 2 -1
BITMAP
FFFF
0440
0440
0440
7FFE
4442
4442
484E
587A
7002
4002
7FFE
4002
4002
7FFE
4002
ENDCHAR
STARTCHAR 2FA4
ENCODING 12196
SWIDTH 1000 0
DWIDTH 20 0
BBX 17 18 1 -1
BITMAP
007E00
7FF000
008400
108C00
188800
0C9800
089000
FFFF80
01C000
03E000
06B000
049800
0C8C00
388700
708380
C08100
008000
008000
ENDCHAR
STARTCHAR 2FA5
ENCODING 12197
SWIDTH 1000 0
DWIDTH 20 0
BBX 18 17 1 -1
BITMAP
3FFF00
208100
208100
208100
3FFF00
208100
208100
208100
3FFF00
008000
008000
008000
7FFF80
008000
008000
008000
FFFFC0
ENDCHAR
STARTCHAR 2FA6
ENCODING 12198
SWIDTH 1000 0
DWIDTH 20 0
BBX 17 18 1 -1
BITMAP
008000
01C000
036000
063000
0C1800
180E00
3FFF80
E08180
C08000
008000
7FFF00
008000
188C00
088C00
0C8800
0C9800
008000
FFFF80
ENDCHAR
STARTCHAR 2FA7
ENCODING 12199
SWIDTH 1000 0
DWIDTH 20 0
BBX 17 17 2 -1
BITMAP
1FFE00
100000
100000
1FFC00
100000
100000
1FFC00
100000
FFFF80
118200
108600
105C00
107000
10B800
1F8E00
FC0780
400000
ENDCHAR
STARTCHAR 2FA8
ENCODING 12200
SWIDTH 1000 0
DWIDTH 20 0
BBX 16 17 2 -1
BITMAP
FE7F
8241
8241
FE7F
8241
8241
FE7F
8241
8001
8001
8001
8001
8001
8001
8001
8011
801F
ENDCHAR
STARTCHAR 2FA9
ENCODING 12201
SWIDTH 1000 0
DWIDTH 20 0
BBX 17 18 2 -1
BITMAP
030000
020000
3FFC00
200C00
200C00
3FFC00
200000
200000
3FFE00
200600
200600
3FFE00
010000
010000
FFFF80
010000
010000
010000
ENDCHAR
STARTCHAR 2FAA
ENCODING 12202
SWIDTH 1000 0
DWIDTH 20 0
BBX 18 18 1 -1
BITMAP
008000
008000
3FFE00
008600
FFFFC0
008600
008600
3FFE00
008000
30C300
1CE600
08BC00
06B800
0C9C00
388E00
608380
048100
078000
ENDCHAR
STARTCHAR 2FAB
ENCODING 12203
SWIDTH 1000 0
DWIDTH 20 0
BBX 17 18 2 -2
BITMAP
102000
182000
102000
306000
3FFF80
604000
604000
E04000
BFFE00
204000
204000
204000
3FFE00
204000
204000
204000
3FFF80
200000
ENDCHAR
STARTCHAR 2FAC
ENCODING 12204
SWIDTH 1000 0
DWIDTH 20 0
BBX 18 17 1 -2
BITMAP
FFFFC0
008000
008000
008000
7FFF80
408080
58B080
4C9C80
468C80
408080
58B880
4C9C80
468680
408080
408080
408F80
400000
ENDCHAR
STARTCHAR 2FAD
ENCODING 12205
SWIDTH 1000 0
DWIDTH 20 0
BBX 18 18 1 -2
BITMAP
008000
008000
7FFF80
008000
008000
3FFF00
008000
FFFFC0
000000
1FFE00
108200
108200
108200
1FFE00
100200
100200
100200
103E00
ENDCHAR
STARTCHAR 2FAE
ENCODING 12206
SWIDTH 1000 0
DWIDTH 20 0
BBX 18 17 1 -1
BITMAP
021000
021000
021000
7E1FC0
021000
021000
021000
7E1F80
021000
021000
03D000
7F1FC0
E61000
041000
0C1000
181000
301000
ENDCHAR
STARTCHAR 2FAF
ENCODING 12207
SWIDTH 1000 0
DWIDTH 20 0
BBX 18 16 1 -2
BITMAP
FFFFC0
00C000
008000
018000
7FFF80
421080
421080
43F080
421080
421080
421080
43F080
421080
421080
7FFF80
400080
ENDCHAR
STARTCHAR 2FB0
ENCODING 12208
SWIDTH 1000 0
DWIDTH 20 0
BBX 16 17 2 -1
BITMAP
0810
0810
FFFF
0810
0FF0
0100
0100
3FFC
2104
2104
3FFC
0100
0100
FFFF
0100
0100
0100
ENDCHAR
STARTCHAR 2FB1
ENCODING 12209
SWIDTH 1000 0
DWIDTH 20 0
BBX 18 19 1 -2
BITMAP
00C000
008000
1FFC00
018400
018400
FFFFC0
000000
1FFE00
180600
1FFE00
002000
002000
1FFF00
182000
182000
FFFFC0
002000
002000
002000
ENDCHAR
STARTCHAR 2FB2
ENCODING 12210
SWIDTH 1000 0
DWIDTH 20 0
BBX 18 18 1 -1
BITMAP
022000
022000
022000
022000
FE3F80
022000
022000
022000
7E3F00
022000
022000
022000
022000
7E3F00
022000
022000
022000
FFFFC0
ENDCHAR
STARTCHAR 2FB3
ENCODING 12211
SWIDTH 1000 0
DWIDTH 20 0
BBX 18 17 1 0
BITMAP
008000
008000
7FFF80
0C0C00
041800
061800
FFFFC0
000000
000000
1FFE00
100200
100200
1FFE00
100200
100200
1FFE00
100200
ENDCHAR
STARTCHAR 2FB4
ENCODING 12212
SWIDTH 1000 0
DWIDTH 20 0
BBX 16 18 2 -2
BITMAP
FFFF
0100
0100
0300
3FFC
2004
3FFC
2004
2004
3FFC
2004
2004
2004
3FFC
0430
1C1C
F007
C000
ENDCHAR
STARTCHAR 2FB5
ENCODING 12213
SWIDTH 1000 0
DWIDTH 20 0
BBX 18 17 1 -2
BITMAP
3FFE00
200200
201A00
2FF200
208200
208200
27FA00
248A00
248A00
248A00
27FA00
248200
209940
408940
40FD40
DFC5C0
800480
ENDCHAR
STARTCHAR 2FB6
ENCODING 12214
SWIDTH 1000 0
DWIDTH 20 0
BBX 17 17 2 -2
BITMAP
7FE000
002600
053C00
3D3C00
F11200
111900
110D00
110700
FFF000
111600
111C00
111E00
311300
211880
610980
C10500
810300
ENDCHAR
STARTCHAR 2FB7
ENCODING 12215
SWIDTH 1000 0
DWIDTH 20 0
BBX 17 17 2 -1
BITMAP
038000
06C000
046000
1D3800
391C00
7FFF00
901880
1FF800
101800
101800
1FF800
110E00
109800
107000
113800
3F1F00
700300
ENDCHAR
STARTCHAR 2FB8
ENCODING 12216
SWIDTH 1000 0
DWIDTH 20 0
BBX 18 17 1 0
BITMAP
0C0C00
061800
061000
FFFFC0
008000
008000
1FFE00
100200
100200
1FFE00
100200
100200
1FFE00
100200
100200
1FFE00
100200
ENDCHAR
STARTCHAR 2FB9
ENCODING 12217
SWIDTH 1000 0
DWIDTH 20 0
BBX 18 18 1 -2
BITMAP
000C00
3FFE00
008000
008000
FFFFC0
03E000
06B000
0C9C00
388700
E001C0
9FFE00
100600
100600
1FFE00
100600
100600
1FFE00
100600
ENDCHAR
STARTCHAR 2FBA
ENCODING 12218
SWIDTH 1000 0
DWIDTH 20 0
BBX 17 18 1 -2
BITMAP
3FFF00
20C000
20C000
3FFE00
20C000
20C000
3FFE00
20C000
20C000
3FFF80
000180
209980
64C980
64CD80
464180
C60100
001100
001F00
ENDCHAR
STARTCHAR 2FBB
ENCODING 12219
SWIDTH 1000 0
DWIDTH 20 0
BBX 16 17 2 -2
BITMAP
3FFC
200C
200C
21FC
210C
210C
FFFF
8001
9FF9
1008
1008
1FF8
1008
1FF8
1008
1008
1078
ENDCHAR
STARTCHAR 2FBC
ENCODING 12220
SWIDTH 1000 0
DWIDTH 20 0
BBX 18 19 1 -1
BITMAP
008000
008000
FFFFC0
000000
000000
0FFC00
080400
0FFC00
000000
000000
7FFF80
400080
47F880
441880
441880
47F880
440080
400F80
400000
ENDCHAR
STARTCHAR 2FBD
ENCODING 12221
SWIDTH 1000 0
DWIDTH 20 0
BBX 18 17 1 -2
BITMAP
000100
3FC180
200300
3F8E00
201C80
203180
3F8180
200300
200600
FFDC40
1018C0
130080
318180
218300
3FC600
785C00
001000
ENDCHAR
STARTCHAR 2FBE
ENCODING 12222
SWIDTH 1000 0
DWIDTH 20 0
BBX 16 17 2 -2
BITMAP
8001
BEFD
8811
BE7D
8811
8811
BFFD
8001
8001
8001
8001
8001
8001
8001
8001
8001
800F
ENDCHAR
STARTCHAR 2FBF
ENCODING 12223
SWIDTH 1000 0
DWIDTH 20 0
BBX 15 17 3 0
BITMAP
8624
F244
CD84
A734
8794
9864
E734
C104
FFFC
0000
8038
8FF0
FC00
8006
8006
8004
FFF8
ENDCHAR
STARTCHAR 2FC0
ENCODING 12224
SWIDTH 1000 0
DWIDTH 20 0
BBX 18 18 1 -2
BITMAP
FFFFC0
000000
000000
0FFC00
080400
0FFC00
000000
000000
7FFF80
426080
426680
4E3E80
5C0080
47F880
408080
408080
408880
400F80
ENDCHAR
STARTCHAR 2FC1
ENCODING 12225
SWIDTH 1000 0
DWIDTH 20 0
BBX 16 18 2 -1
BITMAP
0380
0300
3FFC
2104
2104
3FFC
2104
2104
2104
3FFC
0440
045C
0C54
0C5E
1871
3041
E07F
8000
ENDCHAR
STARTCHAR 2FC2
ENCODING 12226
SWIDTH 1000 0
DWIDTH 20 0
BBX 17 17 2 -1
BITMAP
0C0000
0FF000
182000
304000
7FFE00
E08200
208200
3FFE00
208200
208200
208200
3FFE00
000000
266200
666300
423180
C33180
ENDCHAR
STARTCHAR 2FC3
ENCODING 12227
SWIDTH 1000 0
DWIDTH 20 0
BBX 18 19 1 -1
BITMAP
018000
010000
3FFE00
200200
200200
3FFE00
200200
3FFE00
200000
3FFFC0
200000
3FFF80
001080
6C9980
6CCD80
44CD80
C44180
841100
000F00
ENDCHAR
STARTCHAR 2FC4
ENCODING 12228
SWIDTH 1000 0
DWIDTH 20 0
BBX 16 19 2 -2
BITMAP
0180
0180
01FE
0180
0180
FFFF
8009
B319
9991
8E21
A349
B1CD
93E5
8631
9999
B0CD
8081
FFFF
8001
ENDCHAR
STARTCHAR 2FC5
ENCODING 12229
SWIDTH 1000 0
DWIDTH 20 0
BBX 17 18 1 -1
BITMAP
008000
008000
3FFF80
221000
221000
3FFF00
221100
221100
3FFF00
200000
241000
241300
279F00
241000
641080
479080
DE1F80
400000
ENDCHAR
STARTCHAR 2FC6
ENCODING 12230
SWIDTH 1000 0
DWIDTH 20 0
BBX 17 19 1 -2
BITMAP
008000
008000
FFFF80
088000
088C00
189800
3DD600
67A300
46B000
0C0C00
190600
63FB80
C61080
1F3000
30E000
01F000
071C00
7C0600
200000
ENDCHAR
STARTCHAR 2FC7
ENCODING 12231
SWIDTH 1000 0
DWIDTH 20 0
BBX 18 19 1 -2
BITMAP
004000
004000
004000
7FFFC0
400000
420400
420400
420400
5FFFC0
420400
470E00
478E00
4EDD00
5A5580
5224C0
F264C0
824400
820400
020400
ENDCHAR
STARTCHAR 2FC8
ENCODING 12232
SWIDTH 1000 0
DWIDTH 20 0
BBX 18 18 1 -2
BITMAP
061800
061800
3FFF00
061800
07F800
000000
FFFFC0
00C000
00C000
1FFE00
10C200
1FFE00
10C200
10C200
1FFE00
041800
1E0F00
700180
ENDCHAR
STARTCHAR 2FC9
ENCODING 12233
SWIDTH 1000 0
DWIDTH 20 0
BBX 17 17 1 0
BITMAP
00FC00
3FC000
008000
FFFF80
03E000
069800
188E00
F1C380
023000
0C9C00
388780
EC8980
04D000
07F800
1C8E00
748300
038000
ENDCHAR
STARTCHAR 2FCA
ENCODING 12234
SWIDTH 1000 0
DWIDTH 20 0
BBX 18 17 1 -2
BITMAP
1FFE00
10C200
10C200
1FFE00
10C200
10C200
1FFE00
00C000
00C000
3FFF00
00C000
FFFFC0
000200
132300
333100
611180
610000
ENDCHAR
STARTCHAR 2FCB
ENCODING 12235
SWIDTH 1000 0
DWIDTH 20 0
BBX 18 18 1 -1
BITMAP
112300
112200
192200
192600
FFFFC0
048C00
1C8700
7081C0
FFFF00
208100
228900
228900
268900
268900
268900
248100
208F00
200000
ENDCHAR
STARTCHAR 2FCC
ENCODING 12236
SWIDTH 1000 0
DWIDTH 20 0
BBX 17 17 2 -1
BITMAP
7FFE00
444200
444200
444200
7C7E00
044000
FC7F00
844100
844100
FC7F00
844100
844100
FC7F00
844000
044080
040080
07FF80
ENDCHAR
STARTCHAR 2FCD
ENCODING 12237
SWIDTH 1000 0
DWIDTH 20 0
BBX 18 17 1 -2
BITMAP
27F900
240900
27F900
240900
27F900
240900
240900
27F900
200100
3E1F00
021000
FE1FC0
1A1100
1A1100
121100
321100
621100
ENDCHAR
STARTCHAR 2FCE
ENCODING 12238
SWIDTH 1000 0
DWIDTH 20 0
BBX 18 18 1 -1
BITMAP
080400
080400
FF8400
088400
08FFC0
7F0400
000400
000400
7F7F80
411080
411180
7F1900
220F00
220600
360600
279B00
FE31C0
E0E040
ENDCHAR
STARTCHAR 2FCF
ENCODING 12239
SWIDTH 1000 0
DWIDTH 20 0
BBX 18 17 2 -2
BITMAP
060000
7CFF00
400300
7EFF00
400300
400300
7FFF00
000000
596600
4D3600
451600
514600
5D7200
451AC0
4503C0
7DFB80
E7C180
ENDCHAR
STARTCHAR 2FD0
ENCODING 12240
SWIDTH 1000 0
DWIDTH 20 0
BBX 18 18 1 -2
BITMAP
008000
1FFE00
1FFE00
100200
1FFE00
100200
1FFE00
3FFF00
204100
3FFF00
204100
3FFF00
060800
060800
FFFFC0
060800
0C0800
300800
ENDCHAR
STARTCHAR 2FD1
ENCODING 12241
SWIDTH 1000 0
DWIDTH 20 0
BBX 17 17 1 -1
BITMAP
008000
008000
FFFF80
023100
7F6F00
368A00
248900
6C9D80
C08080
100200
1FFE00
100200
100200
1FFE00
100200
300200
600200
ENDCHAR
STARTCHAR 2FD2
ENCODING 12242
SWIDTH 1000 0
DWIDTH 20 0
BBX 18 19 1 -2
BITMAP
00C000
00C000
08FE00
08C000
08C000
FFFFC0
021000
221100
273900
256D00
284500
3FFF00
221100
223100
273100
2D6D00
284500
3FFF00
200100
ENDCHAR
STARTCHAR 2FD3
ENCODING 12243
SWIDTH 1000 0
DWIDTH 20 0
BBX 18 18 1 -1
BITMAP
082000
082000
083F80
FFA000
222000
263F80
FF8080
003F80
7F2000
412000
413F80
7F2000
413F80
7F2000
413F80
412040
4120C0
4F3F80
ENDCHAR
STARTCHAR 2FD4
ENCODING 12244
SWIDTH 1000 0
DWIDTH 20 0
BBX 18 19 1 -1
BITMAP
060000
0FF000
182000
3FFF80
D12180
9F2180
013F80
7D2000
053F80
FFE080
7D2E80
012680
7D2B80
052080
FFFF80
052000
7D2040
010040
01FF80
ENDCHAR
STARTCHAR 2FD5
ENCODING 12245
SWIDTH 1000 0
DWIDTH 20 0
BBX 17 19 2 -2
BITMAP
018000
03C000
0E7000
181C00
FFF780
800080
7BDF00
4A5300
4A5300
7BDF00
000000
7FFE00
442200
442200
7FFE00
442200
442200
442200
400E00
ENDCHAR
STARTCHAR 2FF0
ENCODING 12272
SWIDTH 1000 0
DWIDTH 20 0
BBX 0 0 3 0
BITMAP
ENDCHAR
STARTCHAR 2FF1
ENCODING 12273
SWIDTH 1000 0
DWIDTH 20 0
BBX 0 0 3 0
BITMAP
ENDCHAR
STARTCHAR 2FF2
ENCODING 12274
SWIDTH 1000 0
DWIDTH 20 0
BBX 0 0 3 0
BITMAP
ENDCHAR
STARTCHAR 2FF3
ENCODING 12275
SWIDTH 1000 0
DWIDTH 20 0
BBX 0 0 3 0
BITMAP
ENDCHAR
STARTCHAR 2FF4
ENCODING 12276
SWIDTH 1000 0
DWIDTH 20 0
BBX 0 0 3 0
BITMAP
ENDCHAR
STARTCHAR 2FF5
ENCODING 12277
SWIDTH 1000 0
DWIDTH 20 0
BBX 0 0 3 0
BITMAP
ENDCHAR
STARTCHAR 2FF6
ENCODING 12278
SWIDTH 1000 0
DWIDTH 20 0
BBX 0 0 3 0
BITMAP
ENDCHAR
STARTCHAR 2FF7
ENCODING 12279
SWIDTH 1000 0
DWIDTH 20 0
BBX 0 0 3 0
BITMAP
ENDCHAR
STARTCHAR 2FF8
ENCODING 12280
SWIDTH 1000 0
DWIDTH 20 0
BBX 0 0 3 0
BITMAP
ENDCHAR
STARTCHAR 2FF9
ENCODING 12281
SWIDTH 1000 0
DWIDTH 20 0
BBX 0 0 3 0
BITMAP
ENDCHAR
STARTCHAR 2FFA
ENCODING 12282
SWIDTH 1000 0
DWIDTH 20 0
BBX 0 0 3 0
BITMAP
ENDCHAR
STARTCHAR 2FFB
ENCODING 12283
SWIDTH 1000 0
DWIDTH 20 0
BBX 1 1 9 4
BITMAP
80
ENDCHAR
STARTCHAR 3000
ENCODING 12288
SWIDTH 1000 0
DWIDTH 20 0
BBX 0 0 0 0
BITMAP
ENDCHAR
STARTCHAR 3001
ENCODING 12289
SWIDTH 1000 0
DWIDTH 20 0
BBX 4 4 1 -1
BITMAP
C0
60
30
10
ENDCHAR
STARTCHAR 3002
ENCODING 12290
SWIDTH 1000 0
DWIDTH 20 0
BBX 5 5 1 -1
BITMAP
70
C8
88
88
70
ENDCHAR
STARTCHAR 3003
ENCODING 12291
SWIDTH 1000 0
DWIDTH 20 0
BBX 9 9 5 3
BITMAP
1980
1980
3100
3300
2300
6200
6600
4400
CC00
ENDCHAR
STARTCHAR 3004
ENCODING 12292
SWIDTH 1000 0
DWIDTH 20 0
BBX 18 19 1 -2
BITMAP
01C000
061800
181600
201100
601100
401080
C05040
807040
804040
804040
834040
84C040
4400C0
440080
220180
210100
190200
070C00
007000
ENDCHAR
STARTCHAR 3005
ENCODING 12293
SWIDTH 1000 0
DWIDTH 20 0
BBX 13 13 3 1
BITMAP
0600
0400
0C00
0FF8
1818
1030
2020
6460
C6C0
0380
00C0
0060
0040
ENDCHAR
STARTCHAR 3006
ENCODING 12294
SWIDTH 1000 0
DWIDTH 20 0
BBX 14 14 3 1
BITMAP
000C
0018
0030
1C60
13C0
21C0
21C0
6360
4620
4C00
D800
B000
E000
C000
ENDCHAR
STARTCHAR 3007
ENCODING 12295
SWIDTH 1000 0
DWIDTH 20 0
BBX 16 17 2 -1
BITMAP
07E0
0818
300C
2006
4002
C003
8001
8001
8001
8001
8001
C002
4002
6004
3008
1810
07E0
ENDCHAR
STARTCHAR 3008
ENCODING 12296
SWIDTH 1000 0
DWIDTH 20 0
BBX 8 18 11 -2
BITMAP
03
06
04
0C
18
10
20
60
C0
80
C0
60
30
10
18
0C
06
02
ENDCHAR
STARTCHAR 3009
ENCODING 12297
SWIDTH 1000 0
DWIDTH 20 0
BBX 8 18 1 -2
BITMAP
C0
60
20
30
18
08
04
06
03
01
03
06
0C
08
18
30
60
40
ENDCHAR
STARTCHAR 300A
ENCODING 12298
SWIDTH 1000 0
DWIDTH 20 0
BBX 8 18 11 -2
BITMAP
0D
0B
1A
16
24
2C
48
D0
90
A0
90
58
48
2C
34
12
1A
09
ENDCHAR
STARTCHAR 300B
ENCODING 12299
SWIDTH 1000 0
DWIDTH 20 0
BBX 8 18 1 -2
BITMAP
B0
D0
58
68
24
34
12
0A
09
05
09
1A
12
34
2C
48
58
90
ENDCHAR
STARTCHAR 300C
ENCODING 12300
SWIDTH 1000 0
DWIDTH 20 0
BBX 5 14 13 2
BITMAP
F8
80
80
80
80
80
80
80
80
80
80
80
80
80
ENDCHAR
STARTCHAR 300D
ENCODING 12301
SWIDTH 1000 0
DWIDTH 20 0
BBX 5 14 2 0
BITMAP
08
08
08
08
08
08
08
08
08
08
08
08
08
F8
ENDCHAR
STARTCHAR 300E
ENCODING 12302
SWIDTH 1000 0
DWIDTH 20 0
BBX 7 15 12 2
BITMAP
FE
82
82
BE
A0
A0
A0
A0
A0
A0
A0
A0
A0
A0
E0
ENDCHAR
STARTCHAR 300F
ENCODING 12303
SWIDTH 1000 0
DWIDTH 20 0
BBX 7 14 1 -1
BITMAP
0E
0A
0A
0A
0A
0A
0A
0A
0A
0A
0A
FA
82
FE
ENDCHAR
STARTCHAR 3010
ENCODING 12304
SWIDTH 1000 0
DWIDTH 20 0
BBX 4 18 14 -1
BITMAP
F0
E0
E0
C0
C0
80
80
80
80
80
80
80
80
C0
C0
E0
E0
F0
ENDCHAR
STARTCHAR 3011
ENCODING 12305
SWIDTH 1000 0
DWIDTH 20 0
BBX 4 18 2 -1
BITMAP
F0
70
70
30
30
10
10
10
10
10
10
10
10
30
30
70
70
F0
ENDCHAR
STARTCHAR 3012
ENCODING 12306
SWIDTH 1000 0
DWIDTH 20 0
BBX 14 16 3 -1
BITMAP
FFFC
FFFC
0000
0000
0000
FFFC
FFFC
0300
0300
0300
0300
0300
0300
0300
0300
0300
ENDCHAR
STARTCHAR 3013
ENCODING 12307
SWIDTH 1000 0
DWIDTH 20 0
BBX 14 9 3 3
BITMAP
FFFC
FFFC
FFFC
0000
0000
0000
FFFC
FFFC
FFFC
ENDCHAR
STARTCHAR 3014
ENCODING 12308
SWIDTH 1000 0
DWIDTH 20 0
BBX 4 17 14 -1
BITMAP
30
E0
80
80
80
80
80
80
80
80
80
80
80
80
80
F0
10
ENDCHAR
STARTCHAR 3015
ENCODING 12309
SWIDTH 1000 0
DWIDTH 20 0
BBX 4 17 2 -1
BITMAP
C0
70
10
10
10
10
10
10
10
10
10
10
10
10
10
F0
80
ENDCHAR
STARTCHAR 3016
ENCODING 12310
SWIDTH 1000 0
DWIDTH 20 0
BBX 6 18 12 -1
BITMAP
FC
88
98
90
90
A0
A0
A0
A0
A0
A0
A0
A0
90
90
98
88
FC
ENDCHAR
STARTCHAR 3017
ENCODING 12311
SWIDTH 1000 0
DWIDTH 20 0
BBX 6 18 2 -1
BITMAP
FC
44
64
24
24
14
14
14
14
14
14
14
14
24
24
64
44
FC
ENDCHAR
STARTCHAR 3018
ENCODING 12312
SWIDTH 1000 0
DWIDTH 20 0
BBX 7 18 12 -2
BITMAP
02
0E
72
82
8E
90
90
90
90
90
90
90
90
90
8E
C2
32
0E
ENDCHAR
STARTCHAR 3019
ENCODING 12313
SWIDTH 1000 0
DWIDTH 20 0
BBX 7 18 1 -2
BITMAP
80
E0
9C
82
E2
12
12
12
12
12
12
12
12
12
E2
86
98
E0
ENDCHAR
STARTCHAR 301C
ENCODING 12316
SWIDTH 1000 0
DWIDTH 20 0
BBX 16 5 2 5
BITMAP
3C00
6300
8181
00C6
003C
ENDCHAR
STARTCHAR 301D
ENCODING 12317
SWIDTH 1000 0
DWIDTH 20 0
BBX 6 8 13 8
BITMAP
40
E0
30
18
44
E0
30
0C
ENDCHAR
STARTCHAR 301F
ENCODING 12319
SWIDTH 1000 0
DWIDTH 20 0
BBX 6 9 1 -2
BITMAP
80
60
30
1C
88
60
38
18
08
ENDCHAR
STARTCHAR 3020
ENCODING 12320
SWIDTH 1000 0
DWIDTH 20 0
BBX 18 13 1 1
BITMAP
3FFF00
3FFF00
000000
3FFF00
3FFF00
00C000
88C440
94CA40
98CE40
40C080
240900
123200
0DCC00
ENDCHAR
STARTCHAR 3033
ENCODING 12339
SWIDTH 1000 0
DWIDTH 20 0
BBX 8 17 5 -2
BITMAP
03
03
03
06
06
04
0C
0C
18
18
30
30
60
60
C0
C0
80
ENDCHAR
STARTCHAR 3034
ENCODING 12340
SWIDTH 1000 0
DWIDTH 20 0
BBX 12 17 5 -2
BITMAP
0300
0300
0300
0600
0600
0400
0C00
0C60
1930
19B0
30C0
3000
6000
6000
C000
C000
8000
ENDCHAR
STARTCHAR 3035
ENCODING 12341
SWIDTH 1000 0
DWIDTH 20 0
BBX 10 19 4 -1
BITMAP
C000
4000
6000
6000
3000
1800
1800
0C00
0C00
0600
0600
0300
0300
0300
0180
0180
00C0
00C0
0080
ENDCHAR
STARTCHAR 3036
ENCODING 12342
SWIDTH 1000 0
DWIDTH 20 0
BBX 19 19 1 -2
BITMAP
03F800
0E0E00
180300
200080
6000C0
5FFE40
DFFE60
800020
9FFE20
9FFE20
80C020
80C020
C0C060
40C040
60C0C0
20C080
180300
0E0E00
03F800
ENDCHAR
STARTCHAR 303B
ENCODING 12347
SWIDTH 1000 0
DWIDTH 20 0
BBX 7 13 7 1
BITMAP
C0
60
30
1C
78
80
80
C0
60
18
3E
E0
80
ENDCHAR
STARTCHAR 303C
ENCODING 12348
SWIDTH 1000 0
DWIDTH 20 0
BBX 16 17 2 -1
BITMAP
FFFF
8003
8007
800D
8019
8031
8061
80C1
8181
8301
8601
8C01
9801
B001
E001
C001
FFFF
ENDCHAR
STARTCHAR 303D
ENCODING 12349
SWIDTH 1000 0
DWIDTH 20 0
BBX 15 17 3 -2
BITMAP
E000
B300
1480
1880
08C0
0040
0040
0060
0060
0020
0030
0030
0010
0018
0008
000C
0006
ENDCHAR
STARTCHAR 3041
ENCODING 12353
SWIDTH 1000 0
DWIDTH 20 0
BBX 12 13 4 0
BITMAP
0800
0880
7F80
0800
1980
1FE0
3B30
5A10
DE10
8C10
9820
E8E0
0180
ENDCHAR
STARTCHAR 3042
ENCODING 12354
SWIDTH 1000 0
DWIDTH 20 0
BBX 16 17 2 -1
BITMAP
0600
0600
0610
07F0
7C00
0420
0460
07FC
1C46
34C3
6481
4501
8701
8602
9E06
747C
0060
ENDCHAR
STARTCHAR 3043
ENCODING 12355
SWIDTH 1000 0
DWIDTH 20 0
BBX 13 10 4 1
BITMAP
C000
C0C0
C060
C020
4030
4010
6418
6C00
3C00
1800
ENDCHAR
STARTCHAR 3044
ENCODING 12356
SWIDTH 1000 0
DWIDTH 20 0
BBX 15 13 3 1
BITMAP
8000
8030
8010
C018
C00C
C00C
C006
C006
4202
6600
6600
3C00
1800
ENDCHAR
STARTCHAR 3045
ENCODING 12357
SWIDTH 1000 0
DWIDTH 20 0
BBX 9 14 5 -1
BITMAP
1800
0E00
0200
0000
1F00
F180
0080
0080
0080
0080
0100
0300
0E00
1800
ENDCHAR
STARTCHAR 3046
ENCODING 12358
SWIDTH 1000 0
DWIDTH 20 0
BBX 11 17 4 0
BITMAP
1C00
0F00
0380
0000
0000
1F80
F840
C020
0020
0020
0020
0060
0040
00C0
0380
1E00
0800
ENDCHAR
STARTCHAR 3047
ENCODING 12359
SWIDTH 1000 0
DWIDTH 20 0
BBX 12 13 4 0
BITMAP
1E00
0300
0000
0700
7D00
0300
0600
0C00
1F00
3900
6100
C110
01F0
ENDCHAR
STARTCHAR 3048
ENCODING 12360
SWIDTH 1000 0
DWIDTH 20 0
BBX 14 17 3 -1
BITMAP
0800
1F00
01C0
0000
0000
0FC0
7EC0
0180
0300
0600
0F80
1880
3080
2080
4080
C07C
8000
ENDCHAR
STARTCHAR 3049
ENCODING 12361
SWIDTH 1000 0
DWIDTH 20 0
BBX 14 12 3 0
BITMAP
0C00
0C20
0F98
7E0C
0C00
0DE0
0E10
3C08
CC08
8C08
8C10
7DE0
ENDCHAR
STARTCHAR 304A
ENCODING 12362
SWIDTH 1000 0
DWIDTH 20 0
BBX 16 15 3 0
BITMAP
0C00
0C10
0C1C
FFCE
FC03
0C00
0C00
0FF8
1E04
3C02
4C02
8C02
8C06
4C1C
3CF8
ENDCHAR
STARTCHAR 304B
ENCODING 12363
SWIDTH 1000 0
DWIDTH 20 0
BBX 17 15 2 0
BITMAP
060000
060000
060800
040C00
7FC400
FC6600
082300
082100
182180
102000
302000
206000
604000
64C000
C78000
ENDCHAR
STARTCHAR 304C
ENCODING 12364
SWIDTH 1000 0
DWIDTH 20 0
BBX 17 16 2 0
BITMAP
000100
060580
060680
061300
041800
7FCC00
FC6600
082600
082300
182100
102000
302000
206000
604000
64C000
C78000
ENDCHAR
STARTCHAR 304D
ENCODING 12365
SWIDTH 1000 0
DWIDTH 20 0
BBX 13 17 4 0
BITMAP
1800
0C40
0DE0
FF00
E610
03F8
0FC0
FD80
0080
00C0
3FE0
40E0
8000
8000
8000
6040
1FC0
ENDCHAR
STARTCHAR 304E
ENCODING 12366
SWIDTH 1000 0
DWIDTH 20 0
BBX 17 18 3 0
BITMAP
000200
0C0B00
042D80
07E600
FF8000
730800
017800
0FE000
FEC000
004000
006000
1FF000
207000
400000
400000
400000
302000
0FE000
ENDCHAR
STARTCHAR 304F
ENCODING 12367
SWIDTH 1000 0
DWIDTH 20 0
BBX 9 16 5 0
BITMAP
0300
0600
0C00
1C00
3800
7000
C000
C000
6000
3000
1800
0C00
0600
0300
0380
0100
ENDCHAR
STARTCHAR 3050
ENCODING 12368
SWIDTH 1000 0
DWIDTH 20 0
BBX 14 17 4 -1
BITMAP
0100
0180
0318
066C
0C34
1810
7000
E000
C000
6000
3000
1C00
0E00
0600
0300
0180
0080
ENDCHAR
STARTCHAR 3051
ENCODING 12369
SWIDTH 1000 0
DWIDTH 20 0
BBX 15 16 3 -1
BITMAP
6030
4030
4030
C010
803E
87F0
8010
8010
8010
9010
A010
E030
E020
4060
41C0
0180
ENDCHAR
STARTCHAR 3052
ENCODING 12370
SWIDTH 1000 0
DWIDTH 20 0
BBX 17 18 3 -2
BITMAP
000300
000500
403580
403600
403000
C03000
803E00
87F000
801000
801000
801000
B01000
A01000
E03000
C02000
C06000
41C000
030000
ENDCHAR
STARTCHAR 3053
ENCODING 12371
SWIDTH 1000 0
DWIDTH 20 0
BBX 12 14 4 0
BITMAP
4020
7FE0
0380
0600
0400
0000
0000
4000
C000
8000
8000
8000
6030
1FF0
ENDCHAR
STARTCHAR 3054
ENCODING 12372
SWIDTH 1000 0
DWIDTH 20 0
BBX 16 16 3 1
BITMAP
0002
0009
002D
3FE6
0180
0300
0400
0000
0000
4000
6000
8000
8000
8000
6018
1FF8
ENDCHAR
STARTCHAR 3055
ENCODING 12373
SWIDTH 1000 0
DWIDTH 20 0
BBX 14 16 3 -1
BITMAP
0200
0600
0308
033C
03E0
FF80
00C0
0040
0060
1FB0
2078
4010
4000
4000
3000
0FE0
ENDCHAR
STARTCHAR 3056
ENCODING 12374
SWIDTH 1000 0
DWIDTH 20 0
BBX 17 17 3 0
BITMAP
000200
040B00
060D80
060600
027000
07E000
FF0000
018000
00C000
004000
3FA000
40F000
803000
800000
800000
600000
1FC000
ENDCHAR
STARTCHAR 3057
ENCODING 12375
SWIDTH 1000 0
DWIDTH 20 0
BBX 12 16 5 0
BITMAP
C000
C000
C000
C000
C000
C000
C000
C000
C000
C000
C010
C030
C060
40C0
6180
3E00
ENDCHAR
STARTCHAR 3058
ENCODING 12376
SWIDTH 1000 0
DWIDTH 20 0
BBX 12 16 5 0
BITMAP
C060
C1B0
C090
C040
C000
C000
C000
C000
C000
C000
C030
C030
C060
C0C0
6180
3E00
ENDCHAR
STARTCHAR 3059
ENCODING 12377
SWIDTH 1000 0
DWIDTH 20 0
BBX 16 17 2 -2
BITMAP
00C0
00C0
00C0
7FFF
FFFF
00C0
07C0
09C0
10C0
10C0
10C0
09C0
07C0
0080
0180
0700
0C00
ENDCHAR
STARTCHAR 305A
ENCODING 12378
SWIDTH 1000 0
DWIDTH 20 0
BBX 17 18 2 -1
BITMAP
000300
00CD00
00C480
00C400
7FFF00
FFFF00
00C000
07C000
09C000
10C000
10C000
10C000
09C000
07C000
008000
018000
070000
0C0000
ENDCHAR
STARTCHAR 305B
ENCODING 12379
SWIDTH 1000 0
DWIDTH 20 0
BBX 17 15 1 0
BITMAP
001800
0C1800
0C1800
0C1800
0C7F80
FFFF80
0C1800
0C1800
0C1800
0C9800
0C7800
0C0000
0C0000
0E0000
07FE00
ENDCHAR
STARTCHAR 305C
ENCODING 12380
SWIDTH 1000 0
DWIDTH 20 0
BBX 18 16 1 0
BITMAP
0000C0
001B40
0C1940
0C1900
0C1800
0C1F80
FFFF80
0C1800
0C1800
0C1800
0C1800
0C7800
0C0000
0C0000
0E0000
07FE00
ENDCHAR
STARTCHAR 305D
ENCODING 12381
SWIDTH 1000 0
DWIDTH 20 0
BBX 15 16 2 0
BITMAP
03F0
1FB0
0060
00C0
0180
020E
0FFE
FCC0
0100
0300
0200
0200
0200
0180
00F8
0038
ENDCHAR
STARTCHAR 305E
ENCODING 12382
SWIDTH 1000 0
DWIDTH 20 0
BBX 17 16 2 0
BITMAP
03F100
1FB480
006280
00C300
010000
061E00
0FFE00
FCC000
010000
030000
020000
020000
020000
010000
00F800
003800
ENDCHAR
STARTCHAR 305F
ENCODING 12383
SWIDTH 1000 0
DWIDTH 20 0
BBX 16 16 2 -1
BITMAP
0600
0600
0400
0580
FFC0
0C00
0800
08FE
1880
1000
3000
3000
2100
6100
4080
C07F
ENDCHAR
STARTCHAR 3060
ENCODING 12384
SWIDTH 1000 0
DWIDTH 20 0
BBX 16 16 2 0
BITMAP
0406
0603
0609
0484
FFC4
0C00
0800
08FE
1880
1000
3000
3000
2100
6100
6180
C07F
ENDCHAR
STARTCHAR 3061
ENCODING 12385
SWIDTH 1000 0
DWIDTH 20 0
BBX 15 16 2 -1
BITMAP
0600
0600
0400
FFF0
FF80
0C00
0800
0800
19F8
1704
1C02
1002
0002
0004
003C
07F0
ENDCHAR
STARTCHAR 3062
ENCODING 12386
SWIDTH 1000 0
DWIDTH 20 0
BBX 17 18 2 -1
BITMAP
000100
060180
040680
040200
FFF200
FFC000
0C0000
080000
080000
19F800
170400
1C0200
300200
000200
000400
001C00
07F000
060000
ENDCHAR
STARTCHAR 3063
ENCODING 12387
SWIDTH 1000 0
DWIDTH 20 0
BBX 12 10 4 -1
BITMAP
0FC0
7820
C010
0010
0010
0010
0030
0060
07C0
1E00
ENDCHAR
STARTCHAR 3064
ENCODING 12388
SWIDTH 1000 0
DWIDTH 20 0
BBX 15 12 2 0
BITMAP
07F0
7C0C
E004
8002
0002
0002
0002
0006
000C
0038
07F0
0780
ENDCHAR
STARTCHAR 3065
ENCODING 12389
SWIDTH 1000 0
DWIDTH 20 0
BBX 17 15 2 1
BITMAP
000300
000D80
000680
03F200
3E0C00
F00400
800200
000200
000200
000200
000600
000C00
001800
00F000
0FC000
ENDCHAR
STARTCHAR 3066
ENCODING 12390
SWIDTH 1000 0
DWIDTH 20 0
BBX 15 14 2 0
BITMAP
01FE
FFF8
E0C0
0100
0200
0200
0400
0400
0400
0400
0600
0300
01E0
0078
ENDCHAR
STARTCHAR 3067
ENCODING 12391
SWIDTH 1000 0
DWIDTH 20 0
BBX 16 14 2 0
BITMAP
01FE
FFF8
E0C0
0106
020B
020D
0406
0400
0400
0400
0600
0300
01E0
0078
ENDCHAR
STARTCHAR 3068
ENCODING 12392
SWIDTH 1000 0
DWIDTH 20 0
BBX 12 15 4 0
BITMAP
3000
1000
1000
1800
1860
09E0
0F00
1C00
3000
4000
8000
8000
8000
4000
3FF0
ENDCHAR
STARTCHAR 3069
ENCODING 12393
SWIDTH 1000 0
DWIDTH 20 0
BBX 15 16 4 0
BITMAP
0008
3024
1012
1018
1800
1860
09E0
0F00
1C00
3000
4000
8000
8000
8000
4000
3FF0
ENDCHAR
STARTCHAR 306A
ENCODING 12394
SWIDTH 1000 0
DWIDTH 20 0
BBX 16 17 2 0
BITMAP
0600
0400
0400
0F88
FF8E
0807
1833
1030
3030
3030
6030
43F0
C638
043E
0433
0630
01E0
ENDCHAR
STARTCHAR 306B
ENCODING 12395
SWIDTH 1000 0
DWIDTH 20 0
BBX 15 15 3 -1
BITMAP
4000
4000
43FC
C3FC
C000
8000
8000
8000
8000
B000
A400
E400
C400
C206
C1FC
ENDCHAR
STARTCHAR 306C
ENCODING 12396
SWIDTH 1000 0
DWIDTH 20 0
BBX 17 15 2 1
BITMAP
00C000
408000
408000
63F800
2D8C00
398200
310300
530100
DB0100
8A0100
8E7B00
8E8E00
988700
708D80
007800
ENDCHAR
STARTCHAR 306D
ENCODING 12397
SWIDTH 1000 0
DWIDTH 20 0
BBX 17 16 2 0
BITMAP
080000
080000
187C00
7CC600
FB0200
1E0100
1C0100
180100
380100
380100
78F300
D90E00
990700
198D80
08F800
080000
ENDCHAR
STARTCHAR 306E
ENCODING 12398
SWIDTH 1000 0
DWIDTH 20 0
BBX 16 14 2 -1
BITMAP
07F0
1C98
3186
6182
4181
C101
8101
8301
8201
8603
8406
4C0C
3878
00E0
ENDCHAR
STARTCHAR 306F
ENCODING 12399
SWIDTH 1000 0
DWIDTH 20 0
BBX 16 15 2 0
BITMAP
2010
6010
4010
401E
43FE
C010
8010
8010
8010
9010
93F0
F41C
E417
6631
63E0
ENDCHAR
STARTCHAR 3070
ENCODING 12400
SWIDTH 1000 0
DWIDTH 20 0
BBX 18 17 2 -1
BITMAP
000100
000480
2012C0
601300
401000
401600
43FE00
C01000
801000
801000
801000
901000
93F000
F43C00
E41700
663300
63E000
ENDCHAR
STARTCHAR 3071
ENCODING 12401
SWIDTH 1000 0
DWIDTH 20 0
BBX 18 18 2 -1
BITMAP
000380
000440
201440
601380
601000
401600
43FE00
C01000
801000
801000
801000
901000
93F000
F43C00
E41700
E63300
63E000
400000
ENDCHAR
STARTCHAR 3072
ENCODING 12402
SWIDTH 1000 0
DWIDTH 20 0
BBX 16 15 2 0
BITMAP
0610
3E18
F418
080C
100E
200A
200B
4009
4008
4008
4018
4010
2030
1060
0F80
ENDCHAR
STARTCHAR 3073
ENCODING 12403
SWIDTH 1000 0
DWIDTH 20 0
BBX 17 18 2 0
BITMAP
000300
000180
000480
061200
3E3200
FC1800
081C00
101400
201600
201300
401100
401000
401000
401000
402000
206000
30C000
0F8000
ENDCHAR
STARTCHAR 3074
ENCODING 12404
SWIDTH 1000 0
DWIDTH 20 0
BBX 18 17 2 -1
BITMAP
000380
000440
061440
3E3380
FC1800
081C00
101400
201600
201300
401100
401000
401000
401000
402000
206000
30C000
0F8000
ENDCHAR
STARTCHAR 3075
ENCODING 12405
SWIDTH 1000 0
DWIDTH 20 0
BBX 17 15 1 1
BITMAP
038000
01E000
007000
000000
000000
018000
018000
008600
10C600
306300
203180
601180
C41080
C61000
03E000
ENDCHAR
STARTCHAR 3076
ENCODING 12406
SWIDTH 1000 0
DWIDTH 20 0
BBX 18 16 1 0
BITMAP
000100
038080
01E6C0
007300
000100
000000
018000
018000
008600
10C600
306300
203180
601180
C41080
C61000
03E000
ENDCHAR
STARTCHAR 3077
ENCODING 12407
SWIDTH 1000 0
DWIDTH 20 0
BBX 18 15 1 1
BITMAP
038380
01E440
007440
000380
000000
018000
018000
008600
10C600
306300
203180
601180
C41080
C61000
03E000
ENDCHAR
STARTCHAR 3078
ENCODING 12408
SWIDTH 1000 0
DWIDTH 20 0
BBX 17 9 2 2
BITMAP
060000
0F0000
198000
30C000
607000
C03800
800E00
000780
000100
ENDCHAR
STARTCHAR 3079
ENCODING 12409
SWIDTH 1000 0
DWIDTH 20 0
BBX 16 12 2 3
BITMAP
000C
0016
001A
0608
0F08
1980
38C0
7060
E038
C01C
0007
0003
ENDCHAR
STARTCHAR 307A
ENCODING 12410
SWIDTH 1000 0
DWIDTH 20 0
BBX 16 11 2 2
BITMAP
000C
0012
0612
0F0C
1980
38C0
7060
E038
C01C
0007
0003
ENDCHAR
STARTCHAR 307B
ENCODING 12411
SWIDTH 1000 0
DWIDTH 20 0
BBX 16 15 2 0
BITMAP
6002
63FE
4010
4010
4010
C7FF
8010
8010
8010
9010
B3F0
F43C
E417
6631
63E0
ENDCHAR
STARTCHAR 307C
ENCODING 12412
SWIDTH 1000 0
DWIDTH 20 0
BBX 18 17 2 0
BITMAP
000100
000680
6002C0
67FB00
403000
403000
C03000
87FE00
803000
801000
801000
901000
A3F000
A43C00
E41F00
C63300
43E000
ENDCHAR
STARTCHAR 307D
ENCODING 12413
SWIDTH 1000 0
DWIDTH 20 0
BBX 18 17 2 -1
BITMAP
000380
000440
600440
67FC40
403380
403000
C03000
87FE00
803000
801000
801000
901000
A3F000
A43C00
E41F00
C63300
43E000
ENDCHAR
STARTCHAR 307E
ENCODING 12414
SWIDTH 1000 0
DWIDTH 20 0
BBX 14 16 3 0
BITMAP
0100
0100
0100
83FC
FF80
0100
0100
43F8
3F00
0100
0100
3F00
63C0
4170
611C
3F08
ENDCHAR
STARTCHAR 307F
ENCODING 12415
SWIDTH 1000 0
DWIDTH 20 0
BBX 17 14 2 0
BITMAP
3F8000
308000
018000
018400
010400
030400
1FFC00
663C00
C40F00
8C0B80
881800
983000
706000
00C000
ENDCHAR
STARTCHAR 3080
ENCODING 12416
SWIDTH 1000 0
DWIDTH 20 0
BBX 17 15 2 1
BITMAP
080000
080000
0F8800
FF0C00
080600
080300
780180
480000
880000
880C00
980400
700400
100400
100C00
0FF000
ENDCHAR
STARTCHAR 3081
ENCODING 12417
SWIDTH 1000 0
DWIDTH 20 0
BBX 16 15 2 0
BITMAP
0040
2040
20C0
33F0
3E9C
3886
3983
5901
CB01
8E01
8601
8E03
9A06
701C
00F0
ENDCHAR
STARTCHAR 3082
ENCODING 12418
SWIDTH 1000 0
DWIDTH 20 0
BBX 14 17 3 -1
BITMAP
0400
0400
0C00
0C00
FFC0
0C00
0800
0800
F9C0
FFD8
1808
1004
1004
1004
180C
0C18
07E0
ENDCHAR
STARTCHAR 3083
ENCODING 12419
SWIDTH 1000 0
DWIDTH 20 0
BBX 14 14 3 -1
BITMAP
0200
0300
3180
10F8
1F04
3C04
E804
0C18
04F0
0600
0600
0200
0300
0300
ENDCHAR
STARTCHAR 3084
ENCODING 12420
SWIDTH 1000 0
DWIDTH 20 0
BBX 16 17 2 0
BITMAP
0100
01C0
30C0
1000
187E
1F83
3C01
FC01
8403
060E
067C
0200
0300
0300
0100
0180
0180
ENDCHAR
STARTCHAR 3085
ENCODING 12421
SWIDTH 1000 0
DWIDTH 20 0
BBX 12 13 4 -1
BITMAP
0300
C100
8FC0
9920
B110
E110
C110
8930
8D60
87C0
8200
0600
0C00
ENDCHAR
STARTCHAR 3086
ENCODING 12422
SWIDTH 1000 0
DWIDTH 20 0
BBX 16 17 2 -2
BITMAP
0040
0040
4040
40F8
C3FC
8662
8821
9021
B021
E021
C622
C366
41F8
40C0
0080
0180
0300
ENDCHAR
STARTCHAR 3087
ENCODING 12423
SWIDTH 1000 0
DWIDTH 20 0
BBX 11 12 5 0
BITMAP
0800
0800
0800
0FC0
0C00
0C00
0C00
0C00
7C00
8F80
8DE0
7C40
ENDCHAR
STARTCHAR 3088
ENCODING 12424
SWIDTH 1000 0
DWIDTH 20 0
BBX 13 15 3 1
BITMAP
0200
0200
0200
0230
03F8
0200
0200
0200
0200
0200
7F00
C3E0
8370
C218
7E00
ENDCHAR
STARTCHAR 3089
ENCODING 12425
SWIDTH 1000 0
DWIDTH 20 0
BBX 13 17 4 0
BITMAP
1800
0E00
0300
4100
6000
6000
4000
4000
47E0
DC10
F008
E008
0008
0010
00F0
0FC0
0E00
ENDCHAR
STARTCHAR 308A
ENCODING 12426
SWIDTH 1000 0
DWIDTH 20 0
BBX 10 16 5 0
BITMAP
C0C0
C0C0
8040
8040
8040
9040
B040
A040
C040
C040
0080
0080
0180
0700
1E00
0800
ENDCHAR
STARTCHAR 308B
ENCODING 12427
SWIDTH 1000 0
DWIDTH 20 0
BBX 14 16 3 -1
BITMAP
03C0
3FC0
01C0
0180
0300
0600
0FE0
1C18
3008
E004
C004
0F04
118C
10B8
18F0
0FC0
ENDCHAR
STARTCHAR 308C
ENCODING 12428
SWIDTH 1000 0
DWIDTH 20 0
BBX 17 17 2 -1
BITMAP
080000
080000
080000
087000
FDC800
CB0800
0E0800
0C0800
181000
381000
381000
781000
D81080
981300
180E00
180000
180000
ENDCHAR
STARTCHAR 308D
ENCODING 12429
SWIDTH 1000 0
DWIDTH 20 0
BBX 13 16 4 -1
BITMAP
0380
7FC0
0180
0300
0600
0C00
1BE0
3C10
7008
E008
8008
0008
0010
00F0
1FC0
1C00
ENDCHAR
STARTCHAR 308E
ENCODING 12430
SWIDTH 1000 0
DWIDTH 20 0
BBX 14 13 3 0
BITMAP
0800
0800
1800
79F0
1E08
1C04
1804
3804
7804
D808
1830
19E0
1800
ENDCHAR
STARTCHAR 308F
ENCODING 12431
SWIDTH 1000 0
DWIDTH 20 0
BBX 16 16 2 0
BITMAP
0800
0800
0800
3C00
FCF8
0B86
0E02
0C01
1801
3801
6801
C802
8806
083C
0870
0800
ENDCHAR
STARTCHAR 3090
ENCODING 12432
SWIDTH 1000 0
DWIDTH 20 0
BBX 16 16 2 -1
BITMAP
00C0
1FC0
00C0
00C0
0080
07F8
1D0C
3106
6303
4601
8601
8CE1
891B
910E
618C
00F8
ENDCHAR
STARTCHAR 3091
ENCODING 12433
SWIDTH 1000 0
DWIDTH 20 0
BBX 18 16 1 0
BITMAP
0FF800
0E6000
00C000
017800
078400
0C0200
338200
244200
044C00
07B800
07F000
0C1E00
1F2300
71C180
E0C0C0
400080
ENDCHAR
STARTCHAR 3092
ENCODING 12434
SWIDTH 1000 0
DWIDTH 20 0
BBX 14 17 3 0
BITMAP
0600
0400
04C0
FFC0
0800
1800
3700
398C
60F8
41C0
C780
0C80
1880
1000
1000
1808
07F8
ENDCHAR
STARTCHAR 3093
ENCODING 12435
SWIDTH 1000 0
DWIDTH 20 0
BBX 16 16 2 0
BITMAP
0180
0100
0300
0200
0600
0400
0C00
0B80
1CC0
18C0
3041
3043
6043
4046
C064
4038
ENDCHAR
STARTCHAR 3094
ENCODING 12436
SWIDTH 1000 0
DWIDTH 20 0
BBX 15 17 4 0
BITMAP
180C
1F36
031A
0008
0000
1F80
F840
C020
0020
0020
0020
0060
0040
00C0
0380
1E00
0800
ENDCHAR
STARTCHAR 3095
ENCODING 12437
SWIDTH 1000 0
DWIDTH 20 0
BBX 14 13 3 -1
BITMAP
0800
0C00
0C00
0860
FF30
5998
1088
108C
3080
2080
6080
4900
CF00
ENDCHAR
STARTCHAR 3096
ENCODING 12438
SWIDTH 1000 0
DWIDTH 20 0
BBX 12 13 4 0
BITMAP
60C0
40C0
4040
C0F0
8FC0
8040
8040
B040
A0C0
E0C0
4180
4300
0200
ENDCHAR
STARTCHAR 3099
ENCODING 12441
SWIDTH 1000 0
DWIDTH 20 0
BBX 4 4 14 12
BITMAP
20
90
50
60
ENDCHAR
STARTCHAR 309A
ENCODING 12442
SWIDTH 1000 0
DWIDTH 20 0
BBX 4 5 14 12
BITMAP
60
90
90
90
60
ENDCHAR
STARTCHAR 309B
ENCODING 12443
SWIDTH 1000 0
DWIDTH 20 0
BBX 4 4 1 12
BITMAP
20
90
D0
60
ENDCHAR
STARTCHAR 309C
ENCODING 12444
SWIDTH 1000 0
DWIDTH 20 0
BBX 4 5 1 12
BITMAP
60
90
90
90
60
ENDCHAR
STARTCHAR 309D
ENCODING 12445
SWIDTH 1000 0
DWIDTH 20 0
BBX 8 10 6 3
BITMAP
C0
70
38
0C
06
03
03
0E
3C
70
ENDCHAR
STARTCHAR 309E
ENCODING 12446
SWIDTH 1000 0
DWIDTH 20 0
BBX 10 13 6 2
BITMAP
0100
0180
06C0
C300
7100
3800
0C00
0600
0300
0300
0E00
3C00
7000
ENDCHAR
STARTCHAR 309F
ENCODING 12447
SWIDTH 1000 0
DWIDTH 20 0
BBX 11 17 5 0
BITMAP
0C00
0800
0800
1FE0
1000
3000
2000
6F00
7080
E040
C040
0040
0040
40C0
4080
6300
3E00
ENDCHAR
STARTCHAR 30A0
ENCODING 12448
SWIDTH 1000 0
DWIDTH 20 0
BBX 8 6 6 4
BITMAP
FF
FF
00
00
FF
FF
ENDCHAR
STARTCHAR 30A1
ENCODING 12449
SWIDTH 1000 0
DWIDTH 20 0
BBX 12 11 4 0
BITMAP
FFF0
C030
0060
0440
04C0
0580
0C00
0C00
1800
3000
6000
ENDCHAR
STARTCHAR 30A2
ENCODING 12450
SWIDTH 1000 0
DWIDTH 20 0
BBX 15 14 3 0
BITMAP
FFFE
0006
000C
0218
0230
0260
0240
0600
0600
0600
0C00
1C00
3800
7000
ENDCHAR
STARTCHAR 30A3
ENCODING 12451
SWIDTH 1000 0
DWIDTH 20 0
BBX 10 13 4 0
BITMAP
00C0
0180
0300
0600
0E00
3E00
E600
8600
0600
0600
0600
0600
0600
ENDCHAR
STARTCHAR 30A4
ENCODING 12452
SWIDTH 1000 0
DWIDTH 20 0
BBX 13 16 2 0
BITMAP
0018
0030
0060
00C0
0180
0780
0D80
3980
E180
8180
0180
0180
0180
0180
0180
0180
ENDCHAR
STARTCHAR 30A5
ENCODING 12453
SWIDTH 1000 0
DWIDTH 20 0
BBX 11 13 5 -1
BITMAP
0C00
0C00
0C00
FFE0
C060
C040
C040
00C0
0080
0180
0300
0E00
1800
ENDCHAR
STARTCHAR 30A6
ENCODING 12454
SWIDTH 1000 0
DWIDTH 20 0
BBX 14 15 3 0
BITMAP
0300
0300
0300
FFFC
C00C
C00C
C008
C018
0018
0010
0030
0060
00C0
0380
0E00
ENDCHAR
STARTCHAR 30A7
ENCODING 12455
SWIDTH 1000 0
DWIDTH 20 0
BBX 14 9 3 1
BITMAP
3FF8
0300
0300
0300
0300
0300
0300
0300
FFFC
ENDCHAR
STARTCHAR 30A8
ENCODING 12456
SWIDTH 1000 0
DWIDTH 20 0
BBX 16 11 2 2
BITMAP
7FFE
0180
0180
0180
0180
0180
0180
0180
0180
0180
FFFF
ENDCHAR
STARTCHAR 30A9
ENCODING 12457
SWIDTH 1000 0
DWIDTH 20 0
BBX 13 12 3 -1
BITMAP
0180
0180
0180
FFF8
0380
0780
0D80
1980
3180
6180
C180
0F80
ENDCHAR
STARTCHAR 30AA
ENCODING 12458
SWIDTH 1000 0
DWIDTH 20 0
BBX 16 16 2 -1
BITMAP
0060
0060
0060
0060
7FFF
00E0
01E0
0160
0360
0660
0C60
1860
3020
E020
4060
03E0
ENDCHAR
STARTCHAR 30AB
ENCODING 12459
SWIDTH 1000 0
DWIDTH 20 0
BBX 14 16 3 0
BITMAP
0300
0300
0300
0300
03FC
FF04
0304
0304
0604
0604
060C
0C0C
180C
180C
7088
E0F8
ENDCHAR
STARTCHAR 30AC
ENCODING 12460
SWIDTH 1000 0
DWIDTH 20 0
BBX 17 17 3 0
BITMAP
000300
030D80
030680
030200
030000
03FC00
FF0400
030400
030400
060400
060400
060C00
0C0C00
180C00
180C00
708800
E0F800
ENDCHAR
STARTCHAR 30AD
ENCODING 12461
SWIDTH 1000 0
DWIDTH 20 0
BBX 16 17 2 -1
BITMAP
0200
0200
0300
0318
07F8
7F00
0100
0180
019F
07FC
FF80
4080
00C0
00C0
00C0
0040
0040
ENDCHAR
ENDFONT
